<svg width="285" height="40" viewBox="0 0 285 40" fill="none" xmlns="http://www.w3.org/2000/svg">
<path d="M130.448 40H5.01722C2.25775 40 0 37.75 0 35V5.00001C0 2.25001 2.25775 6.4532e-06 5.01722 6.4532e-06H130.448C133.207 6.4532e-06 135.465 2.25001 135.465 5.00001V35C135.465 37.75 133.207 40 130.448 40Z" fill="black"/>
<path d="M130.448 6.4532e-06H5.01722C2.25775 6.4532e-06 0 2.25001 0 5.00001V35C0 37.75 2.25775 40 5.01722 40H130.448C133.207 40 135.465 37.75 135.465 35V5.00001C135.465 2.25001 133.207 6.4532e-06 130.448 6.4532e-06ZM130.448 0.800006C132.772 0.800006 134.662 2.68441 134.662 5.00001V35C134.662 37.316 132.772 39.2004 130.448 39.2004H5.01722C2.69364 39.2004 0.802755 37.316 0.802755 35V5.00001C0.802755 2.68441 2.69364 0.800006 5.01722 0.800006H130.448Z" fill="#A6A6A6"/>
<path d="M47.5821 10.2428C47.5821 11.0806 47.3332 11.7478 46.8346 12.2455C46.2682 12.8373 45.5301 13.1334 44.6227 13.1334C43.7537 13.1334 43.0149 12.8334 42.4073 12.2326C41.7986 11.6322 41.4948 10.8877 41.4948 9.99936C41.4948 9.11066 41.7986 8.36657 42.4073 7.76577C43.0149 7.16537 43.7537 6.86497 44.6227 6.86497C45.0538 6.86497 45.4667 6.94897 45.8586 7.11657C46.2506 7.28457 46.5649 7.50757 46.8001 7.78687L46.2709 8.31457C45.8724 7.83997 45.3236 7.60287 44.6227 7.60287C43.9889 7.60287 43.4409 7.82477 42.9784 8.26887C42.5158 8.71347 42.2846 9.28996 42.2846 9.99936C42.2846 10.7088 42.5158 11.2853 42.9784 11.7299C43.4409 12.174 43.9889 12.3959 44.6227 12.3959C45.295 12.3959 45.8555 12.1728 46.3042 11.726C46.5955 11.4349 46.764 11.0303 46.8091 10.5107H44.6227V9.78996H47.5402C47.5684 9.94666 47.5821 10.0971 47.5821 10.2428Z" fill="white"/>
<path d="M47.582 10.2432H47.4817C47.4809 11.0619 47.241 11.6978 46.7635 12.1752L46.7624 12.176L46.762 12.1768C46.2136 12.7482 45.5088 13.0326 44.6226 13.0338C43.7768 13.0326 43.0688 12.7451 42.4777 12.1623C41.8879 11.5783 41.5962 10.8654 41.5951 9.99982C41.5962 9.13382 41.8879 8.42132 42.4777 7.83772C43.0688 7.25452 43.7768 6.96662 44.6226 6.96542C45.0408 6.96542 45.4391 7.04672 45.8189 7.20882C46.1991 7.37212 46.4994 7.58612 46.7232 7.85182L46.8 7.78732L46.7291 7.71662L46.1999 8.24472L46.2708 8.31502L46.3481 8.25102C45.931 7.75292 45.3454 7.50182 44.6226 7.50332C43.9653 7.50252 43.3871 7.73652 42.9089 8.19752C42.426 8.66002 42.1834 9.26892 42.1842 9.99982C42.1834 10.7307 42.426 11.3396 42.9089 11.8021C43.3871 12.2631 43.9653 12.4971 44.6226 12.4963C45.3172 12.4975 45.9091 12.2627 46.3751 11.7971C46.6864 11.4861 46.8628 11.0553 46.909 10.5197L46.9183 10.4111H44.7229V9.89042H47.5401V9.79042L47.4412 9.80802C47.4687 9.95962 47.4817 10.1037 47.4817 10.2432H47.582H47.6824C47.6824 10.0912 47.6682 9.93502 47.6388 9.77252L47.624 9.69042H44.5222V10.5111V10.6111H46.809V10.5111L46.709 10.5025C46.6648 11.0057 46.504 11.3846 46.2332 11.6557C45.802 12.0838 45.2729 12.2951 44.6226 12.2963C44.0123 12.2955 43.4945 12.0861 43.0481 11.6584C42.606 11.2322 42.386 10.6881 42.3849 9.99982C42.386 9.31152 42.606 8.76742 43.0481 8.34122C43.4945 7.91352 44.0123 7.70412 44.6226 7.70332C45.3011 7.70492 45.8135 7.92832 46.1941 8.37952L46.2646 8.46312L46.871 7.85802L46.936 7.79322L46.8768 7.72322C46.6303 7.43032 46.3018 7.19782 45.898 7.02522C45.4936 6.85212 45.0667 6.76542 44.6226 6.76542C43.7305 6.76462 42.9607 7.07712 42.3362 7.69552C41.7095 8.31272 41.3936 9.08852 41.3944 9.99982C41.3936 10.9107 41.7095 11.6869 42.3366 12.3045C42.9607 12.9225 43.7305 13.2346 44.6226 13.2338C45.5516 13.2346 46.3222 12.9271 46.907 12.315L46.8345 12.2459L46.9054 12.3166C47.4252 11.799 47.6831 11.0998 47.6824 10.2432H47.582Z" fill="white"/>
<path d="M52.2069 7.73655H49.4651V9.63895H51.9376V10.36H49.4651V12.2624H52.2069V12.9995H48.6921V6.99945H52.2069V7.73655Z" fill="white"/>
<path d="M52.2068 7.73702V7.63702H49.3646V9.73941H51.8372V10.2601L49.3646 10.2604V12.3628H52.1064V12.8999H48.7923V7.09991H52.1064V7.73702H52.2068V7.63702V7.73702H52.3071V6.99991V6.89991H48.5917V13.0999H52.3071V12.2628V12.1628H49.5653V10.4604H52.0379V9.63941V9.53941H49.5653V7.83702H52.3071V7.73702H52.2068Z" fill="white"/>
<path d="M55.4691 12.9995H54.695V7.73655H53.0134V6.99945H57.1507V7.73655H55.4691V12.9995Z" fill="white"/>
<path d="M55.469 12.9999V12.8999H54.7952V7.63702H53.1136V7.09991H57.0503V7.63702H55.3687V12.9999H55.469V12.8999V12.9999H55.5694V7.83702H57.2509V6.99991V6.89991H52.9129V7.73702V7.83702H54.5945V13.0999H55.469H55.5694V12.9999H55.469Z" fill="white"/>
<path d="M60.1444 12.9995V6.99945H60.9177V12.9995H60.1444Z" fill="white"/>
<path d="M60.1443 12.9999H60.2446V7.09991H60.8173V12.8999H60.1443V12.9999H60.2446H60.1443V13.0999H60.9176H61.018V6.89991H60.1443H60.0439V13.0999H60.1443V12.9999Z" fill="white"/>
<path d="M64.3494 12.9995H63.5753V7.73655H61.8938V6.99945H66.031V7.73655H64.3494V12.9995Z" fill="white"/>
<path d="M64.3494 12.9999V12.8999H63.6755V7.63702H61.9941V7.09991H65.9306V7.63702H64.249V12.9999H64.3494V12.8999V12.9999H64.4497V7.83702H66.1313V6.99991V6.89991H61.7934V7.73702V7.83702H63.4749V13.0999H64.3494H64.4497V12.9999H64.3494Z" fill="white"/>
<path d="M70.0198 11.7217C70.4654 12.1713 71.0107 12.3959 71.6555 12.3959C72.3003 12.3959 72.8459 12.1713 73.2908 11.7217C73.7368 11.2721 73.9603 10.6974 73.9603 9.99936C73.9603 9.30136 73.7368 8.72667 73.2908 8.27707C72.8459 7.82747 72.3003 7.60287 71.6555 7.60287C71.0107 7.60287 70.4654 7.82747 70.0198 8.27707C69.5748 8.72667 69.3515 9.30136 69.3515 9.99936C69.3515 10.6974 69.5748 11.2721 70.0198 11.7217ZM73.8631 12.224C73.2711 12.8306 72.535 13.1334 71.6555 13.1334C70.7751 13.1334 70.0393 12.8306 69.4487 12.224C68.8564 11.6181 68.5617 10.8764 68.5617 9.99936C68.5617 9.12236 68.8564 8.38056 69.4487 7.77477C70.0393 7.16807 70.7751 6.86497 71.6555 6.86497C72.5304 6.86497 73.2645 7.16967 73.8591 7.77867C74.453 8.38767 74.7501 9.12786 74.7501 9.99936C74.7501 10.8764 74.4537 11.6181 73.8631 12.224Z" fill="white"/>
<path d="M70.0197 11.7221L69.9483 11.7924C70.4105 12.26 70.9871 12.4975 71.6554 12.4963C72.3233 12.4975 72.9006 12.26 73.362 11.7924C73.8272 11.3244 74.0612 10.7189 74.0605 9.99983C74.0612 9.28073 73.8272 8.67523 73.362 8.20723C72.9006 7.73963 72.3233 7.50213 71.6554 7.50333C70.9871 7.50213 70.4105 7.73963 69.9483 8.20723C69.4842 8.67523 69.2498 9.28073 69.251 9.99983C69.2498 10.7189 69.4842 11.3244 69.9483 11.7924L70.0197 11.7221L70.091 11.6518C69.6653 11.2201 69.4525 10.6771 69.4517 9.99983C69.4525 9.32253 69.6653 8.77953 70.091 8.34783C70.5206 7.91623 71.0336 7.70453 71.6554 7.70333C72.2766 7.70453 72.7909 7.91623 73.2193 8.34783C73.6458 8.77953 73.8586 9.32253 73.8594 9.99983C73.8586 10.6771 73.6458 11.2201 73.2193 11.6518C72.7909 12.0834 72.2766 12.2951 71.6554 12.2963C71.0336 12.2951 70.5206 12.0834 70.091 11.6518L70.0197 11.7221ZM73.863 12.2244L73.7912 12.1549C73.2158 12.7424 72.5122 13.0326 71.6554 13.0338C70.7981 13.0326 70.0945 12.7424 69.5202 12.1549L69.5175 12.1518L69.5202 12.1549C68.9461 11.5654 68.6627 10.8545 68.6619 9.99983C68.6627 9.14513 68.9461 8.43423 69.5202 7.84473C70.0945 7.25723 70.7981 6.96663 71.6554 6.96543C72.5067 6.96663 73.2087 7.25843 73.7873 7.84903C74.3635 8.44123 74.6484 9.15103 74.6497 9.99983C74.6484 10.8545 74.3643 11.5654 73.7912 12.1549L73.863 12.2244L73.9351 12.2939C74.5434 11.6713 74.851 10.899 74.8503 9.99983C74.851 9.10573 74.5422 8.33503 73.9311 7.70963C73.3197 7.08183 72.5538 6.76433 71.6554 6.76543C70.7523 6.76433 69.984 7.08033 69.3765 7.70573V7.70533C68.767 8.32833 68.4604 9.10063 68.4612 9.99983C68.4604 10.899 68.767 11.6713 69.3765 12.2943L69.3792 12.2971L69.3765 12.2939C69.984 12.9193 70.7523 13.2346 71.6554 13.2338C72.5581 13.2346 73.3263 12.9193 73.9351 12.2939L73.863 12.2244Z" fill="white"/>
<path d="M75.8357 12.9995V6.99945H76.7772L79.7032 11.6671H79.7366L79.7032 10.5108V6.99945H80.4774V12.9995H79.6699L76.6086 8.10565H76.5753L76.6086 9.26235V12.9995H75.8357Z" fill="white"/>
<path d="M75.8356 12.9999H75.9359V7.09991H76.7214L79.6474 11.7675H79.7364H79.8395L79.8035 10.5097V7.09991H80.3769V12.8999H79.7255L76.6642 8.00612H76.5752H76.4721L76.5082 9.26441V12.8999H75.8356V12.9999H75.9359H75.8356V13.0999H76.6085H76.7088V9.26122L76.6755 8.10342L76.5752 8.10612V8.20612H76.6085V8.10612L76.5234 8.15931L79.6141 13.0999H80.4773H80.5776V6.89991H79.7031H79.6028V10.5124L79.6361 11.6702L79.7364 11.6675V11.5675H79.7031V11.6675L79.7882 11.6144L76.8327 6.89991H75.8356H75.7352V13.0999H75.8356V12.9999Z" fill="white"/>
<path d="M107.304 30.0003H109.177V17.4991H107.304V30.0003ZM124.169 22.0023L122.023 27.4222H121.958L119.731 22.0023H117.714L121.054 29.5776L119.15 33.7913H121.104L126.251 22.0023H124.169ZM113.551 28.5804C112.936 28.5804 112.082 28.2749 112.082 27.5187C112.082 26.5538 113.147 26.1839 114.066 26.1839C114.89 26.1839 115.277 26.3608 115.777 26.6023C115.632 27.7601 114.631 28.5804 113.551 28.5804ZM113.776 21.7288C112.421 21.7288 111.017 22.3241 110.436 23.6429L112.098 24.3343C112.453 23.6429 113.114 23.4175 113.808 23.4175C114.777 23.4175 115.761 23.9968 115.777 25.0261V25.1546C115.438 24.9616 114.713 24.6722 113.825 24.6722C112.033 24.6722 110.209 25.653 110.209 27.4866C110.209 29.1593 111.678 30.237 113.324 30.237C114.583 30.237 115.277 29.6741 115.713 29.0148H115.777V29.9796H117.584V25.1866C117.584 22.9675 115.923 21.7288 113.776 21.7288ZM102.205 23.5241H99.5415V19.239H102.205C103.604 19.239 104.399 20.394 104.399 21.3815C104.399 22.3503 103.604 23.5241 102.205 23.5241ZM102.156 17.4991H97.6701V30.0003H99.5415V25.264H102.156C104.232 25.264 106.272 23.7667 106.272 21.3815C106.272 18.9964 104.232 17.4991 102.156 17.4991ZM77.6915 28.5827C76.398 28.5827 75.315 27.5034 75.315 26.021C75.315 24.523 76.398 23.4273 77.6915 23.4273C78.9686 23.4273 79.9708 24.523 79.9708 26.021C79.9708 27.5034 78.9686 28.5827 77.6915 28.5827ZM79.8415 22.7023H79.7768C79.3566 22.203 78.548 21.7519 77.5297 21.7519C75.3957 21.7519 73.4398 23.6206 73.4398 26.021C73.4398 28.4054 75.3957 30.2581 77.5297 30.2581C78.548 30.2581 79.3566 29.8069 79.7768 29.2917H79.8415V29.9038C79.8415 31.5312 78.9686 32.4011 77.5622 32.4011C76.4144 32.4011 75.7031 31.5792 75.4118 30.8866L73.7793 31.5632C74.2481 32.6909 75.493 34.0765 77.5622 34.0765C79.7607 34.0765 81.6198 32.7874 81.6198 29.646V22.0097H79.8415V22.7023ZM82.9129 30.0003H84.7882V17.4987H82.9129V30.0003ZM87.5527 25.8761C87.5041 24.2327 88.8297 23.3952 89.7834 23.3952C90.5276 23.3952 91.1577 23.7655 91.3675 24.2976L87.5527 25.8761ZM93.3723 24.4585C93.0171 23.5077 91.9334 21.7519 89.7187 21.7519C87.5202 21.7519 85.6936 23.4757 85.6936 26.005C85.6936 28.3894 87.5041 30.2581 89.9288 30.2581C91.8852 30.2581 93.0171 29.0659 93.4857 28.3733L92.0307 27.4065C91.5461 28.1155 90.8828 28.5827 89.9288 28.5827C88.9751 28.5827 88.2963 28.1476 87.8596 27.294L93.566 24.9417L93.3723 24.4585ZM47.9081 23.0569V24.8612H52.2405C52.1111 25.8761 51.7717 26.6171 51.2543 27.1327C50.624 27.7612 49.6378 28.4538 47.9081 28.4538C45.2407 28.4538 43.1554 26.3112 43.1554 23.653C43.1554 20.9948 45.2407 18.8519 47.9081 18.8519C49.3469 18.8519 50.3974 19.4159 51.1735 20.1409L52.4506 18.8683C51.3676 17.837 49.9286 17.0476 47.9081 17.0476C44.2545 17.0476 41.183 20.012 41.183 23.653C41.183 27.294 44.2545 30.2581 47.9081 30.2581C49.8805 30.2581 51.3676 29.614 52.5314 28.4054C53.7277 27.2132 54.0997 25.5378 54.0997 24.1847C54.0997 23.7655 54.0674 23.3792 54.0024 23.0569H47.9081ZM59.0252 28.5827C57.7316 28.5827 56.6161 27.5194 56.6161 26.005C56.6161 24.4745 57.7316 23.4273 59.0252 23.4273C60.3182 23.4273 61.4337 24.4745 61.4337 26.005C61.4337 27.5194 60.3182 28.5827 59.0252 28.5827ZM59.0252 21.7519C56.6647 21.7519 54.7409 23.5401 54.7409 26.005C54.7409 28.4538 56.6647 30.2581 59.0252 30.2581C61.3852 30.2581 63.309 28.4538 63.309 26.005C63.309 23.5401 61.3852 21.7519 59.0252 21.7519ZM68.3704 28.5827C67.0774 28.5827 65.9618 27.5194 65.9618 26.005C65.9618 24.4745 67.0774 23.4273 68.3704 23.4273C69.6636 23.4273 70.7791 24.4745 70.7791 26.005C70.7791 27.5194 69.6636 28.5827 68.3704 28.5827ZM68.3704 21.7519C66.01 21.7519 64.0866 23.5401 64.0866 26.005C64.0866 28.4538 66.01 30.2581 68.3704 30.2581C70.7305 30.2581 72.6543 28.4538 72.6543 26.005C72.6543 23.5401 70.7305 21.7519 68.3704 21.7519Z" fill="white"/>
<path d="M10.5462 32.3881L10.4716 32.317C10.1796 32.0091 10.0072 31.531 10.0072 30.9119V31.0576V8.94163C10.0072 8.93963 10.0072 8.93813 10.0072 8.93652C10.0072 8.93843 10.0072 8.94002 10.0072 8.94202V9.08812C10.0072 8.41772 10.2082 7.91273 10.545 7.60993L22.9775 19.9994L10.5462 32.3881ZM10.0072 8.93533C10.0072 8.88023 10.0088 8.82672 10.0116 8.77402C10.0088 8.82633 10.0072 8.88023 10.0072 8.93533ZM10.0116 8.77163C10.0116 8.77093 10.0116 8.77012 10.0119 8.76933C10.0116 8.77012 10.0116 8.77093 10.0116 8.77163ZM10.0119 8.76463C10.0119 8.76423 10.0119 8.76383 10.0119 8.76343C10.0119 8.76383 10.0119 8.76423 10.0119 8.76463Z" fill="url(#paint0_linear_1_515)"/>
<path d="M27.1198 24.2776L27.2143 24.2241L32.1241 21.444C32.5922 21.1788 32.9042 20.8573 33.0598 20.5171C32.9046 20.8573 32.5925 21.1792 32.1241 21.4444L27.2143 24.2245L27.1198 24.2776ZM27.121 24.1311L22.9763 19.9999L27.1206 15.8695L32.1241 18.7023C32.7595 19.0621 33.1162 19.5257 33.1758 19.9995C33.1758 19.9999 33.1758 20.0008 33.1758 20.0015C33.1162 20.4742 32.7595 20.9382 32.1241 21.2979L27.121 24.1311Z" fill="url(#paint1_linear_1_515)"/>
<path d="M11.4329 32.8613C11.0856 32.8613 10.7825 32.7488 10.5462 32.5363L10.5466 32.5359C10.7829 32.7484 11.0864 32.8613 11.4337 32.8613C11.4638 32.8613 11.4944 32.8605 11.5254 32.859C11.494 32.8605 11.463 32.8613 11.4329 32.8613ZM11.4333 32.7148C11.086 32.7152 10.7829 32.6023 10.5466 32.3898V32.3895L22.9779 20.0008L27.1226 24.132L12.5574 32.3793C12.1544 32.607 11.7726 32.7148 11.4333 32.7148ZM10.5431 32.5336C10.5211 32.5137 10.4996 32.4926 10.4784 32.4707L10.5431 32.5336Z" fill="url(#paint2_linear_1_515)"/>
<path d="M22.977 20L10.5445 7.6105C10.7808 7.3984 11.0835 7.2859 11.4304 7.2859C11.7706 7.2859 12.1527 7.39411 12.5565 7.62221L27.1213 15.8695L22.977 20ZM27.215 15.7762L12.5565 7.4762C12.1527 7.248 11.7706 7.1398 11.4304 7.1398C11.4287 7.1398 11.4276 7.1398 11.426 7.1398C11.428 7.1398 11.4295 7.1398 11.432 7.1398C11.7714 7.1398 12.1531 7.2476 12.5565 7.4758L27.215 15.7762Z" fill="url(#paint3_linear_1_515)"/>
<path d="M11.5249 32.8585C11.8403 32.8405 12.1896 32.7323 12.5569 32.5249L27.1209 24.278L12.5569 32.5249C12.1899 32.7327 11.8403 32.8405 11.5249 32.8585ZM10.5457 32.5358L10.5426 32.5331C10.5437 32.5339 10.5449 32.535 10.5457 32.5358ZM10.4779 32.4702L10.4715 32.464V32.4636C10.474 32.4659 10.4759 32.4682 10.4779 32.4702Z" fill="black"/>
<path d="M27.1214 24.2776L27.2159 24.2241L27.1214 24.2776Z" fill="url(#paint4_linear_1_515)"/>
<path d="M11.4329 32.8613C11.0856 32.8613 10.7821 32.7484 10.5458 32.5359L10.5454 32.5363C10.5446 32.5355 10.5434 32.5344 10.5423 32.5336L10.4776 32.4707C10.4756 32.4687 10.4737 32.4664 10.4713 32.4641L10.5458 32.3898C10.7821 32.6023 11.0852 32.7152 11.4325 32.7148C11.7718 32.7148 12.1536 32.607 12.5566 32.3793L27.1218 24.132L27.2151 24.225L27.1206 24.2785L12.5566 32.5254C12.1894 32.7328 11.8401 32.841 11.5246 32.859C11.4936 32.8605 11.463 32.8613 11.4329 32.8613Z" fill="url(#paint5_linear_1_515)"/>
<path d="M10.4714 32.4651C10.1794 32.1572 10.007 31.6791 10.007 31.0601V31.0597C10.007 31.6791 10.1794 32.1568 10.4714 32.4647V32.4651Z" fill="black"/>
<path d="M10.4716 32.4654C10.1796 32.1575 10.0072 31.6798 10.0072 31.0603V30.9146C10.0072 31.5337 10.1796 32.0118 10.4716 32.3197L10.5462 32.3908L10.4716 32.4654Z" fill="url(#paint6_linear_1_515)"/>
<path d="M10.4713 32.4654L10.5458 32.3908V32.3911L10.4713 32.4654Z" fill="url(#paint7_linear_1_515)"/>
<path d="M33.0608 20.5176C33.138 20.3488 33.1768 20.1754 33.1768 20.0019C33.1768 20.0016 33.1768 20.0012 33.1768 20.0012C33.1768 20.175 33.138 20.3484 33.0608 20.5176Z" fill="black"/>
<path d="M27.215 24.2238L27.1217 24.1308L32.1247 21.2976C32.7601 20.9379 33.1168 20.4738 33.1764 20.0011C33.1764 20.1746 33.1376 20.348 33.0604 20.5168C32.9048 20.857 32.5928 21.1785 32.1247 21.4437L27.215 24.2238Z" fill="url(#paint8_linear_1_515)"/>
<path d="M33.1766 20V19.9996C33.1762 19.4765 32.8254 18.9535 32.1249 18.5566L27.2151 15.7765H27.2147L27.2151 15.7762L32.1249 18.5562C32.8262 18.9531 33.1774 19.4769 33.1766 20Z" fill="#404040"/>
<path d="M33.1767 20C33.1171 19.5262 32.7604 19.0625 32.125 18.7027L27.1215 15.8699L27.2148 15.7769H27.2152L32.125 18.557C32.8255 18.9539 33.1763 19.4769 33.1767 20Z" fill="url(#paint9_linear_1_515)"/>
<path d="M10.007 8.93695C10.007 8.93655 10.007 8.93615 10.007 8.93575C10.007 8.93615 10.007 8.93655 10.007 8.93695ZM10.0113 8.77445C10.0113 8.77365 10.0113 8.77285 10.0113 8.77205C10.0113 8.77285 10.0113 8.77365 10.0113 8.77445ZM10.0116 8.76975C10.0116 8.76815 10.0116 8.76665 10.0116 8.76505C10.0116 8.76665 10.0116 8.76815 10.0116 8.76975ZM10.0116 8.76385C10.0697 7.73655 10.6302 7.14315 11.4231 7.13965C11.0794 7.14165 10.7799 7.25415 10.5455 7.46465V7.46425L10.5427 7.46705C10.518 7.48925 10.4945 7.51275 10.4714 7.53695C10.208 7.81465 10.0418 8.23065 10.0116 8.76385Z" fill="#404040"/>
<path d="M10.0072 9.08734V8.94124C10.0072 8.93924 10.0072 8.93764 10.0072 8.93574C10.0072 8.93534 10.0072 8.93494 10.0072 8.93454C10.0072 8.87944 10.0088 8.82554 10.0116 8.77324C10.0116 8.77244 10.0116 8.77164 10.0116 8.77084C10.0116 8.77014 10.0116 8.76934 10.0119 8.76854C10.0119 8.76694 10.0119 8.76544 10.0119 8.76384C10.0119 8.76344 10.0119 8.76304 10.0119 8.76264C10.0421 8.22944 10.2082 7.81344 10.4716 7.53574L10.545 7.60914C10.2082 7.91194 10.0072 8.41694 10.0072 9.08734ZM10.543 7.46584L10.5458 7.46304C10.545 7.46424 10.5438 7.46504 10.543 7.46584Z" fill="url(#paint10_linear_1_515)"/>
<path d="M27.1214 15.8694L12.5566 7.62215C12.1528 7.39405 11.7707 7.28585 11.4305 7.28585C11.0836 7.28585 10.7809 7.39835 10.5446 7.61045L10.4713 7.53705C10.4944 7.51285 10.5179 7.48935 10.5426 7.46715C10.5434 7.46635 10.5446 7.46555 10.5454 7.46475C10.7798 7.25425 11.0793 7.14175 11.423 7.13975C11.4238 7.13975 11.4249 7.13975 11.4261 7.13975C11.4278 7.13975 11.4289 7.13975 11.4305 7.13975C11.7707 7.13975 12.1528 7.24794 12.5566 7.47614L27.2151 15.7761L27.2147 15.7764L27.1214 15.8694Z" fill="url(#paint11_linear_1_515)"/>
<path d="M274.648 0.00013H173.702C173.334 0.00013 172.97 0.00013 172.603 0.00212999C172.296 0.00412999 171.991 0.00993997 171.681 0.01483C171.007 0.0227317 170.335 0.081806 169.67 0.191539C169.007 0.303662 168.364 0.515044 167.763 0.818537C167.163 1.1246 166.615 1.52229 166.139 1.99719C165.66 2.47076 165.261 3.01814 164.957 3.61828C164.652 4.21723 164.44 4.85905 164.329 5.52159C164.218 6.18329 164.158 6.85263 164.15 7.52358C164.14 7.83018 164.139 8.1378 164.134 8.44444V31.5586C164.139 31.8691 164.14 32.1699 164.15 32.4805C164.158 33.1514 164.218 33.8207 164.329 34.4824C164.44 35.1453 164.651 35.7875 164.957 36.3867C165.261 36.9849 165.66 37.5301 166.139 38.001C166.613 38.478 167.162 38.876 167.763 39.1797C168.364 39.484 169.006 39.6966 169.67 39.8105C170.335 39.9194 171.007 39.9785 171.681 39.9873C171.991 39.9941 172.296 39.998 172.603 39.998C172.97 40 173.334 40 173.702 40H274.648C275.009 40 275.375 40 275.736 39.998C276.042 39.998 276.355 39.9941 276.661 39.9873C277.333 39.9789 278.004 39.9198 278.668 39.8105C279.334 39.6958 279.979 39.4833 280.582 39.1797C281.183 38.8758 281.731 38.4778 282.205 38.001C282.683 37.5282 283.083 36.9835 283.391 36.3867C283.694 35.7871 283.903 35.145 284.012 34.4824C284.124 33.8207 284.186 33.1515 284.198 32.4805C284.202 32.1699 284.202 31.8691 284.202 31.5586C284.21 31.1953 284.21 30.834 284.21 30.4648V9.53623C284.21 9.17002 284.21 8.80674 284.202 8.44444C284.202 8.1378 284.202 7.83018 284.198 7.52354C284.186 6.85253 284.124 6.18335 284.012 5.52155C283.903 4.8594 283.694 4.21762 283.391 3.61824C282.772 2.41532 281.789 1.43615 280.582 0.818447C279.979 0.515696 279.334 0.304369 278.668 0.191449C278.004 0.0812325 277.333 0.0221377 276.661 0.01469C276.355 0.00980997 276.042 0.00394999 275.736 0.00199999C275.375 0 275.009 0 274.648 0V0.00013Z" fill="#A6A6A6"/>
<path d="M172.608 39.1246C172.302 39.1246 172.004 39.1207 171.701 39.1139C171.072 39.1057 170.445 39.0512 169.825 38.9508C169.247 38.8515 168.686 38.6668 168.162 38.4029C167.644 38.1411 167.17 37.7978 166.761 37.3863C166.345 36.9795 165.999 36.5078 165.737 35.9898C165.471 35.4684 165.287 34.9095 165.192 34.3326C165.089 33.7127 165.033 33.0859 165.025 32.4576C165.018 32.2467 165.01 31.5445 165.01 31.5445V8.44401C165.01 8.44401 165.019 7.7526 165.025 7.54947C165.032 6.92216 165.088 6.29633 165.191 5.67741C165.287 5.09893 165.471 4.53843 165.736 4.01531C165.998 3.49763 166.342 3.02555 166.755 2.61737C167.167 2.20531 167.642 1.8603 168.162 1.5949C168.685 1.33179 169.244 1.14843 169.821 1.05096C170.443 0.949531 171.072 0.894691 171.703 0.886905L172.608 0.874695H275.731L276.647 0.887395C277.272 0.894794 277.895 0.949145 278.512 1.04998C279.095 1.14867 279.66 1.33331 280.188 1.59783C281.23 2.13268 282.077 2.97885 282.612 4.01775C282.873 4.53726 283.054 5.09319 283.149 5.66667C283.253 6.29067 283.311 6.92141 283.323 7.55387C283.326 7.83707 283.326 8.14127 283.326 8.44401C283.334 8.81901 283.334 9.17594 283.334 9.5358V30.4644C283.334 30.8277 283.334 31.1822 283.326 31.5396C283.326 31.8648 283.326 32.1627 283.322 32.4693C283.31 33.0905 283.253 33.7099 283.15 34.3228C283.057 34.9038 282.874 35.4671 282.609 35.9928C282.344 36.5052 282 36.9728 281.59 37.3785C281.18 37.7923 280.705 38.1375 280.185 38.401C279.658 38.667 279.094 38.8523 278.512 38.9508C277.891 39.0517 277.264 39.1062 276.636 39.1139C276.342 39.1207 276.034 39.1246 275.735 39.1246L274.648 39.1266L172.608 39.1246Z" fill="black"/>
<path d="M188.988 20.3009C188.999 19.4662 189.221 18.6478 189.635 17.9219C190.048 17.1959 190.639 16.586 191.353 16.1488C190.899 15.5037 190.301 14.9727 189.606 14.5982C188.911 14.2236 188.138 14.0158 187.348 13.9911C185.663 13.8149 184.029 14.996 183.171 14.996C182.295 14.996 180.973 14.0086 179.55 14.0378C178.629 14.0675 177.731 14.3343 176.945 14.8124C176.158 15.2904 175.509 15.9634 175.061 16.7657C173.121 20.1141 174.568 25.0351 176.427 27.7417C177.357 29.0671 178.444 30.5475 179.867 30.495C181.258 30.4375 181.778 29.6105 183.458 29.6105C185.123 29.6105 185.611 30.495 187.062 30.4616C188.555 30.4375 189.496 29.1304 190.394 27.7925C191.062 26.8482 191.576 25.8044 191.917 24.7C191.05 24.3343 190.309 23.7221 189.788 22.9398C189.267 22.1575 188.989 21.2397 188.988 20.3009Z" fill="white"/>
<path d="M186.247 12.2113C187.062 11.2371 187.463 9.98493 187.366 8.7207C186.122 8.85092 184.972 9.44348 184.147 10.3803C183.743 10.838 183.434 11.3704 183.237 11.9472C183.041 12.5239 182.96 13.1337 182.999 13.7417C183.622 13.7481 184.237 13.6137 184.8 13.3486C185.362 13.0835 185.857 12.6946 186.247 12.2113Z" fill="white"/>
<path d="M206.581 27.1391H201.832L200.691 30.4955H198.679L203.178 18.0776H205.268L209.767 30.4955H207.721L206.581 27.1391ZM202.324 25.5903H206.088L204.233 20.143H204.181L202.324 25.5903Z" fill="white"/>
<path d="M219.483 25.97C219.483 28.7835 217.972 30.5911 215.692 30.5911C215.114 30.6212 214.54 30.4886 214.034 30.2084C213.529 29.9283 213.112 29.512 212.833 29.0071H212.79V33.4914H210.925V21.4427H212.73V22.9485H212.765C213.057 22.446 213.48 22.0319 213.989 21.75C214.499 21.4682 215.075 21.3292 215.657 21.3479C217.963 21.3479 219.483 23.1643 219.483 25.97ZM217.566 25.97C217.566 24.137 216.616 22.9319 215.166 22.9319C213.741 22.9319 212.782 24.1624 212.782 25.97C212.782 27.7942 213.741 29.0159 215.166 29.0159C216.616 29.0159 217.566 27.8196 217.566 25.97Z" fill="white"/>
<path d="M229.482 25.97C229.482 28.7834 227.971 30.5911 225.691 30.5911C225.113 30.6212 224.539 30.4886 224.033 30.2084C223.528 29.9283 223.112 29.5119 222.833 29.0071H222.789V33.4914H220.925V21.4426H222.73V22.9485H222.764C223.056 22.446 223.479 22.0318 223.988 21.75C224.498 21.4682 225.074 21.3292 225.657 21.3479C227.962 21.3479 229.482 23.1643 229.482 25.97ZM227.566 25.97C227.566 24.137 226.615 22.9319 225.165 22.9319C223.74 22.9319 222.782 24.1624 222.782 25.97C222.782 27.7942 223.74 29.0159 225.165 29.0159C226.615 29.0159 227.566 27.8196 227.566 25.97H227.566Z" fill="white"/>
<path d="M236.091 27.0362C236.229 28.2676 237.43 29.0761 239.07 29.0761C240.642 29.0761 241.773 28.2676 241.773 27.1572C241.773 26.1933 241.091 25.6162 239.476 25.2207L237.861 24.833C235.573 24.2822 234.51 23.2158 234.51 21.4853C234.51 19.3428 236.384 17.8711 239.045 17.8711C241.678 17.8711 243.483 19.3428 243.543 21.4853H241.661C241.548 20.2461 240.52 19.498 239.018 19.498C237.516 19.498 236.488 20.2549 236.488 21.3564C236.488 22.2344 237.145 22.751 238.751 23.1464L240.123 23.4824C242.68 24.0849 243.742 25.1084 243.742 26.9247C243.742 29.248 241.885 30.7031 238.932 30.7031C236.168 30.7031 234.303 29.2822 234.182 27.0361L236.091 27.0362Z" fill="white"/>
<path d="M247.767 19.2997V21.4423H249.494V22.9139H247.767V27.9051C247.767 28.6805 248.113 29.0418 248.872 29.0418C249.077 29.0383 249.282 29.0239 249.485 28.9988V30.4617C249.144 30.5253 248.797 30.5541 248.45 30.5477C246.61 30.5477 245.893 29.8592 245.893 28.1033V22.9139H244.572V21.4423H245.893V19.2997H247.767Z" fill="white"/>
<path d="M250.494 25.9696C250.494 23.121 252.178 21.3309 254.803 21.3309C257.437 21.3309 259.113 23.1209 259.113 25.9696C259.113 28.826 257.446 30.6082 254.803 30.6082C252.161 30.6082 250.494 28.826 250.494 25.9696ZM257.213 25.9696C257.213 24.0155 256.314 22.8622 254.803 22.8622C253.292 22.8622 252.394 24.0243 252.394 25.9696C252.394 27.9315 253.292 29.076 254.803 29.076C256.314 29.076 257.213 27.9315 257.213 25.9696H257.213Z" fill="white"/>
<path d="M260.651 21.4426H262.429V22.9836H262.472C262.593 22.5023 262.875 22.0769 263.273 21.7791C263.671 21.4812 264.16 21.3289 264.657 21.3478C264.872 21.3471 265.087 21.3703 265.296 21.4172V23.1554C265.025 23.0728 264.742 23.0349 264.458 23.0431C264.188 23.0322 263.918 23.0798 263.667 23.1827C263.416 23.2856 263.191 23.4413 263.006 23.6392C262.821 23.8371 262.682 24.0724 262.597 24.3291C262.513 24.5858 262.485 24.8577 262.515 25.1261V30.4962H260.651L260.651 21.4426Z" fill="white"/>
<path d="M273.894 27.8368C273.644 29.4803 272.037 30.6082 269.983 30.6082C267.34 30.6082 265.699 28.8436 265.699 26.0126C265.699 23.1727 267.349 21.3309 269.904 21.3309C272.418 21.3309 273.998 23.0516 273.998 25.7967V26.4335H267.582V26.5458C267.552 26.879 267.594 27.2146 267.705 27.5305C267.815 27.8463 267.992 28.1351 268.223 28.3776C268.454 28.6202 268.734 28.8109 269.045 28.9372C269.356 29.0635 269.69 29.1225 270.026 29.1102C270.466 29.1513 270.909 29.0496 271.287 28.8202C271.665 28.5908 271.958 28.2458 272.124 27.8368L273.894 27.8368ZM267.591 25.1346H272.133C272.149 24.835 272.104 24.5352 271.999 24.254C271.894 23.9728 271.731 23.7163 271.522 23.5005C271.313 23.2847 271.061 23.1144 270.783 23.0002C270.504 22.886 270.205 22.8303 269.904 22.8368C269.601 22.835 269.299 22.8931 269.018 23.0079C268.737 23.1226 268.482 23.2917 268.267 23.5053C268.052 23.7189 267.881 23.9729 267.765 24.2526C267.649 24.5322 267.59 24.832 267.591 25.1346V25.1346Z" fill="white"/>
<path d="M202.091 8.73169C202.482 8.70373 202.874 8.76259 203.239 8.90402C203.605 9.04545 203.934 9.26593 204.204 9.54955C204.473 9.83318 204.676 10.1729 204.798 10.5441C204.92 10.9154 204.957 11.309 204.908 11.6965C204.908 13.6028 203.874 14.6985 202.091 14.6985H199.928V8.73169H202.091ZM200.858 13.8547H201.987C202.266 13.8713 202.546 13.8257 202.805 13.721C203.065 13.6164 203.298 13.4555 203.487 13.2499C203.676 13.0444 203.817 12.7993 203.899 12.5327C203.981 12.2661 204.002 11.9846 203.962 11.7087C203.999 11.4338 203.976 11.1541 203.892 10.8894C203.809 10.6247 203.668 10.3817 203.479 10.1778C203.29 9.97388 203.059 9.81408 202.801 9.70984C202.543 9.6056 202.265 9.55952 201.987 9.57489H200.858V13.8547Z" fill="white"/>
<path d="M205.959 12.4452C205.93 12.1493 205.964 11.8507 206.058 11.5686C206.153 11.2866 206.305 11.0272 206.506 10.8073C206.706 10.5873 206.951 10.4115 207.224 10.2912C207.496 10.171 207.791 10.1088 208.09 10.1088C208.388 10.1088 208.683 10.171 208.956 10.2912C209.228 10.4115 209.473 10.5873 209.674 10.8073C209.874 11.0272 210.027 11.2866 210.121 11.5686C210.215 11.8507 210.249 12.1493 210.22 12.4452C210.249 12.7414 210.216 13.0404 210.122 13.3229C210.028 13.6054 209.876 13.8653 209.675 14.0857C209.474 14.3061 209.23 14.4822 208.957 14.6028C208.684 14.7233 208.388 14.7856 208.09 14.7856C207.791 14.7856 207.496 14.7233 207.223 14.6028C206.949 14.4822 206.705 14.3061 206.504 14.0857C206.303 13.8653 206.151 13.6054 206.057 13.3229C205.963 13.0404 205.93 12.7414 205.959 12.4452ZM209.303 12.4452C209.303 11.4691 208.863 10.8983 208.091 10.8983C207.316 10.8983 206.88 11.4691 206.88 12.4452C206.88 13.4291 207.316 13.9955 208.091 13.9955C208.863 13.9955 209.303 13.4252 209.303 12.4452H209.303Z" fill="white"/>
<path d="M215.885 14.6982H214.96L214.026 11.3818H213.956L213.026 14.6982H212.11L210.864 10.1953H211.769L212.578 13.6313H212.645L213.574 10.1953H214.429L215.358 13.6313H215.429L216.234 10.1953H217.126L215.885 14.6982Z" fill="white"/>
<path d="M218.173 10.196H219.032V10.9113H219.098C219.211 10.6544 219.402 10.439 219.644 10.2952C219.885 10.1514 220.166 10.0863 220.447 10.109C220.666 10.0926 220.887 10.1256 221.092 10.2057C221.298 10.2858 221.482 10.4109 221.633 10.5717C221.783 10.7326 221.895 10.9251 221.96 11.1349C222.026 11.3447 222.043 11.5665 222.011 11.7838V14.6988H221.119V12.007C221.119 11.2834 220.803 10.9235 220.144 10.9235C219.994 10.9166 219.845 10.9419 219.707 10.9977C219.568 11.0536 219.444 11.1386 219.341 11.247C219.239 11.3553 219.161 11.4845 219.113 11.6257C219.066 11.7668 219.049 11.9165 219.065 12.0646V14.6989H218.173L218.173 10.196Z" fill="white"/>
<path d="M223.432 8.4375H224.324V14.6982H223.432V8.4375Z" fill="white"/>
<path d="M225.563 12.4453C225.535 12.1493 225.569 11.8508 225.663 11.5687C225.757 11.2866 225.909 11.0273 226.11 10.8073C226.311 10.5873 226.555 10.4115 226.828 10.2912C227.101 10.171 227.396 10.1088 227.694 10.1088C227.993 10.1088 228.288 10.171 228.56 10.2912C228.833 10.4115 229.078 10.5873 229.278 10.8073C229.479 11.0273 229.631 11.2866 229.726 11.5687C229.82 11.8508 229.854 12.1493 229.825 12.4453C229.854 12.7415 229.821 13.0405 229.727 13.323C229.633 13.6055 229.481 13.8654 229.28 14.0858C229.079 14.3062 228.834 14.4823 228.561 14.6028C228.288 14.7234 227.993 14.7856 227.694 14.7856C227.396 14.7856 227.1 14.7234 226.827 14.6028C226.554 14.4823 226.309 14.3062 226.109 14.0858C225.908 13.8654 225.756 13.6055 225.662 13.323C225.568 13.0405 225.534 12.7415 225.563 12.4453ZM228.908 12.4453C228.908 11.4692 228.468 10.8984 227.696 10.8984C226.92 10.8984 226.484 11.4692 226.484 12.4453C226.484 13.4292 226.92 13.9956 227.696 13.9956C228.468 13.9956 228.908 13.4253 228.908 12.4453H228.908Z" fill="white"/>
<path d="M230.764 13.4252C230.764 12.6147 231.369 12.1474 232.444 12.081L233.668 12.0107V11.622C233.668 11.1464 233.353 10.8779 232.743 10.8779C232.245 10.8779 231.901 11.06 231.802 11.3784H230.938C231.029 10.6049 231.759 10.1088 232.784 10.1088C233.917 10.1088 234.556 10.6708 234.556 11.622V14.6986H233.698V14.0658H233.627C233.484 14.2928 233.283 14.4779 233.044 14.6021C232.806 14.7263 232.539 14.7852 232.27 14.7728C232.08 14.7925 231.889 14.7723 231.707 14.7136C231.526 14.6549 231.359 14.559 231.217 14.432C231.075 14.3051 230.961 14.1499 230.883 13.9765C230.805 13.8031 230.765 13.6153 230.764 13.4252ZM233.668 13.0404V12.664L232.565 12.7343C231.943 12.7758 231.66 12.9867 231.66 13.3837C231.66 13.789 232.013 14.0248 232.498 14.0248C232.64 14.0392 232.784 14.0248 232.92 13.9828C233.057 13.9407 233.184 13.8716 233.293 13.7798C233.402 13.688 233.491 13.5752 233.556 13.4482C233.62 13.3211 233.659 13.1825 233.668 13.0404Z" fill="white"/>
<path d="M235.728 12.4448C235.728 11.022 236.462 10.1206 237.604 10.1206C237.886 10.1076 238.166 10.1751 238.412 10.3149C238.657 10.4548 238.858 10.6614 238.989 10.9106H239.056V8.4375H239.948V14.6982H239.093V13.9868H239.023C238.881 14.2343 238.673 14.4383 238.423 14.5768C238.173 14.7153 237.89 14.7829 237.604 14.7724C236.454 14.7725 235.728 13.8711 235.728 12.4448ZM236.649 12.4448C236.649 13.3999 237.101 13.9746 237.857 13.9746C238.608 13.9746 239.073 13.3916 239.073 12.4487C239.073 11.5103 238.603 10.919 237.857 10.919C237.106 10.919 236.649 11.4976 236.649 12.4448H236.649Z" fill="white"/>
<path d="M243.637 12.4452C243.609 12.1493 243.643 11.8507 243.737 11.5686C243.831 11.2866 243.983 11.0272 244.184 10.8073C244.385 10.5873 244.629 10.4115 244.902 10.2912C245.175 10.171 245.47 10.1088 245.768 10.1088C246.066 10.1088 246.361 10.171 246.634 10.2912C246.907 10.4115 247.152 10.5873 247.352 10.8073C247.553 11.0272 247.705 11.2866 247.799 11.5686C247.893 11.8507 247.927 12.1493 247.899 12.4452C247.928 12.7414 247.894 13.0404 247.8 13.3229C247.707 13.6054 247.554 13.8653 247.354 14.0857C247.153 14.3061 246.908 14.4822 246.635 14.6028C246.362 14.7233 246.067 14.7856 245.768 14.7856C245.47 14.7856 245.174 14.7233 244.901 14.6028C244.628 14.4822 244.383 14.3061 244.183 14.0857C243.982 13.8653 243.83 13.6054 243.736 13.3229C243.642 13.0404 243.608 12.7414 243.637 12.4452ZM246.982 12.4452C246.982 11.4691 246.542 10.8983 245.77 10.8983C244.995 10.8983 244.558 11.4691 244.558 12.4452C244.558 13.4291 244.995 13.9955 245.77 13.9955C246.542 13.9955 246.982 13.4252 246.982 12.4452Z" fill="white"/>
<path d="M249.095 10.196H249.954V10.9113H250.02C250.133 10.6544 250.324 10.439 250.566 10.2952C250.807 10.1514 251.088 10.0863 251.369 10.109C251.589 10.0926 251.809 10.1256 252.015 10.2057C252.22 10.2858 252.405 10.4109 252.555 10.5717C252.705 10.7326 252.817 10.9251 252.882 11.1349C252.948 11.3447 252.965 11.5665 252.933 11.7838V14.6988H252.041V12.007C252.041 11.2834 251.725 10.9235 251.066 10.9235C250.917 10.9166 250.768 10.9419 250.629 10.9977C250.491 11.0536 250.366 11.1386 250.263 11.247C250.161 11.3553 250.083 11.4845 250.035 11.6257C249.988 11.7668 249.971 11.9165 249.987 12.0646V14.6989H249.095V10.196Z" fill="white"/>
<path d="M257.972 9.07367V10.2153H258.951V10.9638H257.972V13.2792C257.972 13.7509 258.167 13.9574 258.611 13.9574C258.724 13.9571 258.838 13.9502 258.951 13.9369V14.6772C258.79 14.7057 258.628 14.7209 258.465 14.7226C257.474 14.7226 257.079 14.3749 257.079 13.5068V10.9638H256.362V10.2152H257.079V9.07367H257.972Z" fill="white"/>
<path d="M260.168 8.4375H261.052V10.9189H261.123C261.241 10.6596 261.437 10.443 261.684 10.2987C261.93 10.1543 262.215 10.0893 262.5 10.1123C262.719 10.1004 262.938 10.1368 263.141 10.2189C263.344 10.3009 263.526 10.4266 263.675 10.5869C263.823 10.7473 263.934 10.9383 264 11.1464C264.066 11.3546 264.086 11.5747 264.056 11.791V14.6982H263.164V12.0102C263.164 11.291 262.828 10.9267 262.198 10.9267C262.044 10.9142 261.89 10.9352 261.746 10.9883C261.602 11.0413 261.471 11.1251 261.362 11.2339C261.254 11.3426 261.171 11.4736 261.119 11.6178C261.066 11.7619 261.046 11.9157 261.06 12.0683V14.6982H260.168L260.168 8.4375Z" fill="white"/>
<path d="M269.256 13.4829C269.135 13.8944 268.873 14.2504 268.515 14.4886C268.157 14.7267 267.726 14.8319 267.298 14.7856C267.001 14.7935 266.705 14.7366 266.431 14.6191C266.158 14.5016 265.913 14.3262 265.715 14.105C265.516 13.8839 265.368 13.6223 265.281 13.3385C265.194 13.0547 265.17 12.7554 265.211 12.4614C265.171 12.1665 265.196 11.8666 265.283 11.5819C265.369 11.2973 265.517 11.0345 265.714 10.8114C265.912 10.5884 266.155 10.4102 266.428 10.289C266.7 10.1678 266.996 10.1064 267.294 10.1089C268.552 10.1089 269.31 10.9649 269.31 12.3789V12.689H266.119V12.7388C266.106 12.904 266.126 13.0704 266.181 13.2271C266.235 13.3839 266.322 13.5276 266.435 13.649C266.548 13.7705 266.686 13.867 266.839 13.9324C266.992 13.9978 267.156 14.0306 267.323 14.0288C267.536 14.0543 267.752 14.016 267.944 13.9188C268.135 13.8216 268.293 13.6699 268.398 13.4829L269.256 13.4829ZM266.119 12.0317H268.402C268.413 11.8806 268.392 11.7288 268.341 11.5861C268.29 11.4434 268.21 11.3129 268.105 11.203C268 11.0932 267.873 11.0064 267.733 10.9482C267.593 10.89 267.442 10.8618 267.289 10.8652C267.135 10.8633 266.982 10.8922 266.839 10.9501C266.696 11.0081 266.567 11.0939 266.458 11.2026C266.349 11.3113 266.263 11.4407 266.204 11.5831C266.146 11.7255 266.117 11.878 266.119 12.0317H266.119Z" fill="white"/>
<defs>
<linearGradient id="paint0_linear_1_515" x1="21.8751" y1="8.70833" x2="5.09268" y2="25.5485" gradientUnits="userSpaceOnUse">
<stop stop-color="#00A0FF"/>
<stop offset="0.00657445" stop-color="#00A1FF"/>
<stop offset="0.2601" stop-color="#00BEFF"/>
<stop offset="0.5122" stop-color="#00D2FF"/>
<stop offset="0.7604" stop-color="#00DFFF"/>
<stop offset="1" stop-color="#00E3FF"/>
</linearGradient>
<linearGradient id="paint1_linear_1_515" x1="33.9499" y1="20.0006" x2="9.66962" y2="20.0006" gradientUnits="userSpaceOnUse">
<stop stop-color="#FFE000"/>
<stop offset="0.4087" stop-color="#FFBD00"/>
<stop offset="0.7754" stop-color="#FFA500"/>
<stop offset="1" stop-color="#FF9C00"/>
</linearGradient>
<linearGradient id="paint2_linear_1_515" x1="24.9131" y1="22.2961" x2="2.15495" y2="45.1327" gradientUnits="userSpaceOnUse">
<stop stop-color="#FF3A44"/>
<stop offset="1" stop-color="#C31162"/>
</linearGradient>
<linearGradient id="paint3_linear_1_515" x1="7.32215" y1="0.175407" x2="17.4846" y2="10.3728" gradientUnits="userSpaceOnUse">
<stop stop-color="#32A071"/>
<stop offset="0.0685" stop-color="#2DA771"/>
<stop offset="0.4762" stop-color="#15CF74"/>
<stop offset="0.8009" stop-color="#06E775"/>
<stop offset="1" stop-color="#00F076"/>
</linearGradient>
<linearGradient id="paint4_linear_1_515" x1="33.9512" y1="20.0005" x2="9.67186" y2="20.0005" gradientUnits="userSpaceOnUse">
<stop stop-color="#CCB300"/>
<stop offset="0.4087" stop-color="#CC9700"/>
<stop offset="0.7754" stop-color="#CC8400"/>
<stop offset="1" stop-color="#CC7D00"/>
</linearGradient>
<linearGradient id="paint5_linear_1_515" x1="24.9123" y1="22.2961" x2="2.15416" y2="45.1327" gradientUnits="userSpaceOnUse">
<stop stop-color="#CC2E36"/>
<stop offset="1" stop-color="#9C0E4E"/>
</linearGradient>
<linearGradient id="paint6_linear_1_515" x1="21.8751" y1="8.71099" x2="5.09267" y2="25.5512" gradientUnits="userSpaceOnUse">
<stop stop-color="#008DE0"/>
<stop offset="0.00657445" stop-color="#008DE0"/>
<stop offset="0.2601" stop-color="#00A7E0"/>
<stop offset="0.5122" stop-color="#00B8E0"/>
<stop offset="0.7604" stop-color="#00C4E0"/>
<stop offset="1" stop-color="#00C7E0"/>
</linearGradient>
<linearGradient id="paint7_linear_1_515" x1="24.9125" y1="22.2979" x2="2.15542" y2="45.1347" gradientUnits="userSpaceOnUse">
<stop stop-color="#E0333C"/>
<stop offset="1" stop-color="#AB0F56"/>
</linearGradient>
<linearGradient id="paint8_linear_1_515" x1="33.9506" y1="20.0002" x2="9.67026" y2="20.0002" gradientUnits="userSpaceOnUse">
<stop stop-color="#E0C500"/>
<stop offset="0.4087" stop-color="#E0A600"/>
<stop offset="0.7754" stop-color="#E09100"/>
<stop offset="1" stop-color="#E08900"/>
</linearGradient>
<linearGradient id="paint9_linear_1_515" x1="33.9508" y1="20.001" x2="9.67053" y2="20.001" gradientUnits="userSpaceOnUse">
<stop stop-color="#FFE840"/>
<stop offset="0.4087" stop-color="#FFCE40"/>
<stop offset="0.7754" stop-color="#FFBC40"/>
<stop offset="1" stop-color="#FFB540"/>
</linearGradient>
<linearGradient id="paint10_linear_1_515" x1="21.8751" y1="8.70754" x2="5.09266" y2="25.5477" gradientUnits="userSpaceOnUse">
<stop stop-color="#40B8FF"/>
<stop offset="0.00657445" stop-color="#40B9FF"/>
<stop offset="0.2601" stop-color="#40CEFF"/>
<stop offset="0.5122" stop-color="#40DDFF"/>
<stop offset="0.7604" stop-color="#40E7FF"/>
<stop offset="1" stop-color="#40EAFF"/>
</linearGradient>
<linearGradient id="paint11_linear_1_515" x1="7.32226" y1="0.175347" x2="17.4847" y2="10.3728" gradientUnits="userSpaceOnUse">
<stop stop-color="#65B895"/>
<stop offset="0.0685" stop-color="#62BD95"/>
<stop offset="0.4762" stop-color="#50DB97"/>
<stop offset="0.8009" stop-color="#44ED98"/>
<stop offset="1" stop-color="#40F498"/>
</linearGradient>
</defs>
</svg>
