<svg width="64" height="64" viewBox="0 0 64 64" fill="none" xmlns="http://www.w3.org/2000/svg">
<circle cx="32" cy="32" r="32" fill="#00A7FF" fill-opacity="0.08"/>
<path d="M22.13 30.4339C21.8624 30.4339 21.5963 30.3322 21.3928 30.1287C20.9858 29.7218 20.9858 29.0612 21.3928 28.6527L28.5992 21.4463C29.0062 21.0393 29.6667 21.0393 30.0753 21.4463C30.4822 21.8532 30.4822 22.5138 30.0753 22.9223L22.8688 30.1287C22.6638 30.3322 22.3977 30.4339 22.13 30.4339Z" fill="#00A7FF"/>
<path d="M30.7389 25.217C30.5355 25.217 30.3351 25.1372 30.1848 24.9885L26.5331 21.3367C26.3093 21.1129 26.242 20.7764 26.3641 20.4837C26.4846 20.191 26.771 20 27.0872 20H30.7389C31.171 20 31.5216 20.3506 31.5216 20.7826V24.4344C31.5216 24.7505 31.3306 25.0354 31.0379 25.1575C30.9424 25.1966 30.8391 25.217 30.7389 25.217Z" fill="#00A7FF"/>
<path d="M26.3054 34.8684V40.868H20.0444V34.8684C20.0444 34.1484 20.6283 33.5645 21.3483 33.5645H25C25.72 33.5645 26.3054 34.1484 26.3054 34.8684Z" fill="#1059D8"/>
<path d="M34.6532 30.6954V40.8695H28.3922V30.6954C28.3922 29.9754 28.976 29.3915 29.696 29.3915H33.3477C34.0693 29.39 34.6532 29.9754 34.6532 30.6954Z" fill="#1059D8"/>
<path d="M43.0009 26.5209V40.8696H36.7399V26.5209C36.7399 25.8009 37.3237 25.217 38.0437 25.217H41.697C42.417 25.217 43.0009 25.8009 43.0009 26.5209Z" fill="#1059D8"/>
<path d="M43.2614 44H19.7826C19.3506 44 19 43.6494 19 43.2174C19 42.7854 19.3506 42.4348 19.7826 42.4348H43.2614C43.6934 42.4348 44.044 42.7854 44.044 43.2174C44.044 43.6494 43.6934 44 43.2614 44Z" fill="#00A7FF"/>
</svg>
