<svg width="347" height="200" viewBox="0 0 347 200" fill="none" xmlns="http://www.w3.org/2000/svg">
<rect width="347" height="200" rx="4" fill="#81D8B7" fill-opacity="0.4"/>
<mask id="mask0_1_451" style="mask-type:alpha" maskUnits="userSpaceOnUse" x="0" y="0" width="347" height="200">
<rect width="347" height="200" rx="4" fill="#1059D8"/>
</mask>
<g mask="url(#mask0_1_451)">
<g opacity="0.2">
<path fill-rule="evenodd" clip-rule="evenodd" d="M404.819 40.0015C404.633 40.0004 404.447 39.9999 404.261 39.9999C349.234 39.9999 304.626 84.6082 304.626 139.635C304.626 194.521 349.006 239.042 403.838 239.27L403.838 40.0015L404.819 40.0015Z" fill="white"/>
<path d="M255.501 40.0009L303.567 135.289H207.436L255.501 40.0009Z" fill="white"/>
<ellipse cx="256.171" cy="189.181" rx="49.4831" ry="50.8205" fill="white"/>
</g>
</g>
<path d="M87.8473 101.231L82.8473 89.2313C82.5353 88.4833 81.8074 87.9993 80.9994 87.9993H70.9995C70.1915 87.9993 69.4635 88.4833 69.1515 89.2313L64.1516 101.231C63.8956 101.847 63.9636 102.551 64.3356 103.107C64.7076 103.667 65.3316 103.999 65.9996 103.999H85.9993C86.6673 103.999 87.2913 103.667 87.6633 103.107C88.0353 102.551 88.1033 101.847 87.8473 101.231Z" fill="#81D8B7" fill-opacity="0.6"/>
<path d="M103.847 101.231L98.8591 89.2313C98.5471 88.4873 97.8191 87.9993 97.0111 87.9993H86.9833C86.4033 87.9993 85.8713 88.2553 85.4993 88.6713L90.3032 100.207C90.8152 101.443 90.7392 102.811 90.1712 103.999H101.999C102.667 103.999 103.291 103.667 103.663 103.107C104.035 102.555 104.103 101.847 103.847 101.231Z" fill="#81D8B7"/>
<path d="M95.8471 82.5633L90.8472 70.5635C90.5352 69.8155 89.8072 69.3315 88.9992 69.3315H78.9994C78.1914 69.3315 77.4634 69.8155 77.1514 70.5635L72.1515 82.5633C71.8955 83.1793 71.9635 83.8833 72.3355 84.4393C72.7075 84.9953 73.3315 85.3313 73.9995 85.3313H93.9992C94.6672 85.3313 95.2912 84.9993 95.6631 84.4393C96.0351 83.8833 96.1031 83.1833 95.8471 82.5633Z" fill="#81D8B7"/>
<path d="M53.3117 51.9998H74.6874L79.2993 48.3079C80.8713 47.0559 81.4553 45.0199 80.7913 43.12C80.1313 41.228 78.4033 40 76.3994 40H51.5997C49.5958 40 47.8678 41.228 47.2038 43.124C46.5398 45.0199 47.1238 47.0559 48.6958 48.3079L53.3117 51.9998Z" fill="#81D8B7" fill-opacity="0.6"/>
<path d="M60.4597 99.6992L65.4596 87.6953C66.0076 86.3794 67.0076 85.3874 68.2116 84.7514C67.9116 83.5274 67.9596 82.2314 68.4596 81.0354L73.4595 69.0316C74.3955 66.7877 76.5675 65.3397 78.9994 65.3397H81.9994C80.0034 61.7837 77.6394 58.5438 75.0515 56.0078H52.9478C45.6639 63.1517 40 75.6915 40 85.9994C40 94.9592 44.7399 103.999 55.3318 103.999H60.3397C59.8517 102.615 59.8797 101.083 60.4597 99.6992Z" fill="#81D8B7"/>
<path d="M52 162.297C56.3594 162.297 59.75 160.109 61.5 156.047L58.375 154.766C57.125 157.844 55.0625 159.094 52 159.094C47 159.094 44.875 155.5 44.875 150.812C44.875 146.25 47.1094 142.797 52 142.797C55.0938 142.797 57.3906 144.016 58.3125 147.062L61.4688 145.812C59.7344 141.75 56.4062 139.594 52.0312 139.594C44.9375 139.594 41.5469 144.734 41.5469 150.953C41.5469 157.156 44.9688 162.297 52 162.297ZM70.7656 162.297C75.4688 162.297 78.625 158.594 78.625 154.156C78.625 149.734 75.4688 146.094 70.7656 146.094C66.0625 146.094 62.9219 149.734 62.9219 154.156C62.9219 158.609 66.0625 162.297 70.7656 162.297ZM70.7656 159.5C67.7188 159.5 66.2812 157.031 66.2812 154.156C66.2812 151.297 67.7188 148.891 70.7656 148.891C73.8125 148.891 75.2656 151.312 75.2656 154.156C75.2656 157.016 73.8125 159.5 70.7656 159.5ZM82.125 162H85.3594V153.203C85.3594 150.906 86.7188 149.109 88.9688 149.109C91.125 149.109 91.875 150.703 91.875 152.875V162H95.1094V153.203C95.1094 150.906 96.4688 149.109 98.6875 149.109C100.906 149.109 101.625 150.75 101.625 153.109V162H104.859V152.703C104.859 149.172 103.219 146.094 99.3281 146.094C97.2969 146.094 95.4219 146.969 94.2812 149.078C93.4375 146.891 91.5469 146.094 89.6094 146.094C87.8438 146.094 86.1875 146.766 85.2188 148.594V146.391H82.1094L82.125 162ZM109.344 162H112.578V153.203C112.578 150.906 113.938 149.109 116.188 149.109C118.344 149.109 119.094 150.703 119.094 152.875V162H122.328V153.203C122.328 150.906 123.688 149.109 125.906 149.109C128.125 149.109 128.844 150.75 128.844 153.109V162H132.078V152.703C132.078 149.172 130.438 146.094 126.547 146.094C124.516 146.094 122.641 146.969 121.5 149.078C120.656 146.891 118.766 146.094 116.828 146.094C115.062 146.094 113.406 146.766 112.438 148.594V146.391H109.328L109.344 162ZM142.953 162.297C147.656 162.297 150.812 158.594 150.812 154.156C150.812 149.734 147.656 146.094 142.953 146.094C138.25 146.094 135.109 149.734 135.109 154.156C135.109 158.609 138.25 162.297 142.953 162.297ZM142.953 159.5C139.906 159.5 138.469 157.031 138.469 154.156C138.469 151.297 139.906 148.891 142.953 148.891C146 148.891 147.453 151.312 147.453 154.156C147.453 157.016 146 159.5 142.953 159.5ZM159.828 162.297C161.828 162.297 163.688 161.406 164.75 159.641L164.875 162H167.891V139.922H164.609V148.578C163.562 146.922 161.688 146.094 159.781 146.094C155.5 146.094 153.016 149.828 153.016 154.188C153.016 158.578 155.5 162.297 159.828 162.297ZM160.609 159.359C157.766 159.359 156.297 157.094 156.297 154.188C156.297 151.312 157.766 149.031 160.609 149.031C163.438 149.031 164.875 151.281 164.875 154.188C164.875 157.125 163.438 159.359 160.609 159.359ZM172.75 143.328H176.125V139.922H172.75V143.328ZM172.828 162H176.047V146.391H172.828V162ZM186.203 162.297C187.25 162.297 188.281 162.062 188.828 161.859L188.812 158.938C188.328 159.156 187.531 159.438 186.766 159.438C185.547 159.438 184.766 158.844 184.766 157.109V149.109H188.828V146.391H184.766V139.984L181.594 142.297V146.391H178.984V149.109H181.547V157.656C181.547 160.547 183.25 162.297 186.203 162.297ZM192.5 143.328H195.875V139.922H192.5V143.328ZM192.578 162H195.797V146.391H192.578V162ZM207.062 162.297C209.641 162.297 211.609 161.422 213.328 159.547L211.109 157.594C209.906 158.891 208.641 159.359 207.078 159.359C204.391 159.359 203.047 157.734 202.766 155.203H213.75C213.812 154.984 213.875 154.344 213.875 153.75C213.875 150.391 212.156 146.094 206.797 146.094C201.766 146.094 199.359 150.078 199.359 154.266C199.359 158.547 201.906 162.297 207.062 162.297ZM202.766 152.859C203.094 150.516 204.328 148.812 206.766 148.812C208.922 148.812 210.281 150.109 210.594 151.875C210.672 152.188 210.703 152.516 210.688 152.859H202.766ZM222.125 162.297C225.109 162.297 228.031 160.703 228.031 157.25C228.031 151.438 219.703 153.203 219.703 150.344C219.703 149.375 220.641 148.656 222.141 148.656C223.906 148.656 224.922 149.688 225.531 150.797L228.031 149.438C226.875 147.344 224.859 146.094 222.25 146.094C219.25 146.094 216.609 147.641 216.609 150.766C216.609 156.312 224.859 154.25 224.859 157.406C224.859 158.5 223.922 159.594 221.969 159.594C219.781 159.594 218.703 158.156 218.234 156.859L215.641 158C216.422 160.391 218.906 162.297 222.125 162.297Z" fill="#202020"/>
</svg>
