<svg width="159" height="159" viewBox="0 0 159 159" fill="none" xmlns="http://www.w3.org/2000/svg">
<rect width="159" height="159" rx="4" fill="#81D8B7" fill-opacity="0.4"/>
<mask id="mask0_1_1376" style="mask-type:alpha" maskUnits="userSpaceOnUse" x="0" y="0" width="159" height="159">
<rect width="159" height="159" rx="4" fill="#1059D8"/>
</mask>
<g mask="url(#mask0_1_1376)">
<g opacity="0.2">
<path fill-rule="evenodd" clip-rule="evenodd" d="M194.953 72.0023C194.821 72.0014 194.688 72.001 194.556 72.001C161.54 72.001 134.775 98.7659 134.775 131.782C134.775 164.713 161.403 191.426 194.302 191.563L194.302 72.0023L194.953 72.0023Z" fill="white"/>
<path d="M105.301 72.001L134.14 129.174H76.4614L105.301 72.001Z" fill="white"/>
<ellipse cx="105.702" cy="161.509" rx="29.6898" ry="30.4922" fill="white"/>
</g>
</g>
<path d="M59.8862 69.9238L56.1362 60.9238C55.9022 60.3628 55.3562 59.9998 54.7502 59.9998H47.2502C46.6442 59.9998 46.0982 60.3628 45.8642 60.9238L42.1142 69.9238C41.9222 70.3858 41.9732 70.9138 42.2522 71.3308C42.5312 71.7508 42.9992 71.9998 43.5002 71.9998H58.5002C59.0012 71.9998 59.4692 71.7508 59.7482 71.3308C60.0272 70.9138 60.0782 70.3858 59.8862 69.9238Z" fill="#81D8B7" fill-opacity="0.6"/>
<path d="M71.8858 69.9238L68.1448 60.9238C67.9108 60.3658 67.3648 59.9998 66.7588 59.9998H59.2378C58.8028 59.9998 58.4038 60.1918 58.1248 60.5038L61.7278 69.1558C62.1118 70.0828 62.0548 71.1088 61.6288 71.9998H70.4998C71.0008 71.9998 71.4688 71.7508 71.7478 71.3308C72.0268 70.9168 72.0778 70.3858 71.8858 69.9238Z" fill="#81D8B7"/>
<path d="M65.8864 55.9234L62.1364 46.9234C61.9024 46.3624 61.3564 45.9994 60.7504 45.9994H53.2504C52.6444 45.9994 52.0984 46.3624 51.8644 46.9234L48.1144 55.9234C47.9224 56.3854 47.9734 56.9134 48.2524 57.3304C48.5314 57.7474 48.9994 57.9994 49.5004 57.9994H64.5004C65.0014 57.9994 65.4694 57.7504 65.7484 57.3304C66.0274 56.9134 66.0784 56.3884 65.8864 55.9234Z" fill="#81D8B7"/>
<path d="M33.9839 33H50.0159L53.4749 30.231C54.6539 29.292 55.0919 27.765 54.5939 26.34C54.0989 24.921 52.8029 24 51.2999 24H32.6999C31.1969 24 29.9009 24.921 29.4029 26.343C28.9049 27.765 29.3429 29.292 30.5219 30.231L33.9839 33Z" fill="#81D8B7" fill-opacity="0.6"/>
<path d="M39.345 68.775L43.095 59.772C43.506 58.785 44.256 58.041 45.159 57.564C44.934 56.646 44.97 55.674 45.345 54.777L49.095 45.774C49.797 44.091 51.426 43.005 53.25 43.005H55.5C54.003 40.338 52.23 37.908 50.289 36.006H33.711C28.248 41.364 24 50.769 24 58.5C24 65.22 27.555 72 35.499 72H39.255C38.889 70.962 38.91 69.813 39.345 68.775Z" fill="#81D8B7"/>
<path d="M31.5 108.186C34.2246 108.186 36.3438 106.818 37.4375 104.279L35.4844 103.479C34.7031 105.402 33.4141 106.184 31.5 106.184C28.375 106.184 27.0469 103.938 27.0469 101.008C27.0469 98.1562 28.4434 95.998 31.5 95.998C33.4336 95.998 34.8691 96.7598 35.4453 98.6641L37.418 97.8828C36.334 95.3438 34.2539 93.9961 31.5195 93.9961C27.0859 93.9961 24.9668 97.209 24.9668 101.096C24.9668 104.973 27.1055 108.186 31.5 108.186ZM43.2285 108.186C46.168 108.186 48.1406 105.871 48.1406 103.098C48.1406 100.334 46.168 98.0586 43.2285 98.0586C40.2891 98.0586 38.3262 100.334 38.3262 103.098C38.3262 105.881 40.2891 108.186 43.2285 108.186ZM43.2285 106.438C41.3242 106.438 40.4258 104.895 40.4258 103.098C40.4258 101.311 41.3242 99.8066 43.2285 99.8066C45.1328 99.8066 46.041 101.32 46.041 103.098C46.041 104.885 45.1328 106.438 43.2285 106.438ZM50.3281 108H52.3496V102.502C52.3496 101.066 53.1992 99.9434 54.6055 99.9434C55.9531 99.9434 56.4219 100.939 56.4219 102.297V108H58.4434V102.502C58.4434 101.066 59.293 99.9434 60.6797 99.9434C62.0664 99.9434 62.5156 100.969 62.5156 102.443V108H64.5371V102.189C64.5371 99.9824 63.5117 98.0586 61.0801 98.0586C59.8105 98.0586 58.6387 98.6055 57.9258 99.9238C57.3984 98.5566 56.2168 98.0586 55.0059 98.0586C53.9023 98.0586 52.8672 98.4785 52.2617 99.6211V98.2441H50.3184L50.3281 108ZM67.3398 108H69.3613V102.502C69.3613 101.066 70.2109 99.9434 71.6172 99.9434C72.9648 99.9434 73.4336 100.939 73.4336 102.297V108H75.4551V102.502C75.4551 101.066 76.3047 99.9434 77.6914 99.9434C79.0781 99.9434 79.5273 100.969 79.5273 102.443V108H81.5488V102.189C81.5488 99.9824 80.5234 98.0586 78.0918 98.0586C76.8223 98.0586 75.6504 98.6055 74.9375 99.9238C74.4102 98.5566 73.2285 98.0586 72.0176 98.0586C70.9141 98.0586 69.8789 98.4785 69.2734 99.6211V98.2441H67.3301L67.3398 108ZM88.3457 108.186C91.2852 108.186 93.2578 105.871 93.2578 103.098C93.2578 100.334 91.2852 98.0586 88.3457 98.0586C85.4062 98.0586 83.4434 100.334 83.4434 103.098C83.4434 105.881 85.4062 108.186 88.3457 108.186ZM88.3457 106.438C86.4414 106.438 85.543 104.895 85.543 103.098C85.543 101.311 86.4414 99.8066 88.3457 99.8066C90.25 99.8066 91.1582 101.32 91.1582 103.098C91.1582 104.885 90.25 106.438 88.3457 106.438ZM98.8926 108.186C100.143 108.186 101.305 107.629 101.969 106.525L102.047 108H103.932V94.2012H101.881V99.6113C101.227 98.5762 100.055 98.0586 98.8633 98.0586C96.1875 98.0586 94.6348 100.393 94.6348 103.117C94.6348 105.861 96.1875 108.186 98.8926 108.186ZM99.3809 106.35C97.6035 106.35 96.6855 104.934 96.6855 103.117C96.6855 101.32 97.6035 99.8945 99.3809 99.8945C101.148 99.8945 102.047 101.301 102.047 103.117C102.047 104.953 101.148 106.35 99.3809 106.35ZM106.969 96.3301H109.078V94.2012H106.969V96.3301ZM107.018 108H109.029V98.2441H107.018V108ZM115.377 108.186C116.031 108.186 116.676 108.039 117.018 107.912L117.008 106.086C116.705 106.223 116.207 106.398 115.729 106.398C114.967 106.398 114.479 106.027 114.479 104.943V99.9434H117.018V98.2441H114.479V94.2402L112.496 95.6855V98.2441H110.865V99.9434H112.467V105.285C112.467 107.092 113.531 108.186 115.377 108.186ZM119.312 96.3301H121.422V94.2012H119.312V96.3301ZM119.361 108H121.373V98.2441H119.361V108ZM128.414 108.186C130.025 108.186 131.256 107.639 132.33 106.467L130.943 105.246C130.191 106.057 129.4 106.35 128.424 106.35C126.744 106.35 125.904 105.334 125.729 103.752H132.594C132.633 103.615 132.672 103.215 132.672 102.844C132.672 100.744 131.598 98.0586 128.248 98.0586C125.104 98.0586 123.6 100.549 123.6 103.166C123.6 105.842 125.191 108.186 128.414 108.186ZM125.729 102.287C125.934 100.822 126.705 99.7578 128.229 99.7578C129.576 99.7578 130.426 100.568 130.621 101.672C130.67 101.867 130.689 102.072 130.68 102.287H125.729ZM137.828 108.186C139.693 108.186 141.52 107.189 141.52 105.031C141.52 101.398 136.314 102.502 136.314 100.715C136.314 100.109 136.9 99.6602 137.838 99.6602C138.941 99.6602 139.576 100.305 139.957 100.998L141.52 100.148C140.797 98.8398 139.537 98.0586 137.906 98.0586C136.031 98.0586 134.381 99.0254 134.381 100.979C134.381 104.445 139.537 103.156 139.537 105.129C139.537 105.812 138.951 106.496 137.73 106.496C136.363 106.496 135.689 105.598 135.396 104.787L133.775 105.5C134.264 106.994 135.816 108.186 137.828 108.186Z" fill="#202020"/>
</svg>
