<svg width="347" height="200" viewBox="0 0 347 200" fill="none" xmlns="http://www.w3.org/2000/svg">
<rect width="347" height="200" rx="4" fill="#FFC676" fill-opacity="0.3"/>
<mask id="mask0_1_488" style="mask-type:alpha" maskUnits="userSpaceOnUse" x="0" y="0" width="347" height="200">
<rect width="347" height="200" rx="4" fill="#FFC676"/>
</mask>
<g mask="url(#mask0_1_488)">
<g opacity="0.3">
<circle cx="324" cy="148" r="100" fill="white"/>
</g>
<circle opacity="0.3" cx="323.814" cy="147.814" r="74.5902" fill="white"/>
</g>
<path d="M109.591 40H59.9956C56.0262 40 52.7959 43.2302 52.7959 47.1996V75.9982C52.7959 79.9676 56.0262 83.1978 59.9956 83.1978H109.591C113.561 83.1978 116.791 79.9676 116.791 75.9982V47.1996C116.791 43.2302 113.561 40 109.591 40ZM69.5951 54.3993H64.7953C63.4706 54.3993 62.3954 53.3241 62.3954 51.9994C62.3954 50.6747 63.4706 49.5995 64.7953 49.5995H69.5951C70.9198 49.5995 71.995 50.6747 71.995 51.9994C71.995 53.3241 70.9198 54.3993 69.5951 54.3993ZM84.7911 71.1984C79.497 71.1984 75.1916 66.8931 75.1916 61.5989C75.1916 56.3048 79.497 51.9994 84.7911 51.9994C90.0853 51.9994 94.3906 56.3048 94.3906 61.5989C94.3906 66.8931 90.0853 71.1984 84.7911 71.1984ZM104.792 73.5983H99.992C98.6672 73.5983 97.5921 72.5232 97.5921 71.1984C97.5921 69.8737 98.6672 68.7986 99.992 68.7986H104.792C106.116 68.7986 107.192 69.8737 107.192 71.1984C107.192 72.5232 106.116 73.5983 104.792 73.5983Z" fill="#FFC676"/>
<path d="M104.792 87.9976H55.1958C51.2264 87.9976 47.9961 84.7673 47.9961 80.7979V52.7529L40.2349 81.6955C39.2366 85.5065 41.5116 89.4615 45.3275 90.5126L94.8082 103.765C95.4226 103.928 96.0369 104 96.6417 104C99.8287 104 102.747 101.874 103.587 98.6722L106.534 87.7624C105.972 87.9016 105.396 87.9976 104.792 87.9976Z" fill="#FFC676" fill-opacity="0.6"/>
<path d="M52 162.297C56.3594 162.297 59.75 160.109 61.5 156.047L58.375 154.766C57.125 157.844 55.0625 159.094 52 159.094C47 159.094 44.875 155.5 44.875 150.812C44.875 146.25 47.1094 142.797 52 142.797C55.0938 142.797 57.3906 144.016 58.3125 147.062L61.4688 145.812C59.7344 141.75 56.4062 139.594 52.0312 139.594C44.9375 139.594 41.5469 144.734 41.5469 150.953C41.5469 157.156 44.9688 162.297 52 162.297ZM69.4375 162.297C71.1562 162.297 72.9844 161.562 74.1406 159.906V162H77.3438V146.391H74.1406V155.156C74.1406 157.984 72.6562 159.312 70.3438 159.312C68.1875 159.312 67.0625 157.766 67.0625 155.453V146.391H63.8594V155.938C63.875 159.234 65.4844 162.297 69.4375 162.297ZM82.2656 162H85.375V154.953C85.375 150.891 87.4375 149.234 89.3281 149.234C89.9375 149.234 90.5312 149.422 91.0469 149.75L92.5156 147.094C91.7969 146.406 90.7812 146.094 89.8125 146.094C88.0156 146.094 86.1094 147.156 85.4062 149.234V146.391H82.2656V162ZM94.9844 162H98.0938V154.953C98.0938 150.891 100.156 149.234 102.047 149.234C102.656 149.234 103.25 149.422 103.766 149.75L105.234 147.094C104.516 146.406 103.5 146.094 102.531 146.094C100.734 146.094 98.8281 147.156 98.125 149.234V146.391H94.9844V162ZM113.125 162.297C115.703 162.297 117.672 161.422 119.391 159.547L117.172 157.594C115.969 158.891 114.703 159.359 113.141 159.359C110.453 159.359 109.109 157.734 108.828 155.203H119.812C119.875 154.984 119.938 154.344 119.938 153.75C119.938 150.391 118.219 146.094 112.859 146.094C107.828 146.094 105.422 150.078 105.422 154.266C105.422 158.547 107.969 162.297 113.125 162.297ZM108.828 152.859C109.156 150.516 110.391 148.812 112.828 148.812C114.984 148.812 116.344 150.109 116.656 151.875C116.734 152.188 116.766 152.516 116.75 152.859H108.828ZM123.516 162H126.734V153.234C126.734 150.406 128.203 149.078 130.516 149.078C132.656 149.078 133.797 150.625 133.797 152.938V162H137.016V152.453C137 149.156 135.359 146.094 131.422 146.094C129.703 146.094 127.891 146.828 126.734 148.484V146.391H123.516V162ZM147.516 162.297C150.547 162.297 152.906 160.609 153.922 157.766L150.984 156.656C150.5 158.281 149.188 159.359 147.484 159.359C144.594 159.359 143.422 156.875 143.422 154.219C143.422 151.609 144.609 149.031 147.484 149.031C149.188 149.031 150.484 150.141 151.016 151.781L154.078 150.594C152.906 147.594 150.5 146.094 147.484 146.094C142.531 146.094 140.141 150.125 140.141 154.219C140.141 158.453 142.625 162.297 147.516 162.297ZM157.156 143.328H160.531V139.922H157.156V143.328ZM157.234 162H160.453V146.391H157.234V162ZM171.719 162.297C174.297 162.297 176.266 161.422 177.984 159.547L175.766 157.594C174.562 158.891 173.297 159.359 171.734 159.359C169.047 159.359 167.703 157.734 167.422 155.203H178.406C178.469 154.984 178.531 154.344 178.531 153.75C178.531 150.391 176.812 146.094 171.453 146.094C166.422 146.094 164.016 150.078 164.016 154.266C164.016 158.547 166.562 162.297 171.719 162.297ZM167.422 152.859C167.75 150.516 168.984 148.812 171.422 148.812C173.578 148.812 174.938 150.109 175.25 151.875C175.328 152.188 175.359 152.516 175.344 152.859H167.422ZM186.781 162.297C189.766 162.297 192.688 160.703 192.688 157.25C192.688 151.438 184.359 153.203 184.359 150.344C184.359 149.375 185.297 148.656 186.797 148.656C188.562 148.656 189.578 149.688 190.188 150.797L192.688 149.438C191.531 147.344 189.516 146.094 186.906 146.094C183.906 146.094 181.266 147.641 181.266 150.766C181.266 156.312 189.516 154.25 189.516 157.406C189.516 158.5 188.578 159.594 186.625 159.594C184.438 159.594 183.359 158.156 182.891 156.859L180.297 158C181.078 160.391 183.562 162.297 186.781 162.297Z" fill="#202020"/>
</svg>
