<svg width="159" height="160" viewBox="0 0 159 160" fill="none" xmlns="http://www.w3.org/2000/svg">
<rect width="159" height="159" rx="4" fill="#FFC676" fill-opacity="0.3"/>
<mask id="mask0_1_1335" style="mask-type:alpha" maskUnits="userSpaceOnUse" x="0" y="0" width="159" height="160">
<rect y="0.5" width="159" height="159" rx="4" fill="#FFC676"/>
</mask>
<g mask="url(#mask0_1_1335)">
<g opacity="0.3">
<circle cx="140" cy="132.5" r="60" fill="white"/>
</g>
<circle opacity="0.3" cx="139.888" cy="132.388" r="44.7541" fill="white"/>
</g>
<path d="M76.1936 24H38.9967C36.0196 24 33.5969 26.4227 33.5969 29.3997V50.9987C33.5969 53.9757 36.0196 56.3984 38.9967 56.3984H76.1936C79.1706 56.3984 81.5933 53.9757 81.5933 50.9987V29.3997C81.5933 26.4227 79.1706 24 76.1936 24ZM46.1963 34.7995H42.5965C41.6029 34.7995 40.7966 33.9931 40.7966 32.9995C40.7966 32.006 41.6029 31.1996 42.5965 31.1996H46.1963C47.1898 31.1996 47.9962 32.006 47.9962 32.9995C47.9962 33.9931 47.1898 34.7995 46.1963 34.7995ZM57.5933 47.3988C53.6227 47.3988 50.3937 44.1698 50.3937 40.1992C50.3937 36.2286 53.6227 32.9995 57.5933 32.9995C61.5639 32.9995 64.793 36.2286 64.793 40.1992C64.793 44.1698 61.5639 47.3988 57.5933 47.3988ZM72.5938 49.1987H68.994C68.0004 49.1987 67.194 48.3924 67.194 47.3988C67.194 46.4053 68.0004 45.5989 68.994 45.5989H72.5938C73.5873 45.5989 74.3937 46.4053 74.3937 47.3988C74.3937 48.3924 73.5873 49.1987 72.5938 49.1987Z" fill="#FFC676"/>
<path d="M72.5938 59.9982H35.3968C32.4198 59.9982 29.9971 57.5755 29.9971 54.5984V33.5647L24.1762 55.2716C23.4274 58.1299 25.1337 61.0961 27.9956 61.8845L65.1061 71.8236C65.5669 71.946 66.0277 72 66.4813 72C68.8716 72 71.0602 70.4053 71.6902 68.0042L73.9005 59.8218C73.4793 59.9262 73.0473 59.9982 72.5938 59.9982Z" fill="#FFC676" fill-opacity="0.6"/>
<path d="M31.5 108.186C34.2246 108.186 36.3438 106.818 37.4375 104.279L35.4844 103.479C34.7031 105.402 33.4141 106.184 31.5 106.184C28.375 106.184 27.0469 103.938 27.0469 101.008C27.0469 98.1562 28.4434 95.998 31.5 95.998C33.4336 95.998 34.8691 96.7598 35.4453 98.6641L37.418 97.8828C36.334 95.3438 34.2539 93.9961 31.5195 93.9961C27.0859 93.9961 24.9668 97.209 24.9668 101.096C24.9668 104.973 27.1055 108.186 31.5 108.186ZM42.3984 108.186C43.4727 108.186 44.6152 107.727 45.3379 106.691V108H47.3398V98.2441H45.3379V103.723C45.3379 105.49 44.4102 106.32 42.9648 106.32C41.6172 106.32 40.9141 105.354 40.9141 103.908V98.2441H38.9121V104.211C38.9219 106.271 39.9277 108.186 42.3984 108.186ZM50.416 108H52.3594V103.596C52.3594 101.057 53.6484 100.021 54.8301 100.021C55.2109 100.021 55.582 100.139 55.9043 100.344L56.8223 98.6836C56.373 98.2539 55.7383 98.0586 55.1328 98.0586C54.0098 98.0586 52.8184 98.7227 52.3789 100.021V98.2441H50.416V108ZM58.3652 108H60.3086V103.596C60.3086 101.057 61.5977 100.021 62.7793 100.021C63.1602 100.021 63.5312 100.139 63.8535 100.344L64.7715 98.6836C64.3223 98.2539 63.6875 98.0586 63.082 98.0586C61.959 98.0586 60.7676 98.7227 60.3281 100.021V98.2441H58.3652V108ZM69.7031 108.186C71.3145 108.186 72.5449 107.639 73.6191 106.467L72.2324 105.246C71.4805 106.057 70.6895 106.35 69.7129 106.35C68.0332 106.35 67.1934 105.334 67.0176 103.752H73.8828C73.9219 103.615 73.9609 103.215 73.9609 102.844C73.9609 100.744 72.8867 98.0586 69.5371 98.0586C66.3926 98.0586 64.8887 100.549 64.8887 103.166C64.8887 105.842 66.4805 108.186 69.7031 108.186ZM67.0176 102.287C67.2227 100.822 67.9941 99.7578 69.5176 99.7578C70.8652 99.7578 71.7148 100.568 71.9102 101.672C71.959 101.867 71.9785 102.072 71.9688 102.287H67.0176ZM76.1973 108H78.209V102.521C78.209 100.754 79.127 99.9238 80.5723 99.9238C81.9102 99.9238 82.623 100.891 82.623 102.336V108H84.6348V102.033C84.625 99.9727 83.5996 98.0586 81.1387 98.0586C80.0645 98.0586 78.9316 98.5176 78.209 99.5527V98.2441H76.1973V108ZM91.1973 108.186C93.0918 108.186 94.5664 107.131 95.2012 105.354L93.3652 104.66C93.0625 105.676 92.2422 106.35 91.1777 106.35C89.3711 106.35 88.6387 104.797 88.6387 103.137C88.6387 101.506 89.3809 99.8945 91.1777 99.8945C92.2422 99.8945 93.0527 100.588 93.3848 101.613L95.2988 100.871C94.5664 98.9961 93.0625 98.0586 91.1777 98.0586C88.082 98.0586 86.5879 100.578 86.5879 103.137C86.5879 105.783 88.1406 108.186 91.1973 108.186ZM97.2227 96.3301H99.332V94.2012H97.2227V96.3301ZM97.2715 108H99.2832V98.2441H97.2715V108ZM106.324 108.186C107.936 108.186 109.166 107.639 110.24 106.467L108.854 105.246C108.102 106.057 107.311 106.35 106.334 106.35C104.654 106.35 103.814 105.334 103.639 103.752H110.504C110.543 103.615 110.582 103.215 110.582 102.844C110.582 100.744 109.508 98.0586 106.158 98.0586C103.014 98.0586 101.51 100.549 101.51 103.166C101.51 105.842 103.102 108.186 106.324 108.186ZM103.639 102.287C103.844 100.822 104.615 99.7578 106.139 99.7578C107.486 99.7578 108.336 100.568 108.531 101.672C108.58 101.867 108.6 102.072 108.59 102.287H103.639ZM115.738 108.186C117.604 108.186 119.43 107.189 119.43 105.031C119.43 101.398 114.225 102.502 114.225 100.715C114.225 100.109 114.811 99.6602 115.748 99.6602C116.852 99.6602 117.486 100.305 117.867 100.998L119.43 100.148C118.707 98.8398 117.447 98.0586 115.816 98.0586C113.941 98.0586 112.291 99.0254 112.291 100.979C112.291 104.445 117.447 103.156 117.447 105.129C117.447 105.812 116.861 106.496 115.641 106.496C114.273 106.496 113.6 105.598 113.307 104.787L111.686 105.5C112.174 106.994 113.727 108.186 115.738 108.186Z" fill="#202020"/>
</svg>
