<svg width="347" height="200" viewBox="0 0 347 200" fill="none" xmlns="http://www.w3.org/2000/svg">
<rect width="347" height="200" rx="4" fill="#214CB4" fill-opacity="0.2"/>
<mask id="mask0_1_473" style="mask-type:alpha" maskUnits="userSpaceOnUse" x="0" y="0" width="347" height="200">
<rect width="347" height="200" rx="4" fill="#214CB4"/>
</mask>
<g mask="url(#mask0_1_473)">
<g opacity="0.2">
<path fill-rule="evenodd" clip-rule="evenodd" d="M291.256 247.989L288.682 49.2832L287.65 49.2966C287.853 49.2927 288.057 49.2895 288.26 49.2868C343.132 48.5761 388.191 92.4823 388.901 147.354C389.61 202.085 345.931 247.053 291.256 247.989Z" fill="white"/>
<path d="M289.253 147.99L192.313 203.958L192.313 92.0217L289.253 147.99Z" fill="white"/>
</g>
</g>
<path d="M71.997 56.0085C63.1738 56.0085 55.9985 63.1839 55.9985 72.007C55.9985 80.8302 63.1738 88.0055 71.997 88.0055C80.8201 88.0055 87.9954 80.8302 87.9954 72.007C87.9954 63.1839 80.8201 56.0085 71.997 56.0085ZM79.4643 78.9384C78.5803 80.1183 76.9085 80.3542 75.7326 79.4703L70.3971 74.8028C69.7252 74.2988 69.3292 73.5109 69.3292 72.671V64.0038C69.3292 62.5319 70.5211 61.336 71.997 61.336C73.4688 61.336 74.6647 62.5279 74.6647 64.0038V71.3351L78.9283 75.2027C80.1082 76.0866 80.3482 77.7585 79.4643 78.9384Z" fill="#214CB4" fill-opacity="0.6"/>
<path d="M43.9996 72.003C43.9996 56.5685 56.5584 44.0057 71.997 44.0057C77.5404 44.0057 82.8119 45.6255 87.2795 48.5573L83.2479 52.5889C81.992 53.8408 82.8799 56.0005 84.6638 56.0005H96.6626C97.7665 56.0005 98.6624 55.1046 98.6624 54.0007V42.0019C98.6624 40.23 96.5106 39.3261 95.2468 40.59L90.1432 45.6935C84.8877 42.0459 78.6203 40.0101 71.997 40.0101C54.3546 40.0101 40 54.3647 40 72.007C40 75.1347 40.46 78.2424 41.3679 81.2502C41.6838 82.3021 42.7917 82.906 43.8596 82.59C44.9155 82.2701 45.5155 81.1542 45.1955 80.0983C44.4036 77.4625 43.9996 74.7388 43.9996 72.003Z" fill="#214CB4"/>
<path d="M102.626 62.7639C102.306 61.704 101.198 61.1041 100.134 61.4241C99.0785 61.744 98.4785 62.8599 98.7985 63.9158C99.5904 66.5476 99.9944 69.2713 99.9944 72.0031C99.9944 87.4376 87.4356 100 71.9971 100C66.4616 100 61.2061 98.3886 56.7385 95.4648L60.7541 91.4052C62.002 90.1454 61.1061 88.0016 59.3303 88.0016H47.3314C46.7994 88.0016 46.2835 88.2135 45.9115 88.5935C45.5356 88.9735 45.3276 89.4894 45.3316 90.0214L45.4636 102.02C45.4796 103.796 47.6474 104.66 48.8832 103.404L53.8908 98.3406C59.1383 101.972 65.3937 104 71.9971 104C89.6394 104 103.994 89.6454 103.994 72.0031C103.994 68.8794 103.534 65.7677 102.626 62.7639Z" fill="#214CB4"/>
<path d="M43.0625 162H46.4219V152.484H57.0312V149.391H46.4219V143.016H58.4688V139.922H43.0625V162ZM65.75 162.297C67.4688 162.297 69.2969 161.562 70.4531 159.906V162H73.6562V146.391H70.4531V155.156C70.4531 157.984 68.9688 159.312 66.6562 159.312C64.5 159.312 63.375 157.766 63.375 155.453V146.391H60.1719V155.938C60.1875 159.234 61.7969 162.297 65.75 162.297ZM83.8281 162.297C84.875 162.297 85.9062 162.062 86.4531 161.859L86.4375 158.938C85.9531 159.156 85.1562 159.438 84.3906 159.438C83.1719 159.438 82.3906 158.844 82.3906 157.109V149.109H86.4531V146.391H82.3906V139.984L79.2188 142.297V146.391H76.6094V149.109H79.1719V157.656C79.1719 160.547 80.875 162.297 83.8281 162.297ZM95.4062 162.297C97.125 162.297 98.9531 161.562 100.109 159.906V162H103.312V146.391H100.109V155.156C100.109 157.984 98.625 159.312 96.3125 159.312C94.1562 159.312 93.0312 157.766 93.0312 155.453V146.391H89.8281V155.938C89.8438 159.234 91.4531 162.297 95.4062 162.297ZM108.234 162H111.344V154.953C111.344 150.891 113.406 149.234 115.297 149.234C115.906 149.234 116.5 149.422 117.016 149.75L118.484 147.094C117.766 146.406 116.75 146.094 115.781 146.094C113.984 146.094 112.078 147.156 111.375 149.234V146.391H108.234V162ZM126.375 162.297C128.953 162.297 130.922 161.422 132.641 159.547L130.422 157.594C129.219 158.891 127.953 159.359 126.391 159.359C123.703 159.359 122.359 157.734 122.078 155.203H133.062C133.125 154.984 133.188 154.344 133.188 153.75C133.188 150.391 131.469 146.094 126.109 146.094C121.078 146.094 118.672 150.078 118.672 154.266C118.672 158.547 121.219 162.297 126.375 162.297ZM122.078 152.859C122.406 150.516 123.641 148.812 126.078 148.812C128.234 148.812 129.594 150.109 129.906 151.875C129.984 152.188 130.016 152.516 130 152.859H122.078ZM161.438 161.094L158.188 157.406C159.25 155.719 159.891 153.688 160.016 151.484L156.875 151.172C156.844 152.516 156.562 153.828 156.062 154.984L152.297 150.719C154.609 149.281 156.625 147.562 156.625 144.781C156.625 141.906 154.062 139.688 150.922 139.688C147.906 139.688 144.953 141.641 144.953 144.812C144.953 147.188 146.75 149.141 147.688 150.125C145.016 151.641 142.453 153.5 142.453 156.891C142.453 160.375 145.516 162.312 149.516 162.312C152.141 162.312 154.453 161.359 156.234 159.75L159.156 163.125L161.438 161.094ZM148.062 144.859C148.062 143.188 149.375 142.219 150.953 142.219C152.641 142.219 153.641 143.422 153.641 144.844C153.641 146.531 152.125 147.641 150.203 148.734C149.484 147.891 148.062 146.219 148.062 144.859ZM149.438 159.578C147.125 159.578 145.578 158.656 145.578 156.938C145.578 154.875 147.484 153.547 149.703 152.234L154.328 157.562C153.094 158.812 151.422 159.578 149.438 159.578ZM181.297 162.297C188.453 162.297 191.781 156.969 191.781 150.953C191.781 144.938 188.453 139.625 181.297 139.625C174.141 139.625 170.812 144.938 170.812 150.953C170.812 156.969 174.141 162.297 181.297 162.297ZM181.297 159.312C176.297 159.312 174.359 155.422 174.359 150.953C174.359 146.5 176.297 142.609 181.297 142.609C186.297 142.609 188.234 146.5 188.234 150.953C188.234 155.422 186.297 159.312 181.297 159.312ZM195.797 168.469H199.125V159.812C200.172 161.469 201.969 162.297 203.906 162.297C208.234 162.297 210.625 158.578 210.625 154.203C210.625 149.844 208.234 146.094 203.953 146.094C202.047 146.094 200.172 146.922 199.125 148.578V146.391H195.797V168.469ZM203.156 159.359C200.328 159.359 198.828 157.109 198.828 154.203C198.828 151.281 200.328 149.078 203.156 149.078C206 149.078 207.359 151.312 207.359 154.203C207.359 157.078 206 159.359 203.156 159.359ZM219.422 162.297C220.469 162.297 221.5 162.062 222.047 161.859L222.031 158.938C221.547 159.156 220.75 159.438 219.984 159.438C218.766 159.438 217.984 158.844 217.984 157.109V149.109H222.047V146.391H217.984V139.984L214.812 142.297V146.391H212.203V149.109H214.766V157.656C214.766 160.547 216.469 162.297 219.422 162.297ZM225.719 143.328H229.094V139.922H225.719V143.328ZM225.797 162H229.016V146.391H225.797V162ZM240.328 162.297C245.031 162.297 248.188 158.594 248.188 154.156C248.188 149.734 245.031 146.094 240.328 146.094C235.625 146.094 232.484 149.734 232.484 154.156C232.484 158.609 235.625 162.297 240.328 162.297ZM240.328 159.5C237.281 159.5 235.844 157.031 235.844 154.156C235.844 151.297 237.281 148.891 240.328 148.891C243.375 148.891 244.828 151.312 244.828 154.156C244.828 157.016 243.375 159.5 240.328 159.5ZM251.672 162H254.891V153.234C254.891 150.406 256.359 149.078 258.672 149.078C260.812 149.078 261.953 150.625 261.953 152.938V162H265.172V152.453C265.156 149.156 263.516 146.094 259.578 146.094C257.859 146.094 256.047 146.828 254.891 148.484V146.391H251.672V162ZM274.312 162.297C277.297 162.297 280.219 160.703 280.219 157.25C280.219 151.438 271.891 153.203 271.891 150.344C271.891 149.375 272.828 148.656 274.328 148.656C276.094 148.656 277.109 149.688 277.719 150.797L280.219 149.438C279.062 147.344 277.047 146.094 274.438 146.094C271.438 146.094 268.797 147.641 268.797 150.766C268.797 156.312 277.047 154.25 277.047 157.406C277.047 158.5 276.109 159.594 274.156 159.594C271.969 159.594 270.891 158.156 270.422 156.859L267.828 158C268.609 160.391 271.094 162.297 274.312 162.297Z" fill="#202020"/>
</svg>
