<svg width="159" height="159" viewBox="0 0 159 159" fill="none" xmlns="http://www.w3.org/2000/svg">
<rect width="159" height="159" rx="4" fill="#214CB4" fill-opacity="0.2"/>
<mask id="mask0_1_1349" style="mask-type:alpha" maskUnits="userSpaceOnUse" x="0" y="0" width="159" height="159">
<rect width="159" height="159" rx="4" fill="#214CB4"/>
</mask>
<g mask="url(#mask0_1_1349)">
<g opacity="0.2">
<path fill-rule="evenodd" clip-rule="evenodd" d="M142.753 191.992L141.209 72.7699L140.589 72.7779C140.711 72.7756 140.833 72.7737 140.955 72.7721C173.878 72.3457 200.913 98.6891 201.339 131.612C201.765 164.45 175.557 191.431 142.753 191.992Z" fill="white"/>
<path d="M141.551 131.993L83.3878 165.574L83.3878 98.4127L141.551 131.993Z" fill="white"/>
</g>
</g>
<path d="M47.9974 36.0066C41.38 36.0066 35.9985 41.3881 35.9985 48.0054C35.9985 54.6228 41.38 60.0043 47.9974 60.0043C54.6148 60.0043 59.9963 54.6228 59.9963 48.0054C59.9963 41.3881 54.6148 36.0066 47.9974 36.0066ZM53.5979 53.204C52.9349 54.0889 51.681 54.2659 50.7991 53.6029L46.7975 50.1023C46.2936 49.7243 45.9966 49.1333 45.9966 48.5034V42.003C45.9966 40.8991 46.8905 40.0022 47.9974 40.0022C49.1013 40.0022 49.9982 40.8961 49.9982 42.003V47.5015L53.1959 50.4022C54.0808 51.0652 54.2608 52.319 53.5979 53.204Z" fill="#214CB4" fill-opacity="0.6"/>
<path d="M26.9997 48.0023C26.9997 36.4264 36.4188 27.0043 47.9977 27.0043C52.1553 27.0043 56.109 28.2192 59.4596 30.4179L56.4359 33.4417C55.494 34.3806 56.16 36.0004 57.4978 36.0004H66.497C67.3249 36.0004 67.9968 35.3285 67.9968 34.5006V25.5014C67.9968 24.1725 66.383 23.4946 65.4351 24.4425L61.6074 28.2701C57.6658 25.5344 52.9653 24.0076 47.9977 24.0076C34.766 24.0076 24 34.7735 24 48.0053C24 50.351 24.345 52.6818 25.0259 54.9376C25.2629 55.7265 26.0938 56.1795 26.8947 55.9425C27.6867 55.7025 28.1366 54.8656 27.8966 54.0737C27.3027 52.0969 26.9997 50.0541 26.9997 48.0023Z" fill="#214CB4"/>
<path d="M70.9693 41.0729C70.7293 40.2779 69.8984 39.828 69.1004 40.068C68.3085 40.3079 67.8586 41.1449 68.0985 41.9368C68.6925 43.9106 68.9954 45.9534 68.9954 48.0022C68.9954 59.5781 59.5763 69.0002 47.9974 69.0002C43.8458 69.0002 39.9042 67.7913 36.5535 65.5985L39.5652 62.5538C40.5011 61.6089 39.8292 60.0011 38.4973 60.0011H29.4982C29.0992 60.0011 28.7123 60.1601 28.4333 60.445C28.1513 60.73 27.9953 61.117 27.9983 61.5159L28.0973 70.5151C28.1093 71.8469 29.7352 72.4949 30.6621 71.553L34.4177 67.7553C38.3533 70.4791 43.0449 71.9999 47.9974 71.9999C61.2292 71.9999 71.9952 61.234 71.9952 48.0022C71.9952 45.6594 71.6502 43.3257 70.9693 41.0729Z" fill="#214CB4"/>
<path d="M25.9141 108H28.0137V102.053H34.6445V100.119H28.0137V96.1348H35.543V94.2012H25.9141V108ZM40.0938 108.186C41.168 108.186 42.3105 107.727 43.0332 106.691V108H45.0352V98.2441H43.0332V103.723C43.0332 105.49 42.1055 106.32 40.6602 106.32C39.3125 106.32 38.6094 105.354 38.6094 103.908V98.2441H36.6074V104.211C36.6172 106.271 37.623 108.186 40.0938 108.186ZM51.3926 108.186C52.0469 108.186 52.6914 108.039 53.0332 107.912L53.0234 106.086C52.7207 106.223 52.2227 106.398 51.7441 106.398C50.9824 106.398 50.4941 106.027 50.4941 104.943V99.9434H53.0332V98.2441H50.4941V94.2402L48.5117 95.6855V98.2441H46.8809V99.9434H48.4824V105.285C48.4824 107.092 49.5469 108.186 51.3926 108.186ZM58.6289 108.186C59.7031 108.186 60.8457 107.727 61.5684 106.691V108H63.5703V98.2441H61.5684V103.723C61.5684 105.49 60.6406 106.32 59.1953 106.32C57.8477 106.32 57.1445 105.354 57.1445 103.908V98.2441H55.1426V104.211C55.1523 106.271 56.1582 108.186 58.6289 108.186ZM66.6465 108H68.5898V103.596C68.5898 101.057 69.8789 100.021 71.0605 100.021C71.4414 100.021 71.8125 100.139 72.1348 100.344L73.0527 98.6836C72.6035 98.2539 71.9688 98.0586 71.3633 98.0586C70.2402 98.0586 69.0488 98.7227 68.6094 100.021V98.2441H66.6465V108ZM77.9844 108.186C79.5957 108.186 80.8262 107.639 81.9004 106.467L80.5137 105.246C79.7617 106.057 78.9707 106.35 77.9941 106.35C76.3145 106.35 75.4746 105.334 75.2988 103.752H82.1641C82.2031 103.615 82.2422 103.215 82.2422 102.844C82.2422 100.744 81.168 98.0586 77.8184 98.0586C74.6738 98.0586 73.1699 100.549 73.1699 103.166C73.1699 105.842 74.7617 108.186 77.9844 108.186ZM75.2988 102.287C75.5039 100.822 76.2754 99.7578 77.7988 99.7578C79.1465 99.7578 79.9961 100.568 80.1914 101.672C80.2402 101.867 80.2598 102.072 80.25 102.287H75.2988ZM99.8984 107.434L97.8672 105.129C98.5312 104.074 98.9316 102.805 99.0098 101.428L97.0469 101.232C97.0273 102.072 96.8516 102.893 96.5391 103.615L94.1855 100.949C95.6309 100.051 96.8906 98.9766 96.8906 97.2383C96.8906 95.4414 95.2891 94.0547 93.3262 94.0547C91.4414 94.0547 89.5957 95.2754 89.5957 97.2578C89.5957 98.7422 90.7188 99.9629 91.3047 100.578C89.6348 101.525 88.0332 102.688 88.0332 104.807C88.0332 106.984 89.9473 108.195 92.4473 108.195C94.0879 108.195 95.5332 107.6 96.6465 106.594L98.4727 108.703L99.8984 107.434ZM91.5391 97.2871C91.5391 96.2422 92.3594 95.6367 93.3457 95.6367C94.4004 95.6367 95.0254 96.3887 95.0254 97.2773C95.0254 98.332 94.0781 99.0254 92.877 99.709C92.4277 99.1816 91.5391 98.1367 91.5391 97.2871ZM92.3984 106.486C90.9531 106.486 89.9863 105.91 89.9863 104.836C89.9863 103.547 91.1777 102.717 92.5645 101.896L95.4551 105.227C94.6836 106.008 93.6387 106.486 92.3984 106.486ZM31.5098 136.186C35.9824 136.186 38.0625 132.855 38.0625 129.096C38.0625 125.336 35.9824 122.016 31.5098 122.016C27.0371 122.016 24.957 125.336 24.957 129.096C24.957 132.855 27.0371 136.186 31.5098 136.186ZM31.5098 134.32C28.3848 134.32 27.1738 131.889 27.1738 129.096C27.1738 126.312 28.3848 123.881 31.5098 123.881C34.6348 123.881 35.8457 126.312 35.8457 129.096C35.8457 131.889 34.6348 134.32 31.5098 134.32ZM40.5723 140.043H42.6523V134.633C43.3066 135.668 44.4297 136.186 45.6406 136.186C48.3457 136.186 49.8398 133.861 49.8398 131.127C49.8398 128.402 48.3457 126.059 45.6699 126.059C44.4785 126.059 43.3066 126.576 42.6523 127.611V126.244H40.5723V140.043ZM45.1719 134.35C43.4043 134.35 42.4668 132.943 42.4668 131.127C42.4668 129.301 43.4043 127.924 45.1719 127.924C46.9492 127.924 47.7988 129.32 47.7988 131.127C47.7988 132.924 46.9492 134.35 45.1719 134.35ZM55.3379 136.186C55.9922 136.186 56.6367 136.039 56.9785 135.912L56.9688 134.086C56.666 134.223 56.168 134.398 55.6895 134.398C54.9277 134.398 54.4395 134.027 54.4395 132.943V127.943H56.9785V126.244H54.4395V122.24L52.457 123.686V126.244H50.8262V127.943H52.4277V133.285C52.4277 135.092 53.4922 136.186 55.3379 136.186ZM59.2734 124.33H61.3828V122.201H59.2734V124.33ZM59.3223 136H61.334V126.244H59.3223V136ZM68.4043 136.186C71.3438 136.186 73.3164 133.871 73.3164 131.098C73.3164 128.334 71.3438 126.059 68.4043 126.059C65.4648 126.059 63.502 128.334 63.502 131.098C63.502 133.881 65.4648 136.186 68.4043 136.186ZM68.4043 134.438C66.5 134.438 65.6016 132.895 65.6016 131.098C65.6016 129.311 66.5 127.807 68.4043 127.807C70.3086 127.807 71.2168 129.32 71.2168 131.098C71.2168 132.885 70.3086 134.438 68.4043 134.438ZM75.4941 136H77.5059V130.521C77.5059 128.754 78.4238 127.924 79.8691 127.924C81.207 127.924 81.9199 128.891 81.9199 130.336V136H83.9316V130.033C83.9219 127.973 82.8965 126.059 80.4355 126.059C79.3613 126.059 78.2285 126.518 77.5059 127.553V126.244H75.4941V136ZM89.6445 136.186C91.5098 136.186 93.3359 135.189 93.3359 133.031C93.3359 129.398 88.1309 130.502 88.1309 128.715C88.1309 128.109 88.7168 127.66 89.6543 127.66C90.7578 127.66 91.3926 128.305 91.7734 128.998L93.3359 128.148C92.6133 126.84 91.3535 126.059 89.7227 126.059C87.8477 126.059 86.1973 127.025 86.1973 128.979C86.1973 132.445 91.3535 131.156 91.3535 133.129C91.3535 133.812 90.7676 134.496 89.5469 134.496C88.1797 134.496 87.5059 133.598 87.2129 132.787L85.5918 133.5C86.0801 134.994 87.6328 136.186 89.6445 136.186Z" fill="#202020"/>
</svg>
