<svg width="1012" height="658" viewBox="0 0 1012 658" fill="none" xmlns="http://www.w3.org/2000/svg">
<path d="M484 657.5L1010.5 354" stroke="#27343C" stroke-width="0.25" stroke-miterlimit="10"/>
<path d="M239.5 656.5L1011 213.5" stroke="#27343C" stroke-width="0.25" stroke-miterlimit="10"/>
<path d="M1 656L1011 72" stroke="#27343C" stroke-width="0.25" stroke-miterlimit="10"/>
<path d="M779.5 1.5L1010 387" stroke="#27343C" stroke-width="0.25" stroke-miterlimit="10"/>
<path d="M646.8 3.60001L1010.5 614.5" stroke="#27343C" stroke-width="0.25" stroke-miterlimit="10"/>
<path d="M510 1L901 657" stroke="#27343C" stroke-width="0.25" stroke-miterlimit="10"/>
<path d="M374.5 1.5L766.5 657.5" stroke="#27343C" stroke-width="0.25" stroke-miterlimit="10"/>
<path d="M238.5 1.5L630.5 656.5" stroke="#27343C" stroke-width="0.25" stroke-miterlimit="10"/>
<path d="M872.6 449.899L693.7 552.199L595.5 400.999L782.2 293.199L872.6 449.899Z" fill="#27343C"/>
<path d="M880.4 445.1L706.3 552.5C706.3 552.5 669.1 491.1 636.6 441.1C607 395.2 576.5 359.3 552.5 336.4C523.4 308.6 422.5 245.5 422.5 245.5L742 61.5C742 61.5 736 178.8 751.1 215.9C768 257.6 793.4 304.5 810 332.6C827 361.1 880.4 445.1 880.4 445.1Z" fill="white" stroke="#27343C" stroke-miterlimit="10"/>
<path d="M823.725 422.885C837.638 414.093 841.79 395.686 832.998 381.773C824.206 367.859 805.8 363.707 791.886 372.499C777.973 381.291 773.821 399.697 782.613 413.611C791.404 427.525 809.811 431.677 823.725 422.885Z" fill="#FFC676"/>
<path d="M605.701 602.701L567.301 580.501L605.701 558.301V602.701Z" fill="#27343C"/>
<path d="M612.201 591.002L573.801 568.802L612.201 546.602V591.002Z" fill="#81D8B7"/>
<path d="M953.964 257.712L874.205 303.762L905.905 358.666L985.664 312.616L953.964 257.712Z" fill="#27343C"/>
<path d="M957.429 242.008L877.67 288.058L909.37 342.962L989.128 296.912L957.429 242.008Z" fill="white" stroke="#27343C" stroke-miterlimit="10"/>
<path d="M916.072 313.76L906.287 319.41L912.987 331.015L922.772 325.365L916.072 313.76Z" fill="#81D8B7"/>
<path d="M925.033 298.54L915.247 304.19L926.247 323.242L936.033 317.592L925.033 298.54Z" fill="#81D8B7"/>
<path d="M932.63 281.012L922.844 286.662L939.444 315.413L949.23 309.763L932.63 281.012Z" fill="#81D8B7"/>
<path d="M955.458 289.593L945.672 295.243L952.772 307.541L962.558 301.891L955.458 289.593Z" fill="#81D8B7"/>
<path d="M952.057 253.047L942.271 258.697L965.971 299.746L975.757 294.096L952.057 253.047Z" fill="#81D8B7"/>
<path d="M464.101 142.602C467.101 145.202 467.301 149.802 464.701 152.702C462.101 155.702 457.501 155.902 454.601 153.302L464.001 143.002" fill="#214CB4"/>
<path d="M825.5 101.801L863.9 124.001L825.5 146.201V101.801Z" fill="#27343C"/>
<path d="M835.7 88.1016L874.1 110.302L835.7 132.502V88.1016Z" fill="#81D8B7"/>
<path d="M515.739 491.651C513.776 492.93 511.622 494.151 509.365 495.026C490.602 502.958 469.045 494.127 461.113 475.364C453.181 456.602 462.011 435.045 480.774 427.113C499.537 419.181 521.093 428.011 529.026 446.774C531.334 452.193 532.224 457.802 531.878 463.346" stroke="#27343C" stroke-width="8" stroke-miterlimit="10"/>
<path d="M452.901 470.601C439.201 448.901 445.601 420.101 467.401 406.401C489.101 392.701 517.901 399.101 531.601 420.901" stroke="#1059D8" stroke-width="8" stroke-miterlimit="10"/>
<path d="M513.601 404.201C520.901 407.801 527.301 413.401 532.001 420.801" stroke="#1059D8" stroke-width="8" stroke-miterlimit="10"/>
<path d="M516.901 470.101C515.101 471.801 513.101 473.401 510.901 474.701C492.801 486.201 469.201 481.501 458.401 464.301C447.501 447.101 453.401 423.901 471.601 412.401C489.801 400.901 513.301 405.601 524.101 422.801C527.201 427.801 529.001 433.201 529.401 438.701" stroke="#81D8B7" stroke-width="8" stroke-miterlimit="10"/>
<path d="M511.301 304.1C511.301 304.1 519.001 277.5 527.001 255.2C535.401 231.8 539.001 217.5 567.301 211.6C591.001 206.7 615.001 207.8 637.901 207.5C653.801 207.3 680.801 207 701.501 199.9C719.601 193.7 743.001 175.4 743.001 175.4" stroke="#214CB4" stroke-miterlimit="10"/>
<path d="M536.301 322.9C536.301 322.9 541.501 297.3 546.101 275.5C550.601 254.1 558.301 221.4 568.301 213.8C578.301 206.2 587.101 199.9 616.101 199.5C645.001 199 674.401 198 694.101 193.2C712.201 188.8 725.2 188.1 742.5 175.5" stroke="#214CB4" stroke-miterlimit="10"/>
<path d="M570.401 231.102L544.201 248.302L539.801 244.802L566.901 226.602L570.401 231.102Z" fill="#214CB4"/>
<path d="M549.8 224.702C552.838 224.702 555.3 222.239 555.3 219.202C555.3 216.164 552.838 213.702 549.8 213.702C546.762 213.702 544.3 216.164 544.3 219.202C544.3 222.239 546.762 224.702 549.8 224.702Z" fill="#FFC676"/>
<path d="M550.1 229.302C555.402 229.302 559.7 225.004 559.7 219.702C559.7 214.4 555.402 210.102 550.1 210.102C544.798 210.102 540.5 214.4 540.5 219.702C540.5 225.004 544.798 229.302 550.1 229.302Z" stroke="#FFC676" stroke-miterlimit="10"/>
<path d="M689 205.602C690.326 205.602 691.4 204.527 691.4 203.202C691.4 201.876 690.326 200.802 689 200.802C687.675 200.802 686.6 201.876 686.6 203.202C686.6 204.527 687.675 205.602 689 205.602Z" fill="#FFC676"/>
<path d="M689.2 207.702C691.575 207.702 693.5 205.776 693.5 203.402C693.5 201.027 691.575 199.102 689.2 199.102C686.826 199.102 684.9 201.027 684.9 203.402C684.9 205.776 686.826 207.702 689.2 207.702Z" stroke="#FFC676" stroke-miterlimit="10"/>
<path d="M617 212.102L622.7 222.202" stroke="#27343C" stroke-miterlimit="10"/>
<path d="M622.2 209.302L627.9 219.402" stroke="#27343C" stroke-miterlimit="10"/>
<path d="M627.4 206.402L633.1 216.502" stroke="#27343C" stroke-miterlimit="10"/>
<path d="M632.6 203.602L638.3 213.702" stroke="#27343C" stroke-miterlimit="10"/>
<path d="M637.8 200.702L643.5 210.802" stroke="#27343C" stroke-miterlimit="10"/>
<path d="M643.1 197.902L648.7 208.002" stroke="#27343C" stroke-miterlimit="10"/>
<path d="M648.3 195.002L654 205.102" stroke="#27343C" stroke-miterlimit="10"/>
<path d="M653.5 192.202L659.2 202.302" stroke="#27343C" stroke-miterlimit="10"/>
<path d="M658.7 189.302L664.4 199.502" stroke="#27343C" stroke-miterlimit="10"/>
<path d="M663.9 186.502L669.6 196.602" stroke="#27343C" stroke-miterlimit="10"/>
<path d="M669.1 183.602L674.8 193.802" stroke="#27343C" stroke-miterlimit="10"/>
<path d="M674.4 180.802L680 190.902" stroke="#27343C" stroke-miterlimit="10"/>
<path d="M679.6 178.002L685.3 188.102" stroke="#27343C" stroke-miterlimit="10"/>
<path d="M684.8 175.102L690.5 185.202" stroke="#27343C" stroke-miterlimit="10"/>
<path d="M921 141.1L926.7 151.2" stroke="#27343C" stroke-miterlimit="10"/>
<path d="M926.2 138.3L931.9 148.4" stroke="#27343C" stroke-miterlimit="10"/>
<path d="M931.5 135.4L937.2 145.5" stroke="#27343C" stroke-miterlimit="10"/>
<path d="M936.7 132.6L942.4 142.7" stroke="#27343C" stroke-miterlimit="10"/>
<path d="M941.9 129.7L947.6 139.8" stroke="#27343C" stroke-miterlimit="10"/>
<path d="M947.1 126.9L952.8 137" stroke="#27343C" stroke-miterlimit="10"/>
<path d="M952.3 124L958 134.1" stroke="#27343C" stroke-miterlimit="10"/>
<path d="M957.5 121.2L963.2 131.3" stroke="#27343C" stroke-miterlimit="10"/>
<path d="M962.8 118.3L968.4 128.5" stroke="#27343C" stroke-miterlimit="10"/>
<path d="M968 115.5L973.7 125.6" stroke="#27343C" stroke-miterlimit="10"/>
<path d="M973.2 112.7L978.9 122.8" stroke="#27343C" stroke-miterlimit="10"/>
<path d="M978.4 109.8L984.1 119.9" stroke="#27343C" stroke-miterlimit="10"/>
<path d="M983.6 107L989.3 117.1" stroke="#27343C" stroke-miterlimit="10"/>
<path d="M988.8 104.1L994.5 114.2" stroke="#27343C" stroke-miterlimit="10"/>
<path d="M994 101.3L999.7 111.4" stroke="#27343C" stroke-miterlimit="10"/>
<path d="M999.3 98.4004L1005 108.5" stroke="#27343C" stroke-miterlimit="10"/>
<path d="M740.431 399.408L671.47 439.758L712.88 510.532L781.841 470.182L740.431 399.408Z" stroke="#214CB4" stroke-miterlimit="10"/>
<path d="M706 498.8L775 458.4" stroke="#214CB4" stroke-miterlimit="10"/>
<path d="M699.1 487L768.1 446.6" stroke="#214CB4" stroke-miterlimit="10"/>
<path d="M692.2 475.2L761.2 434.8" stroke="#214CB4" stroke-miterlimit="10"/>
<path d="M685.3 463.4L754.3 423" stroke="#214CB4" stroke-miterlimit="10"/>
<path d="M678.4 451.6L747.4 411.2" stroke="#214CB4" stroke-miterlimit="10"/>
<path d="M726.7 407.5L768.1 478.3" stroke="#214CB4" stroke-miterlimit="10"/>
<path d="M712.9 415.5L754.3 486.3" stroke="#214CB4" stroke-miterlimit="10"/>
<path d="M699.1 423.6L740.5 494.4" stroke="#214CB4" stroke-miterlimit="10"/>
<path d="M685.3 431.7L726.7 502.5" stroke="#214CB4" stroke-miterlimit="10"/>
<path d="M715.287 439.346L704.375 445.646L710.225 455.778L721.137 449.478L715.287 439.346Z" fill="#81D8B7"/>
<path d="M804.876 446.627L756.726 474.427L759.126 478.584L807.276 450.783L804.876 446.627Z" fill="#81D8B7"/>
<path d="M680.9 491.2L686 500.4" stroke="#27343C" stroke-miterlimit="10"/>
<path d="M685.6 488.6L690.8 497.8" stroke="#27343C" stroke-miterlimit="10"/>
<path d="M690.3 486L695.5 495.2" stroke="#27343C" stroke-miterlimit="10"/>
<path d="M695.1 483.4L700.2 492.6" stroke="#27343C" stroke-miterlimit="10"/>
<path d="M699.8 480.8L705 490" stroke="#27343C" stroke-miterlimit="10"/>
<path d="M704.5 478.3L709.7 487.4" stroke="#27343C" stroke-miterlimit="10"/>
<path d="M709.3 475.7L714.5 484.9" stroke="#27343C" stroke-miterlimit="10"/>
<path d="M714 473.1L719.2 482.3" stroke="#27343C" stroke-miterlimit="10"/>
<path d="M718.8 470.5L723.9 479.7" stroke="#27343C" stroke-miterlimit="10"/>
<path d="M723.5 467.9L728.7 477.1" stroke="#27343C" stroke-miterlimit="10"/>
<path d="M728.2 465.3L733.4 474.5" stroke="#27343C" stroke-miterlimit="10"/>
<path d="M733 462.8L738.1 471.9" stroke="#27343C" stroke-miterlimit="10"/>
<path d="M737.7 460.2L742.9 469.4" stroke="#27343C" stroke-miterlimit="10"/>
<path d="M742.4 457.6L747.6 466.8" stroke="#27343C" stroke-miterlimit="10"/>
<path d="M747.2 455L752.3 464.2" stroke="#27343C" stroke-miterlimit="10"/>
<path d="M751.9 452.4L757.1 461.6" stroke="#27343C" stroke-miterlimit="10"/>
<path d="M748.101 629.902C748.101 629.902 742.801 612.402 754.501 607.102C762.501 603.502 774.901 598.802 782.001 596.202C785.701 594.802 789.001 592.502 791.501 589.502C797.301 582.602 807.401 570.202 808.501 566.802C810.101 562.002 811.301 550.702 811.301 543.702C811.301 539.702 810.701 533.502 808.301 532.402C805.901 531.302 804.401 530.302 801.701 535.402C799.001 540.502 791.001 564.602 787.701 564.502C783.801 564.402 779.201 562.902 783.001 549.302C785.901 538.902 791.601 528.902 794.101 524.902C794.801 523.702 795.901 522.702 797.201 522.102C800.301 520.702 806.301 517.902 808.701 516.602C813.701 514.102 817.101 509.702 815.001 508.102C812.901 506.502 799.101 505.502 790.901 508.302C786.701 509.702 780.501 518.002 774.701 524.602C768.901 531.202 769.401 531.102 769.401 531.102C769.401 531.102 785.301 512.902 787.101 508.802C788.501 505.702 786.001 500.002 783.001 498.202C780.001 496.402 774.701 496.702 770.501 501.102C766.301 505.602 751.401 528.302 751.401 528.302C751.401 528.302 769.201 505.702 767.101 501.002C765.401 497.202 762.201 496.802 760.201 497.202C758.301 497.602 754.801 499.602 749.701 508.202C744.501 516.902 741.701 522.002 741.701 522.002C741.701 522.002 750.801 509.002 746.501 510.102C742.201 511.302 733.901 513.702 729.101 532.802C724.301 552.002 724.801 569.302 718.801 578.502C712.801 587.702 704.801 598.602 704.801 598.602L695.101 621.102L748.101 629.902Z" fill="#27343C"/>
<path d="M678.801 634.802L717.701 580.002C717.701 580.002 732.801 574.202 742.101 575.002C751.401 575.802 765.501 583.202 772.501 589.302C774.201 590.802 775.801 592.202 777.101 593.602C780.901 597.402 782.201 603.102 780.501 608.202L773.301 629.002L678.801 634.802Z" fill="#27343C"/>
<path d="M678.801 634.802L709.301 587.302C709.301 587.302 725.801 581.002 736.101 581.802C746.301 582.602 761.801 590.802 769.401 597.402C771.301 599.102 773.001 600.602 774.401 602.102C778.601 606.302 780.001 612.502 778.101 618.102L772.901 634.602L678.801 634.802Z" fill="#27343C"/>
<path d="M739.4 620.928C739.4 620.928 736.3 602.928 748.7 599.128C757.1 596.528 770 593.428 777.4 591.728C781.2 590.828 784.8 588.928 787.7 586.328C794.3 580.228 805.9 569.228 807.5 566.028C809.6 561.528 812.3 550.428 813.2 543.428C813.7 539.528 813.9 533.228 811.7 531.828C809.5 530.428 808.1 529.328 804.7 534.028C801.4 538.728 790.3 561.628 787.1 561.128C783.2 560.528 778.9 558.428 784.4 545.428C788.6 535.428 795.6 526.228 798.5 522.628C799.4 521.528 800.6 520.728 801.9 520.328C805.2 519.328 811.5 517.328 814 516.328C819.2 514.428 823.2 510.628 821.3 508.728C819.4 506.828 805.9 504.128 797.4 505.928C793 506.828 785.9 514.328 779.3 520.028C772.7 525.828 773.2 525.728 773.2 525.728C773.2 525.728 791.3 509.728 793.6 505.928C795.3 503.028 793.6 497.028 790.8 494.828C788 492.628 782.7 492.328 778 496.128C773.2 500.028 755.6 520.728 755.6 520.728C755.6 520.728 776.1 500.628 774.6 495.628C773.4 491.628 770.3 490.828 768.2 491.028C766.2 491.228 762.6 492.728 756.4 500.628C750.2 508.528 746.7 513.328 746.7 513.328C746.7 513.328 757.3 501.528 752.9 502.128C748.5 502.728 739.9 504.028 732.7 522.428C725.5 540.828 723.8 558.128 716.7 566.428C709.6 574.728 700.3 584.628 700.3 584.628L687.8 605.728L739.4 620.928Z" fill="white" stroke="#27343C" stroke-miterlimit="10"/>
<path d="M665 623.028L715.5 567.528C715.5 567.528 731.2 563.728 740.4 565.628C749.6 567.528 762.6 576.728 768.7 583.628C770.2 585.328 771.6 586.928 772.7 588.428C776 592.728 776.6 598.428 774.2 603.328L764.5 623.128H665V623.028Z" fill="white" stroke="#27343C" stroke-miterlimit="10"/>
<path d="M651 634.528L706.4 573.728C706.4 573.728 723.6 569.528 733.7 571.628C743.8 573.728 758 583.828 764.7 591.328C766.4 593.228 767.8 595.028 769.1 596.628C772.7 601.328 773.4 607.628 770.8 612.928L760.1 634.528H651Z" fill="#1059D8"/>
<path d="M958.301 468.799C958.301 468.799 931.001 442.099 927.101 436.899C923.201 431.699 918.001 426.099 909.801 428.599C901.601 431.099 899.401 431.599 899.401 431.599C899.401 431.599 896.701 428.999 892.101 429.999C887.401 431.099 885.401 435.199 885.401 435.199C885.401 435.199 874.501 435.599 870.801 437.199C867.101 438.699 867.101 438.899 867.101 438.899L876.901 446.199C876.901 446.199 831.401 412.399 829.101 410.899C826.801 409.399 822.801 415.999 828.201 422.099C833.601 428.199 873.201 463.699 875.801 468.999C878.501 474.299 880.401 476.899 880.101 479.699C879.801 482.599 875.701 484.899 869.801 481.299C863.901 477.699 856.301 475.099 852.101 474.999C847.901 474.899 840.801 475.099 837.401 478.599C834.001 482.099 835.901 487.199 848.201 491.999C860.501 496.799 858.001 494.799 864.701 499.699C871.401 504.599 889.301 514.199 905.501 514.199C921.701 514.199 925.901 510.099 933.701 513.399C941.501 516.699 944.301 517.899 944.301 517.899L958.301 468.799Z" fill="#27343C"/>
<path d="M1009.5 543.099L933.401 513.399C933.401 513.399 928.701 499.199 930.401 490.999C932.401 480.899 935.901 475.899 941.701 471.299C946.501 467.499 954.201 464.499 954.201 464.499L1011.1 477.799L1009.5 543.099Z" fill="#27343C"/>
<path d="M1010.6 544.799L939.801 516.799C939.801 516.799 934.601 502.599 936.401 493.899C938.601 483.099 942.301 477.799 948.701 472.799C953.901 468.699 959.901 465.399 959.901 465.399L1010.8 475.799L1010.6 544.799Z" fill="#27343C"/>
<path d="M942.2 447.3C942.2 447.3 913.3 422.3 909.1 417.3C904.9 412.3 899.3 407.1 891.3 410C883.3 412.9 881.1 413.7 881.1 413.7C881.1 413.7 878.3 411.2 873.7 412.6C869.1 414 867.3 418.2 867.3 418.2C867.3 418.2 856.4 419.3 852.8 421.1C849.2 422.9 849.2 423 849.2 423L859.5 429.7C859.5 429.7 812.1 398.7 809.6 397.4C807.1 396.1 803.6 402.9 809.4 408.6C815.2 414.3 856.8 447.4 859.8 452.5C862.8 457.6 864.9 460.1 864.8 463C864.7 465.9 860.7 468.4 854.6 465.2C848.5 462 840.7 459.8 836.5 460C832.3 460.2 825.3 460.8 822.1 464.5C818.9 468.2 821.1 473.2 833.7 477.2C846.2 481.2 843.6 479.4 850.6 483.9C857.6 488.4 876.1 496.8 892.3 495.9C908.5 495 912.4 490.5 920.4 493.4C928.4 496.3 931.2 497.2 931.2 497.2L942.2 447.3Z" fill="white" stroke="#27343C" stroke-miterlimit="10"/>
<path d="M997.9 518.4L920.1 493.4C920.1 493.4 914.6 479.5 915.7 471.2C917.1 461 920.3 455.8 925.8 450.8C930.3 446.7 937.9 443.2 937.9 443.2L995.5 452.9L997.9 518.4Z" fill="white" stroke="#27343C" stroke-miterlimit="10"/>
<path d="M1011 524.3L926.7 496.5C926.7 496.5 920.7 482.7 921.9 473.9C923.4 463 926.8 457.4 932.8 452.1C937.7 447.7 943.5 444 943.5 444L1010.8 452.7L1011 524.3Z" fill="#1059D8"/>
<path d="M867 417.801L875 423.301" stroke="#27343C" stroke-miterlimit="10"/>
<path d="M880.7 413.301L888.7 418.701" stroke="#27343C" stroke-miterlimit="10"/>
<path d="M569.4 330.1L598.4 369.8" stroke="#1059D8" stroke-miterlimit="10"/>
<path d="M662.9 278.7L679 306.9" stroke="#1059D8" stroke-miterlimit="10"/>
<path d="M582.3 323.7L597.7 347" stroke="#1059D8" stroke-miterlimit="10"/>
<path d="M613 347.5L620.3 357.6" stroke="#1059D8" stroke-miterlimit="10"/>
<path d="M604.7 311.1L626.5 344.2" stroke="#1059D8" stroke-miterlimit="10"/>
<path d="M615.8 304.6L642.2 345.3" stroke="#1059D8" stroke-miterlimit="10"/>
<path d="M640.6 320.2L653.1 339.2" stroke="#1059D8" stroke-miterlimit="10"/>
<path d="M638.3 292.1L646.8 305.3" stroke="#1059D8" stroke-miterlimit="10"/>
<path d="M649.9 285.8L663.2 307.2" stroke="#1059D8" stroke-miterlimit="10"/>
<path d="M597.628 365.062L578.342 337.669L573.763 340.893L593.049 368.286L597.628 365.062Z" fill="#1059D8" stroke="#1059D8" stroke-miterlimit="10"/>
<path d="M595.788 338.008L587.498 326.233L582.837 329.515L591.128 341.29L595.788 338.008Z" fill="#1059D8" stroke="#1059D8" stroke-miterlimit="10"/>
<path d="M625.144 337.844L616.854 326.069L612.193 329.351L620.483 341.126L625.144 337.844Z" fill="#1059D8" stroke="#1059D8" stroke-miterlimit="10"/>
<path d="M654.524 336.306L646.234 324.531L641.573 327.813L649.864 339.588L654.524 336.306Z" fill="#1059D8" stroke="#1059D8" stroke-miterlimit="10"/>
<path d="M661.353 299.06L653.437 287.03L648.676 290.163L656.591 302.193L661.353 299.06Z" fill="#1059D8" stroke="#1059D8" stroke-miterlimit="10"/>
<path d="M669.595 285.68L666.259 280.454L661.455 283.52L664.79 288.746L669.595 285.68Z" fill="#1059D8" stroke="#1059D8" stroke-miterlimit="10"/>
<path d="M642.163 293.199L641.472 292.218L636.811 295.499L637.502 296.481L642.163 293.199Z" fill="#1059D8" stroke="#1059D8" stroke-miterlimit="10"/>
<path d="M642.482 339.608L620.377 306.51L615.637 309.676L637.742 342.774L642.482 339.608Z" fill="#1059D8" stroke="#1059D8" stroke-miterlimit="10"/>
<path d="M620.161 352.158L618.779 350.196L614.118 353.477L615.5 355.44L620.161 352.158Z" fill="#1059D8" stroke="#1059D8" stroke-miterlimit="10"/>
<path d="M688.9 323L714.8 358.5" stroke="#1059D8" stroke-miterlimit="10"/>
<path d="M772.5 277L786.9 302.2" stroke="#1059D8" stroke-miterlimit="10"/>
<path d="M700.3 317.2L714.1 338.1" stroke="#1059D8" stroke-miterlimit="10"/>
<path d="M727.8 338.5L734.4 347.5" stroke="#1059D8" stroke-miterlimit="10"/>
<path d="M720.4 305.9L739.9 335.6" stroke="#1059D8" stroke-miterlimit="10"/>
<path d="M730.4 300.1L754 336.6" stroke="#1059D8" stroke-miterlimit="10"/>
<path d="M752.5 314.1L763.8 331.1" stroke="#1059D8" stroke-miterlimit="10"/>
<path d="M750.5 288.9L758.1 300.8" stroke="#1059D8" stroke-miterlimit="10"/>
<path d="M760.8 283.3L772.8 302.4" stroke="#1059D8" stroke-miterlimit="10"/>
<path d="M714.02 354.097L696.807 329.648L692.718 332.526L709.932 356.976L714.02 354.097Z" fill="#1059D8" stroke="#1059D8" stroke-miterlimit="10"/>
<path d="M712.402 330.07L704.975 319.522L700.805 322.458L708.232 333.006L712.402 330.07Z" fill="#1059D8" stroke="#1059D8" stroke-miterlimit="10"/>
<path d="M738.686 329.899L731.259 319.351L727.089 322.287L734.516 332.835L738.686 329.899Z" fill="#1059D8" stroke="#1059D8" stroke-miterlimit="10"/>
<path d="M765.022 328.477L757.595 317.929L753.425 320.865L760.851 331.413L765.022 328.477Z" fill="#1059D8" stroke="#1059D8" stroke-miterlimit="10"/>
<path d="M771.099 295.192L764.008 284.415L759.748 287.219L766.839 297.996L771.099 295.192Z" fill="#1059D8" stroke="#1059D8" stroke-miterlimit="10"/>
<path d="M778.54 283.244L775.527 278.524L771.229 281.268L774.241 285.988L778.54 283.244Z" fill="#1059D8" stroke="#1059D8" stroke-miterlimit="10"/>
<path d="M753.924 289.923L753.348 289.105L749.178 292.041L749.754 292.859L753.924 289.923Z" fill="#1059D8" stroke="#1059D8" stroke-miterlimit="10"/>
<path d="M754.194 331.389L734.422 301.784L730.181 304.617L749.953 334.222L754.194 331.389Z" fill="#1059D8" stroke="#1059D8" stroke-miterlimit="10"/>
<path d="M734.294 342.678L733.028 340.88L728.858 343.816L730.124 345.615L734.294 342.678Z" fill="#1059D8" stroke="#1059D8" stroke-miterlimit="10"/>
<path opacity="0.3" d="M425.3 244.3L730 83C730 83 730.1 173.8 740 206.3C749.7 238.3 779 277 779 277C779 277 772 264.5 765.5 249.5C758.201 234.5 746.5 210 744 186.5C742 163.5 740 120 740.5 101.5C741 83 741.5 62.5 741.5 62.5L425.3 244.3Z" fill="#81D8B7"/>
</svg>
