<svg width="159" height="159" viewBox="0 0 159 159" fill="none" xmlns="http://www.w3.org/2000/svg">
<rect width="159" height="159" rx="4" fill="#00A7FF" fill-opacity="0.2"/>
<mask id="mask0_1_1364" style="mask-type:alpha" maskUnits="userSpaceOnUse" x="0" y="0" width="159" height="159">
<rect width="159" height="159" rx="4" fill="#00A7FF"/>
</mask>
<g mask="url(#mask0_1_1364)">
<g opacity="0.3">
<path d="M174.998 119.762C182.947 143.735 169.896 169.555 145.788 177.549C121.681 185.544 95.7879 172.638 87.8383 148.665C85.2394 140.828 84.9565 132.837 86.463 125.276L131.787 134.706L120.447 89.9561C143.498 84.0518 167.415 96.8961 174.998 119.762Z" fill="white"/>
<path d="M116.165 86.3605L127.506 131.11L82.1819 121.68C82.1819 121.68 82.1819 121.68 82.1513 121.588C85.3813 106.189 96.6632 92.7254 112.797 87.3753C113.91 87.0063 115.022 86.6373 116.165 86.3605Z" fill="white"/>
</g>
</g>
<path d="M27 63V57H35.001H42.129C42.405 54.654 43.164 52.455 44.301 50.499H41.502C40.674 50.499 40.002 49.827 40.002 48.999C40.002 48.171 40.674 47.499 41.502 47.499H46.5V44.499H41.499C40.671 44.499 39.999 43.827 39.999 42.999C39.999 42.171 40.671 41.499 41.499 41.499H46.5V38.499H41.499C40.671 38.499 39.999 37.827 39.999 36.999C39.999 36.171 40.671 35.499 41.499 35.499H46.5V32.499H41.499C40.671 32.499 39.999 31.827 39.999 30.999C39.999 30.171 40.671 29.499 41.499 29.499H46.5V25.5C46.5 24.672 45.828 24 45 24H35.001C34.173 24 33.501 24.672 33.501 25.5V29.499H29.499C28.671 29.499 27.999 30.171 27.999 30.999V54H25.5C24.672 54 24 54.672 24 55.5V64.5C24 65.328 24.672 66 25.5 66H43.527C43.092 65.043 42.747 64.041 42.495 63H27ZM30.999 32.499H33.498V35.499H30.999V32.499ZM30.999 38.499H33.498V41.499H30.999V38.499ZM30.999 44.499H33.498V47.499H30.999V44.499ZM30.999 50.499H33.498V54H30.999V50.499Z" fill="#00A7FF" fill-opacity="0.6"/>
<path d="M59.001 45.999C51.834 45.999 46.002 51.831 46.002 58.998C46.002 66.165 51.831 72 59.001 72C66.171 72 72 66.168 72 59.001C72 51.834 66.168 45.999 59.001 45.999ZM63.414 63.414C62.634 64.194 61.368 64.194 60.585 63.414L57.585 60.414C57.21 60.039 57 59.529 57 59.001V54C57 52.896 57.897 51.999 59.001 51.999C60.105 51.999 61.002 52.896 61.002 54V58.173L63.417 60.588C64.194 61.368 64.194 62.634 63.414 63.414Z" fill="#00A7FF"/>
<path d="M25.9141 108H28.0137V94.2012H25.9141V108ZM31.8516 108H33.9414V102.17H36.002C38.8145 102.17 40.7969 100.764 40.7969 98.2246C40.7969 95.666 38.8047 94.2012 36.002 94.2012H31.8516V108ZM33.9414 100.207V96.1641H36.002C37.8379 96.1641 38.7168 96.916 38.7168 98.2246C38.7168 99.5137 37.8672 100.207 36.002 100.207H33.9414ZM48.8926 108.186C53.3652 108.186 55.4453 104.855 55.4453 101.096C55.4453 97.3359 53.3652 94.0156 48.8926 94.0156C44.4199 94.0156 42.3398 97.3359 42.3398 101.096C42.3398 104.855 44.4199 108.186 48.8926 108.186ZM48.8926 106.32C45.7676 106.32 44.5566 103.889 44.5566 101.096C44.5566 98.3125 45.7676 95.8809 48.8926 95.8809C52.0176 95.8809 53.2285 98.3125 53.2285 101.096C53.2285 103.889 52.0176 106.32 48.8926 106.32Z" fill="#202020"/>
</svg>
