<svg width="347" height="200" viewBox="0 0 347 200" fill="none" xmlns="http://www.w3.org/2000/svg">
<rect width="347" height="200" rx="4" fill="#00A7FF" fill-opacity="0.2"/>
<mask id="mask0_1_439" style="mask-type:alpha" maskUnits="userSpaceOnUse" x="0" y="0" width="347" height="200">
<rect width="347" height="200" rx="4" fill="#00A7FF"/>
</mask>
<g mask="url(#mask0_1_439)">
<g opacity="0.3">
<path d="M372.529 120.071C385.778 160.026 364.027 203.059 323.847 216.383C283.667 229.707 240.512 208.198 227.263 168.243C222.931 155.181 222.46 141.862 224.97 129.26L300.51 144.976L281.61 70.3932C320.029 60.5527 359.891 81.96 372.529 120.071Z" fill="white"/>
<path d="M274.476 64.4002L293.376 138.983L217.836 123.267C217.836 123.267 217.836 123.267 217.785 123.113C223.168 97.448 241.972 75.0084 268.861 66.0914C270.716 65.4765 272.57 64.8615 274.476 64.4002Z" fill="white"/>
</g>
</g>
<path d="M44 92V84H54.668H64.172C64.54 80.872 65.552 77.94 67.068 75.332H63.336C62.232 75.332 61.336 74.436 61.336 73.332C61.336 72.228 62.232 71.332 63.336 71.332H70V67.332H63.332C62.228 67.332 61.332 66.436 61.332 65.332C61.332 64.228 62.228 63.332 63.332 63.332H70V59.332H63.332C62.228 59.332 61.332 58.436 61.332 57.332C61.332 56.228 62.228 55.332 63.332 55.332H70V51.332H63.332C62.228 51.332 61.332 50.436 61.332 49.332C61.332 48.228 62.228 47.332 63.332 47.332H70V42C70 40.896 69.104 40 68 40H54.668C53.564 40 52.668 40.896 52.668 42V47.332H47.332C46.228 47.332 45.332 48.228 45.332 49.332V80H42C40.896 80 40 80.896 40 82V94.0001C40 95.1041 40.896 96.0001 42 96.0001H66.036C65.456 94.7241 64.996 93.3881 64.66 92H44ZM49.332 51.332H52.664V55.332H49.332V51.332ZM49.332 59.332H52.664V63.332H49.332V59.332ZM49.332 67.332H52.664V71.332H49.332V67.332ZM49.332 75.332H52.664V80H49.332V75.332Z" fill="#00A7FF" fill-opacity="0.6"/>
<path d="M86.668 69.332C77.112 69.332 69.336 77.108 69.336 86.664C69.336 96.2201 77.108 104 86.668 104C96.228 104 104 96.2241 104 86.668C104 77.112 96.224 69.332 86.668 69.332ZM92.552 92.5521C91.512 93.5921 89.824 93.5921 88.78 92.5521L84.78 88.5521C84.28 88.052 84 87.372 84 86.668V80C84 78.528 85.196 77.332 86.668 77.332C88.14 77.332 89.336 78.528 89.336 80V85.564L92.556 88.784C93.592 89.824 93.592 91.5121 92.552 92.5521Z" fill="#00A7FF"/>
<path d="M43.0625 162H46.4219V139.922H43.0625V162ZM52.5625 162H55.9062V152.672H59.2031C63.7031 152.672 66.875 150.422 66.875 146.359C66.875 142.266 63.6875 139.922 59.2031 139.922H52.5625V162ZM55.9062 149.531V143.062H59.2031C62.1406 143.062 63.5469 144.266 63.5469 146.359C63.5469 148.422 62.1875 149.531 59.2031 149.531H55.9062ZM79.8281 162.297C86.9844 162.297 90.3125 156.969 90.3125 150.953C90.3125 144.938 86.9844 139.625 79.8281 139.625C72.6719 139.625 69.3438 144.938 69.3438 150.953C69.3438 156.969 72.6719 162.297 79.8281 162.297ZM79.8281 159.312C74.8281 159.312 72.8906 155.422 72.8906 150.953C72.8906 146.5 74.8281 142.609 79.8281 142.609C84.8281 142.609 86.7656 146.5 86.7656 150.953C86.7656 155.422 84.8281 159.312 79.8281 159.312Z" fill="#202020"/>
</svg>
