<svg width="1120" height="328" viewBox="0 0 1120 328" fill="none" xmlns="http://www.w3.org/2000/svg">
<mask id="mask0_1_775" style="mask-type:alpha" maskUnits="userSpaceOnUse" x="0" y="0" width="1120" height="328">
<rect width="1120" height="328" rx="16" fill="#1059D8"/>
</mask>
<g mask="url(#mask0_1_775)">
<path fill-rule="evenodd" clip-rule="evenodd" d="M784 294.015C784.016 294.044 784.032 294.072 784.048 294.1C790.128 304.801 803.731 308.547 814.431 302.468C825.104 296.404 828.859 282.855 822.846 272.167L784.095 294.183L784 294.015Z" fill="#FFC676"/>
<mask id="path-3-inside-1_1_775" fill="white">
<path fill-rule="evenodd" clip-rule="evenodd" d="M969.001 250.567C969.153 250.72 969.305 250.873 969.457 251.025C1022.91 304.478 1109.57 304.478 1163.03 251.025C1216.34 197.71 1216.48 111.354 1163.44 57.8692L969.87 251.436L969.001 250.567Z"/>
</mask>
<path d="M969.001 250.567L970.415 249.153L967.58 251.974L969.001 250.567ZM1163.44 57.8692L1164.86 56.4609L1163.44 55.0349L1162.02 56.455L1163.44 57.8692ZM969.87 251.436L968.456 252.85L969.87 254.264L971.284 252.85L969.87 251.436ZM970.871 249.611C970.721 249.461 970.571 249.31 970.422 249.159L967.58 251.974C967.734 252.13 967.888 252.285 968.043 252.439L970.871 249.611ZM1161.61 249.611C1108.94 302.282 1023.54 302.282 970.871 249.611L968.043 252.439C1022.28 306.673 1110.21 306.673 1164.44 252.439L1161.61 249.611ZM1162.02 59.2775C1214.28 111.981 1214.15 197.075 1161.61 249.611L1164.44 252.439C1218.53 198.345 1218.67 110.728 1164.86 56.4609L1162.02 59.2775ZM1162.02 56.455L968.456 250.022L971.284 252.85L1164.85 59.2834L1162.02 56.455ZM971.284 250.022L970.415 249.153L967.587 251.981L968.456 252.85L971.284 250.022Z" fill="#1059D8" fill-opacity="0.2" mask="url(#path-3-inside-1_1_775)"/>
<path fill-rule="evenodd" clip-rule="evenodd" d="M71.3421 -27.9996C71.2955 -27.9841 71.249 -27.9684 71.2024 -27.9526C57.8357 -23.4095 50.6827 -8.89064 55.2259 4.47611C59.7573 17.8085 74.2133 24.959 87.5516 20.4874L71.0996 -27.9172L71.3421 -27.9996Z" fill="#00A7FF"/>
</g>
</svg>
