<svg width="130" height="32" viewBox="0 0 130 32" fill="none" xmlns="http://www.w3.org/2000/svg">
<path d="M47.5881 18.1743L49.8414 12.4312L52.0766 18.1743H47.5881ZM55.2568 22.7615L49.8414 9.42202L44.4079 22.7615H45.789L47.1156 19.367H52.5491L53.8757 22.7615H55.2568Z" fill="black"/>
<path d="M57.9497 21.6239C57.6407 21.4037 57.4045 21.0367 57.2773 20.5046H55.9325C56.2051 22.1743 57.2591 23 59.1127 23C59.5488 23 59.9486 22.9633 60.3302 22.8532C60.7119 22.7431 61.039 22.5963 61.3479 22.3945C61.9657 21.9725 62.2747 21.3303 62.2747 20.4679C62.2747 19.5872 61.8749 18.9633 61.039 18.5596C60.6937 18.3945 60.3121 18.2661 59.8941 18.1743C59.4943 18.0826 59.1127 17.9725 58.7674 17.8624C58.404 17.7523 58.1132 17.6055 57.877 17.4404C57.6407 17.2752 57.5135 17.0183 57.5135 16.6514C57.5135 16.2844 57.6589 16.0092 57.9497 15.844C58.2404 15.6606 58.5857 15.5688 58.9673 15.5688C59.3671 15.5688 59.7124 15.6606 59.985 15.8073C60.2576 15.9541 60.4756 16.2477 60.6028 16.6881H61.9657C61.8022 15.8807 61.4569 15.3119 60.9481 15C60.4211 14.6697 59.7851 14.5046 59.0037 14.5046C58.2404 14.5046 57.5681 14.7248 57.0047 15.1284C56.4595 15.5505 56.1688 16.156 56.1688 16.9633C56.1688 17.3486 56.2778 17.6972 56.4777 17.9908C56.6958 18.3028 57.0047 18.5413 57.4045 18.7248C57.7679 18.8899 58.1496 19.0183 58.5494 19.1284C58.9491 19.2202 59.3308 19.3303 59.6942 19.4404C60.512 19.7156 60.9299 20.1193 60.9299 20.633C60.9299 21.5138 60.3484 21.9358 59.1854 21.9358C58.6947 21.9358 58.2768 21.844 57.9497 21.6239Z" fill="black"/>
<path d="M63.1168 15.8807H65.1158V22.7615H66.3879V15.8807H68.3686V14.6881H66.3879V11.5505H65.1158V14.6881H63.1168V15.8807Z" fill="black"/>
<path d="M71.3689 22.7615V19.3853C71.3689 18.2661 71.5506 17.422 71.9323 16.8349C72.1503 16.5046 72.4229 16.2661 72.7682 16.0826C73.0953 15.8991 73.5496 15.8073 74.0948 15.8073C74.6399 15.8073 75.0216 16.0092 75.2578 16.3761C75.494 16.7431 75.6212 17.2018 75.6212 17.7156V22.7615H76.8933V17.7156C76.8933 16.7798 76.6389 16.0275 76.1664 15.4587C75.912 15.1651 75.6212 14.945 75.276 14.7798C74.9125 14.6147 74.4582 14.5229 73.8949 14.5229C73.3134 14.5229 72.8227 14.6881 72.3866 14.9817C71.9686 15.2569 71.6233 15.6239 71.3689 16.0826V9H70.0969V22.7615H71.3689Z" fill="black"/>
<path d="M85.703 18.7248C85.703 19.5138 85.4304 20.211 84.8853 20.7798C84.3401 21.367 83.6677 21.6606 82.8863 21.6606C82.0867 21.6606 81.4144 21.367 80.8692 20.7798C80.324 20.211 80.0696 19.5138 80.0696 18.7248C80.0696 17.9541 80.324 17.2569 80.8692 16.6697C81.4144 16.0826 82.0867 15.789 82.8863 15.789C83.6677 15.789 84.3401 16.0826 84.8853 16.6697C85.4304 17.2569 85.703 17.9541 85.703 18.7248ZM86.9751 22.7615V14.6881H85.703V16.0826C85.6303 15.9725 85.5395 15.8807 85.4668 15.789C84.7036 14.945 83.7768 14.5046 82.6864 14.5046C81.5779 14.5046 80.6511 14.945 79.8879 15.789C79.161 16.633 78.7976 17.6055 78.7976 18.7248C78.7976 19.8624 79.161 20.8349 79.8879 21.6606C80.6511 22.5229 81.5779 22.945 82.6864 22.945C83.7768 22.945 84.7036 22.5229 85.4668 21.6606C85.5395 21.5872 85.6303 21.4954 85.703 21.3853V22.7615H86.9751Z" fill="black"/>
<path d="M88.7071 11.4404H91.7056V22.7248H92.9776V11.4404H95.9761V10.2477H92.9776H91.7056H88.7071V11.4404Z" fill="black"/>
<path d="M99.4924 16.3578V14.6881C99.238 14.578 98.9654 14.5229 98.6928 14.5229C97.7842 14.5229 97.13 15.0367 96.712 16.0275L96.6575 16.3578V14.6881H95.3855V22.7615H96.6575V18.7248C96.6575 18.0642 96.8029 17.4771 97.1118 16.945C97.2572 16.6697 97.4571 16.4312 97.6933 16.2477C97.9296 16.0642 98.2203 15.9541 98.5474 15.9541C98.8745 15.9541 99.1835 16.1009 99.4924 16.3578Z" fill="black"/>
<path d="M107.389 18.7248C107.389 19.5138 107.117 20.211 106.571 20.7798C106.026 21.367 105.354 21.6606 104.572 21.6606C103.773 21.6606 103.1 21.367 102.555 20.7798C102.01 20.211 101.756 19.5138 101.756 18.7248C101.756 17.9541 102.01 17.2569 102.555 16.6697C103.1 16.0826 103.773 15.789 104.572 15.789C105.354 15.789 106.026 16.0826 106.571 16.6697C107.117 17.2569 107.389 17.9541 107.389 18.7248ZM108.661 22.7615V14.6881H107.389V16.0826C107.316 15.9725 107.226 15.8807 107.153 15.789C106.39 14.945 105.463 14.5046 104.373 14.5046C103.264 14.5046 102.337 14.945 101.574 15.789C100.847 16.633 100.484 17.6055 100.484 18.7248C100.484 19.8624 100.847 20.8349 101.574 21.6606C102.337 22.5229 103.264 22.945 104.373 22.945C105.463 22.945 106.39 22.5229 107.153 21.6606C107.226 21.5872 107.316 21.4954 107.389 21.3853V22.7615H108.661Z" fill="black"/>
<path d="M117.753 18.7248C117.753 19.5138 117.48 20.211 116.935 20.7798C116.39 21.367 115.718 21.6606 114.936 21.6606C114.137 21.6606 113.464 21.367 112.919 20.7798C112.374 20.211 112.12 19.5138 112.12 18.7248C112.12 17.9541 112.374 17.2569 112.919 16.6697C113.464 16.0826 114.137 15.789 114.936 15.789C115.718 15.789 116.39 16.0826 116.935 16.6697C117.48 17.2569 117.753 17.9541 117.753 18.7248ZM119.025 22.7615V9H117.753V16.0826C117.68 15.9725 117.589 15.8807 117.517 15.789C116.754 14.945 115.827 14.5046 114.736 14.5046C113.628 14.5046 112.701 14.945 111.938 15.789C111.211 16.633 110.848 17.6055 110.848 18.7248C110.848 19.8624 111.211 20.8349 111.938 21.6606C112.701 22.5229 113.628 22.945 114.736 22.945C115.827 22.945 116.754 22.5229 117.517 21.6606C117.589 21.5872 117.68 21.4954 117.753 21.3853V22.7615H119.025Z" fill="black"/>
<path d="M129.571 18.5413C129.571 17.4404 129.135 16.4862 128.299 15.6606C127.481 14.8716 126.5 14.4679 125.391 14.4679C124.228 14.4679 123.247 14.8899 122.429 15.7156C121.611 16.5413 121.211 17.5321 121.211 18.6881C121.211 19.8624 121.611 20.8532 122.429 21.6606C122.811 22.0459 123.247 22.3394 123.756 22.5596C124.264 22.7798 124.864 22.8899 125.573 22.8899C126.282 22.8899 126.972 22.6697 127.663 22.2294C128.353 21.789 128.862 21.1651 129.207 20.3945H127.753C127.463 20.7798 127.117 21.0734 126.699 21.2936C126.282 21.5138 125.845 21.6055 125.391 21.6055C124.701 21.6055 124.083 21.3853 123.537 20.9266C122.992 20.4862 122.647 19.9174 122.538 19.2202H129.571V18.5413ZM128.226 18.1193H122.556C122.629 17.789 122.756 17.4771 122.938 17.1835C123.519 16.2294 124.337 15.7523 125.391 15.7523C126.063 15.7523 126.663 15.9725 127.19 16.4128C127.735 16.8716 128.062 17.4404 128.226 18.1193Z" fill="black"/>
<path d="M20.0555 0C21.9704 3.14199 23.9332 7.29909 24.0529 11.4079C24.0529 11.6495 24.0769 11.8671 24.0769 12.1088C24.0769 16.4834 22.6646 20.5438 20.2948 23.8308C16.7043 28.7855 7.12951 32 0.594727 32" fill="url(#paint0_linear_577_1262)"/>
<path d="M20.0566 0C17.8066 3.11782 16.4182 7.29909 16.2985 11.4079C16.2985 11.6495 16.2746 11.8671 16.2746 12.1088C16.2746 16.4834 17.9262 20.6163 20.296 23.9275C23.8865 28.8822 33.222 32 39.7567 32L20.0566 0Z" fill="url(#paint1_linear_577_1262)"/>
<path d="M24.0781 12.0355C24.126 16.4101 22.7616 20.4706 20.4397 23.7817C20.3918 23.8301 20.3678 23.8784 20.32 23.9509C20.2721 23.9026 20.2482 23.8543 20.2003 23.8059C17.7826 20.5189 16.3225 16.5068 16.2746 12.1322C16.2746 11.8905 16.2746 11.673 16.2746 11.4313C16.3464 7.87842 17.4715 4.25305 19.2189 1.32857C19.2428 1.28024 19.2667 1.2319 19.3146 1.18356C19.554 0.796852 19.7934 0.434314 20.0327 0.0717759C20.0327 0.0476067 20.0567 0.0476067 20.0567 0.0234375L20.7748 1.18356L20.8705 1.32857C22.6658 4.22888 23.8866 7.80592 24.0542 11.3588C24.0542 11.5763 24.0781 11.7938 24.0781 12.0355Z" fill="url(#paint2_linear_577_1262)"/>
<defs>
<linearGradient id="paint0_linear_577_1262" x1="1.92916" y1="36.2285" x2="20.3069" y2="12.2094" gradientUnits="userSpaceOnUse">
<stop stop-color="#00A7FF"/>
<stop offset="0.1694" stop-color="#059AF4"/>
<stop offset="0.4821" stop-color="#1178D8"/>
<stop offset="0.5614" stop-color="#156ED0"/>
<stop offset="1" stop-color="#214CB4"/>
</linearGradient>
<linearGradient id="paint1_linear_577_1262" x1="17.1332" y1="18.944" x2="41.7178" y2="13.3869" gradientUnits="userSpaceOnUse">
<stop offset="0.00105447" stop-color="#00A7FF"/>
<stop offset="0.1116" stop-color="#02A1FA"/>
<stop offset="0.2535" stop-color="#0891ED"/>
<stop offset="0.4119" stop-color="#1277D8"/>
<stop offset="0.4587" stop-color="#156ED0"/>
<stop offset="0.7356" stop-color="#214CB4"/>
</linearGradient>
<linearGradient id="paint2_linear_577_1262" x1="15.3778" y1="12.3976" x2="45.847" y2="9.70369" gradientUnits="userSpaceOnUse">
<stop stop-color="#00A7FF"/>
<stop offset="0.0663541" stop-color="#039FF8"/>
<stop offset="0.1693" stop-color="#0B89E6"/>
<stop offset="0.2675" stop-color="#156ED0"/>
<stop offset="1" stop-color="#214CB4"/>
</linearGradient>
</defs>
</svg>
