<svg width="623" height="546" viewBox="0 0 623 546" fill="none" xmlns="http://www.w3.org/2000/svg">
<path d="M12.9419 5.38491L8.96657 15.6863L5.12204 5.42786L2.04209 5.44478L1.96695 19.3846L4.10692 19.3728L4.1661 8.39298L7.91333 18.152L9.9933 18.1405L13.866 8.3397L13.8068 19.3195L15.9467 19.3078L16.0219 5.36799L12.9419 5.38491ZM23.0937 9.22897C21.3337 9.23864 19.9301 9.92632 18.7826 11.3326L20.2758 12.5843C21.0212 11.5603 21.984 11.035 23.064 11.0291C24.364 11.0219 25.1399 11.7776 25.133 13.0576L25.1312 13.3976L22.8312 13.4102C21.4312 13.4179 20.5104 13.583 19.8285 13.9267C18.9462 14.3715 18.4617 15.2142 18.4556 16.3341C18.4455 18.2141 19.8387 19.4664 21.9386 19.4549C23.3386 19.4472 24.4817 18.8609 25.1271 17.8574L25.2796 19.2565L27.1595 19.2462L27.193 13.0463C27.2059 10.6463 25.6537 9.21491 23.0937 9.22897ZM22.328 17.7128C21.208 17.719 20.5109 17.2028 20.5154 16.3628C20.5176 15.9428 20.6595 15.6021 20.9605 15.4004C21.3422 15.0983 21.9227 14.9951 23.0627 14.9889L25.1226 14.9776L25.1224 15.0176C25.114 16.5775 23.928 17.704 22.328 17.7128ZM34.819 9.16457C33.739 9.1705 32.596 9.73675 32.0893 10.9795L32.0981 9.3595L30.0181 9.37093L29.965 19.2308L32.0249 19.2195L32.0526 14.0795C32.0632 12.1196 32.9285 11.1349 34.4085 11.1267C34.8684 11.1242 35.2478 11.2421 35.6266 11.46L36.6363 9.65456C36.0382 9.29786 35.459 9.16105 34.819 9.16457ZM41.1128 17.7696C39.8138 17.5968 38.735 17.3827 38.7393 16.5827C38.7409 16.2827 38.8821 16.0619 39.143 15.9005C39.7216 16.1573 40.3607 16.3138 41.0807 16.3099C43.2206 16.2981 44.9881 14.9085 44.9996 12.7685C45.0032 12.1085 44.8464 11.5094 44.5492 10.991L45.9553 9.84336L44.8825 8.52931L43.4157 9.79732C42.7581 9.36095 41.9394 9.12545 41.0594 9.13029C38.8794 9.14226 37.1116 10.6119 37.1004 12.6919C37.0957 13.5519 37.3915 14.3302 37.9082 14.9473C37.2656 15.4309 36.9223 16.0527 36.9177 16.8927C36.9122 17.9127 37.409 18.5099 38.1269 18.886L36.6413 19.9341C36.6208 20.0342 36.6003 20.1343 36.599 20.3743C36.5882 22.3743 38.2423 23.4451 41.1223 23.4293C43.7223 23.415 45.5669 22.5449 45.5777 20.545C45.5899 18.265 43.0913 18.0387 41.1128 17.7696ZM41.0901 10.85C42.2301 10.8438 42.9461 11.5798 42.94 12.7198C42.9341 13.7998 42.2898 14.6033 41.0498 14.6101C39.8099 14.6169 39.1343 13.8007 39.14 12.7407C39.146 11.6207 39.9301 10.8564 41.0901 10.85ZM41.2108 21.8489C39.9108 21.856 38.6326 21.5431 38.6381 20.5231C38.6383 20.4831 38.6386 20.4231 38.659 20.343L39.6643 19.3575C40.004 19.4156 40.3437 19.4738 40.6634 19.512C42.1622 19.7238 43.5216 19.8363 43.5167 20.7363C43.5125 21.5163 42.4708 21.842 41.2108 21.8489ZM47.7412 7.35366L49.9411 7.34158L49.9528 5.18161L47.7528 5.19369L47.7412 7.35366ZM47.7577 19.1331L49.8176 19.1217L49.8708 9.26188L47.8108 9.2732L47.7577 19.1331ZM58.0883 9.03675C56.8084 9.04378 55.6859 9.50993 55.0008 10.4536L55.0074 9.23367L52.9475 9.24498L52.8943 19.1048L54.9543 19.0935L54.9764 14.9936C54.9877 12.8936 55.3587 10.8517 57.4787 10.84C59.1786 10.8307 59.3914 12.1695 59.3851 13.3294L59.3542 19.0694L61.4142 19.058L61.4479 12.7981C61.461 10.3782 60.2683 9.02478 58.0883 9.03675ZM67.3398 19.2055C69.2198 19.1952 71.0852 18.185 71.097 15.985C71.1166 12.345 65.7709 13.4544 65.7805 11.6744C65.7837 11.0744 66.366 10.6512 67.286 10.6462C68.426 10.6399 69.0426 11.2565 69.4188 11.9544L71.0235 11.0656C70.3109 9.70958 69.0349 8.97662 67.3749 8.98574C65.435 8.9964 63.8296 10.0052 63.8197 11.8451C63.8003 15.4451 69.0871 14.1361 69.0764 16.1161C69.0726 16.8161 68.4492 17.4595 67.2692 17.4659C65.8692 17.4736 65.214 16.5973 64.9184 15.7789L63.2544 16.528C63.7261 18.0654 65.2999 19.2167 67.3398 19.2055Z" fill="#202020"/>
<path d="M28.8527 62.9479C28.1647 62.9517 27.3797 63.148 26.6725 63.7439L27.2492 60.6368L32.0332 60.6106L32.0402 59.2986L26.1203 59.3311L25.0491 65.1287L26.4072 65.4732C26.9072 64.7345 27.6458 64.2345 28.6858 64.2288C30.2218 64.2203 31.0638 65.3197 31.0567 66.6477C31.0492 68.0236 30.1145 69.2767 28.5466 69.2853C27.1386 69.2931 26.2479 68.322 26.0463 67.1232L24.7011 67.3545C24.9953 69.1768 26.4914 70.6246 28.5554 70.6132C30.8274 70.6007 32.5013 68.7516 32.5126 66.6397C32.5237 64.5917 30.9967 62.9361 28.8527 62.9479ZM33.472 70.4422L35.168 70.4329L37.2322 67.3977L39.2639 70.4104L40.9599 70.4011L38.1332 66.4648L40.9864 62.5133L39.3064 62.5225L37.2424 65.5097L35.1945 62.5451L33.5145 62.5543L36.3252 66.4747L33.472 70.4422Z" fill="#505050"/>
<path d="M58.0069 63.8955L622.007 63.8955" stroke="#CBCBCB" stroke-opacity="0.6" stroke-linecap="round" stroke-dasharray="6 6"/>
<path d="M31.1365 155.092L31.1753 147.908L29.9273 147.915L24.2862 155.593L24.2815 156.457L29.7534 156.427L29.7392 159.067L31.1152 159.06L31.1294 156.42L32.9214 156.41L32.9285 155.082L31.1365 155.092ZM26.0806 155.119L29.7884 149.931L29.7606 155.099L26.0806 155.119ZM33.471 159.047L35.167 159.037L37.2312 156.002L39.2629 159.015L40.9589 159.006L38.1322 155.069L40.9854 151.118L39.3054 151.127L37.2414 154.114L35.1935 151.15L33.5135 151.159L36.3243 155.079L33.471 159.047Z" fill="#505050"/>
<path d="M58.006 152.599L622.006 152.599" stroke="#CBCBCB" stroke-opacity="0.6" stroke-linecap="round" stroke-dasharray="6 6"/>
<path d="M28.5063 247.234C30.6823 247.222 32.4967 246.012 32.5084 243.852C32.5165 242.348 31.6259 241.361 30.3794 241.08C31.2453 240.723 31.938 239.839 31.9444 238.655C31.9544 236.799 30.3601 235.752 28.5682 235.762C26.6482 235.773 25.1218 236.981 25.1111 238.965L26.4545 239.054C26.4773 237.806 27.3451 237.081 28.6091 237.074C29.6971 237.068 30.5741 237.623 30.5675 238.839C30.5609 240.055 29.6138 240.652 28.0138 240.661L28.0078 241.781C29.3677 241.773 31.1427 241.956 31.1332 243.716C31.1254 245.156 29.9854 245.914 28.5454 245.922C26.9934 245.93 25.894 245.088 25.902 243.616L24.5415 243.704C24.529 246.024 26.2824 247.246 28.5063 247.234ZM33.471 247.047L35.167 247.037L37.2312 244.002L39.2629 247.015L40.9589 247.006L38.1322 243.069L40.9854 239.118L39.3054 239.127L37.2414 242.114L35.1935 239.15L33.5135 239.159L36.3243 243.079L33.471 247.047Z" fill="#505050"/>
<path d="M58.006 240.599L622.006 240.599" stroke="#CBCBCB" stroke-opacity="0.6" stroke-linecap="round" stroke-dasharray="6 6"/>
<path d="M27.0422 333.786C29.5786 332.204 31.9911 329.871 32.0058 327.151C32.0172 325.023 30.6321 323.751 28.6322 323.762C26.2642 323.775 24.9586 325.574 24.947 327.718L26.3065 327.806C26.3465 326.318 27.009 325.099 28.609 325.09C29.937 325.083 30.6204 325.927 30.6136 327.191C30.5982 330.039 27.1298 332.378 24.7218 333.879L24.7153 335.095L32.4591 335.052L32.4661 333.756L27.0422 333.786ZM33.471 335.047L35.167 335.037L37.2312 332.002L39.2629 335.015L40.9589 335.006L38.1322 331.069L40.9854 327.118L39.3054 327.127L37.2414 330.114L35.1935 327.15L33.5135 327.159L36.3243 331.079L33.471 335.047Z" fill="#505050"/>
<path d="M58.006 328.599H622.006" stroke="#CBCBCB" stroke-opacity="0.6" stroke-linecap="round" stroke-dasharray="6 6"/>
<path d="M28.7273 411.921L28.7227 412.769C28.719 413.457 28.3497 413.699 27.7258 413.703L25.9978 413.712L25.991 414.976L28.7109 414.961L28.6672 423.073L30.0432 423.066L30.1033 411.914L28.7273 411.921ZM33.471 423.047L35.167 423.037L37.2312 420.002L39.2629 423.015L40.9589 423.006L38.1322 419.069L40.9854 415.118L39.3054 415.127L37.2414 418.114L35.1935 415.15L33.5135 415.159L36.3243 419.079L33.471 423.047Z" fill="#505050"/>
<path d="M58.006 416.599H622.006" stroke="#CBCBCB" stroke-opacity="0.6" stroke-linecap="round" stroke-dasharray="6 6"/>
<path d="M28.6663 511.233C31.3703 511.218 32.2331 508.462 32.2491 505.502C32.265 502.542 31.4001 499.747 28.6162 499.762C25.5602 499.779 25.0471 502.965 25.0333 505.525C25.0195 508.085 25.5304 511.25 28.6663 511.233ZM28.6414 509.921C26.6894 509.932 26.4295 507.694 26.4412 505.518C26.4532 503.294 26.7371 501.084 28.6091 501.074C30.4491 501.064 30.7739 503.142 30.7612 505.494C30.7489 507.766 30.4174 509.912 28.6414 509.921ZM33.471 511.047L35.167 511.037L37.2312 508.002L39.2629 511.015L40.9589 511.006L38.1322 507.069L40.9854 503.118L39.3054 503.127L37.2414 506.114L35.1935 503.15L33.5135 503.159L36.3243 507.079L33.471 511.047Z" fill="#505050"/>
<path d="M58.006 504.599H622.006" stroke="#CBCBCB" stroke-opacity="0.6" stroke-linecap="round" stroke-dasharray="6 6"/>
<path d="M491.758 368.919V506" stroke="#27343C" stroke-width="2.8347" stroke-miterlimit="10" stroke-linecap="round" stroke-linejoin="round"/>
<path d="M458.01 425.282C458.01 425.282 472.275 454.334 491.237 444.07C490.367 422.499 458.01 425.282 458.01 425.282Z" fill="#27343C"/>
<path d="M180.657 540.605L183.465 540.59L177.028 523.898L175.036 523.909L168.418 540.673L171.202 540.657L172.614 536.858L179.31 536.821L180.657 540.605ZM173.467 534.525L176.024 527.647L178.483 534.498L173.467 534.525ZM189.35 540.774C191.606 540.761 193.844 539.549 193.858 536.909C193.882 532.541 187.467 533.872 187.478 531.736C187.482 531.016 188.181 530.508 189.285 530.502C190.653 530.495 191.393 531.235 191.844 532.072L193.77 531.006C192.915 529.379 191.384 528.499 189.392 528.51C187.064 528.523 185.137 529.733 185.125 531.941C185.102 536.261 191.446 534.69 191.434 537.066C191.429 537.906 190.681 538.678 189.265 538.686C187.585 538.695 186.799 537.644 186.444 536.662L184.447 537.561C185.013 539.406 186.902 540.787 189.35 540.774ZM202.421 538.35C201.892 538.521 201.411 538.619 201.003 538.622C200.067 538.627 199.518 538.15 199.523 537.142L199.558 530.662L202.462 530.646L202.473 528.654L199.569 528.67L199.593 524.278L197.111 526.14L197.097 528.684L195.153 528.694L195.142 530.686L197.086 530.676L197.05 537.371C197.037 539.747 198.52 540.723 200.392 540.713C201.04 540.709 201.737 540.586 202.434 540.366L202.421 538.35ZM211.013 528.391C209.405 528.4 208.106 529.007 207.332 530.091L207.366 523.731L204.894 523.745L204.804 540.473L207.276 540.459L207.303 535.491C207.321 532.131 208.265 530.566 210.281 530.555C211.865 530.546 212.604 531.478 212.593 533.542L212.556 540.43L215.028 540.417L215.068 532.905C215.084 529.977 213.653 528.377 211.013 528.391ZM222.948 528.326C220.836 528.337 219.152 529.162 217.775 530.85L219.567 532.352C220.461 531.123 221.617 530.493 222.913 530.486C224.473 530.477 225.404 531.384 225.395 532.92L225.393 533.328L222.633 533.343C220.953 533.352 219.848 533.55 219.03 533.963C217.971 534.497 217.39 535.508 217.383 536.852C217.37 539.108 219.042 540.611 221.562 540.597C223.242 540.587 224.614 539.884 225.388 538.68L225.571 540.359L227.827 540.346L227.867 532.906C227.883 530.026 226.02 528.309 222.948 528.326ZM222.029 538.506C220.685 538.514 219.849 537.894 219.854 536.886C219.857 536.382 220.027 535.973 220.388 535.731C220.846 535.369 221.543 535.245 222.911 535.238L225.383 535.224L225.383 535.272C225.373 537.144 223.949 538.496 222.029 538.506ZM235.154 540.306L237.746 540.292L237.823 525.94L243.247 525.91L243.26 523.534L229.844 523.608L229.831 525.984L235.231 525.954L235.154 540.306ZM249.581 528.179C248.285 528.186 246.913 528.866 246.305 530.357L246.316 528.413L243.82 528.427L243.756 540.259L246.228 540.245L246.261 534.077C246.274 531.725 247.312 530.544 249.088 530.534C249.64 530.531 250.095 530.672 250.55 530.934L251.762 528.767C251.044 528.339 250.349 528.175 249.581 528.179ZM258.034 528.133C255.922 528.144 254.237 528.97 252.86 530.657L254.652 532.159C255.547 530.93 256.702 530.3 257.998 530.293C259.558 530.284 260.489 531.191 260.481 532.727L260.479 533.135L257.719 533.15C256.039 533.16 254.934 533.358 254.115 533.77C253.057 534.304 252.475 535.315 252.468 536.659C252.456 538.915 254.128 540.418 256.648 540.404C258.328 540.395 259.699 539.691 260.474 538.487L260.657 540.166L262.913 540.154L262.953 532.714C262.968 529.834 261.106 528.116 258.034 528.133ZM257.115 538.313C255.771 538.321 254.934 537.701 254.94 536.694C254.942 536.19 255.113 535.781 255.474 535.539C255.932 535.176 256.628 535.052 257.996 535.045L260.468 535.031L260.468 535.079C260.458 536.951 259.035 538.303 257.115 538.313ZM274.074 523.365L274.04 529.581C273.301 528.625 271.937 528.033 270.473 528.041C267.449 528.057 265.396 530.396 265.376 534.212C265.357 537.764 267.119 540.346 270.407 540.328C271.823 540.321 273.169 539.833 273.991 538.773L273.984 540.093L276.456 540.079L276.546 523.351L274.074 523.365ZM270.971 538.069C268.859 538.081 267.835 536.575 267.848 534.223C267.861 531.799 268.949 530.281 271.037 530.269C273.197 530.258 274.268 531.932 274.255 534.188C274.244 536.395 273.203 538.057 270.971 538.069ZM290.075 533.789C290.091 530.693 288.426 527.966 284.754 527.986C280.986 528.007 279.242 531.04 279.225 534.208C279.208 537.448 280.968 540.27 284.88 540.249C286.824 540.238 288.316 539.606 289.667 538.135L287.947 536.656C287.054 537.669 286.068 538.01 284.916 538.017C282.9 538.028 281.779 536.81 281.693 534.915L289.997 534.869C290.047 534.509 290.073 534.149 290.075 533.789ZM281.704 532.923C281.88 531.458 282.847 530.061 284.743 530.05C286.495 530.04 287.665 531.162 287.704 532.842L287.704 532.89L281.704 532.923Z" fill="#202020"/>
<path d="M396.784 541.055L399.352 541.041L399.442 524.313L396.874 524.327L396.784 541.055ZM409.732 528.936C408.196 528.945 406.849 529.504 406.027 530.637L406.035 529.173L403.563 529.186L403.499 541.018L405.971 541.004L405.998 536.084C406.011 533.564 406.457 531.114 409.001 531.1C411.04 531.089 411.296 532.696 411.288 534.087L411.251 540.975L413.723 540.962L413.764 533.45C413.779 530.546 412.348 528.922 409.732 528.936ZM424.981 524.173L424.948 530.389C424.209 529.433 422.844 528.84 421.38 528.848C418.356 528.865 416.304 531.204 416.283 535.02C416.264 538.572 418.026 541.154 421.314 541.136C422.73 541.128 424.076 540.641 424.898 539.58L424.891 540.9L427.363 540.887L427.453 524.159L424.981 524.173ZM421.878 538.877C419.766 538.889 418.742 537.382 418.755 535.03C418.768 532.606 419.856 531.089 421.944 531.077C424.104 531.065 425.175 532.739 425.163 534.995C425.151 537.203 424.11 538.865 421.878 538.877ZM438.542 528.994L438.516 533.794C438.503 536.242 438.105 538.884 435.537 538.898C433.329 538.91 433.22 536.943 433.226 535.743L433.262 529.023L430.79 529.037L430.751 536.38C430.736 539.044 431.949 541.078 434.829 541.062C436.269 541.054 437.64 540.518 438.486 539.338L438.478 540.826L440.95 540.812L441.014 528.98L438.542 528.994ZM448.326 540.988C450.582 540.975 452.82 539.763 452.834 537.123C452.858 532.755 446.443 534.086 446.455 531.95C446.458 531.23 447.157 530.723 448.261 530.717C449.629 530.709 450.369 531.449 450.82 532.286L452.746 531.22C451.891 529.593 450.36 528.713 448.368 528.724C446.04 528.737 444.113 529.947 444.102 532.155C444.078 536.475 450.422 534.904 450.41 537.28C450.405 538.12 449.657 538.893 448.241 538.9C446.561 538.91 445.775 537.858 445.42 536.876L443.423 537.775C443.989 539.62 445.878 541.001 448.326 540.988ZM461.397 538.564C460.868 538.735 460.387 538.834 459.979 538.836C459.043 538.841 458.494 538.364 458.499 537.356L458.534 530.876L461.438 530.86L461.449 528.868L458.545 528.884L458.569 524.492L456.087 526.354L456.073 528.898L454.129 528.908L454.118 530.9L456.062 530.89L456.026 537.586C456.013 539.962 457.496 540.937 459.368 540.927C460.016 540.924 460.713 540.8 461.41 540.58L461.397 538.564ZM469.769 528.606C468.473 528.614 467.101 529.293 466.493 530.784L466.503 528.84L464.007 528.854L463.944 540.686L466.416 540.672L466.449 534.504C466.462 532.152 467.5 530.971 469.276 530.961C469.828 530.958 470.283 531.1 470.738 531.361L471.949 529.194C471.232 528.766 470.537 528.602 469.769 528.606ZM475.048 545.521L477.712 545.506L484.45 528.742L481.738 528.757L478.475 537.486L475.162 528.793L472.45 528.808L477.14 540.349L475.048 545.521ZM497.507 540.79C500.939 540.771 503.181 538.79 503.198 535.767C503.21 533.415 502.089 532.125 498.473 530.753C495.91 529.783 495.002 529.092 495.009 527.844C495.015 526.692 496.028 525.75 497.42 525.743C498.644 525.736 499.72 526.426 500.337 527.695L502.48 526.363C501.459 524.425 499.712 523.45 497.504 523.462C494.48 523.479 492.455 525.266 492.44 527.93C492.428 530.282 493.645 531.523 497.094 532.824C499.728 533.842 500.636 534.629 500.628 535.997C500.62 537.509 499.487 538.499 497.567 538.509C495.503 538.521 494.094 537.304 493.865 535.266L491.293 535.904C491.757 538.877 494.243 540.808 497.507 540.79ZM511.763 538.287C511.234 538.458 510.754 538.557 510.346 538.559C509.41 538.564 508.86 538.087 508.866 537.079L508.901 530.599L511.805 530.583L511.815 528.592L508.911 528.607L508.935 524.216L506.453 526.077L506.439 528.621L504.495 528.632L504.485 530.624L506.429 530.613L506.393 537.309C506.38 539.685 507.862 540.661 509.734 540.65C510.382 540.647 511.079 540.523 511.776 540.303L511.763 538.287ZM519.025 528.336C516.913 528.348 515.229 529.173 513.852 530.86L515.644 532.362C516.538 531.133 517.694 530.503 518.99 530.496C520.55 530.487 521.481 531.394 521.472 532.93L521.47 533.338L518.71 533.353C517.03 533.363 515.925 533.561 515.107 533.973C514.048 534.507 513.467 535.518 513.46 536.862C513.447 539.118 515.119 540.621 517.639 540.607C519.319 540.598 520.691 539.894 521.465 538.69L521.648 540.369L523.904 540.357L523.944 532.917C523.96 530.037 522.097 528.319 519.025 528.336ZM518.107 538.517C516.763 538.524 515.926 537.905 515.931 536.897C515.934 536.393 516.104 535.984 516.466 535.742C516.923 535.379 517.62 535.255 518.988 535.248L521.46 535.234L521.46 535.282C521.45 537.154 520.027 538.506 518.107 538.517ZM533.504 528.256C531.968 528.265 530.621 528.824 529.799 529.957L529.807 528.493L527.335 528.506L527.271 540.338L529.743 540.325L529.769 535.405C529.783 532.885 530.228 530.434 532.772 530.42C534.812 530.409 535.067 532.016 535.06 533.408L535.023 540.296L537.495 540.282L537.535 532.77C537.551 529.866 536.12 528.242 533.504 528.256ZM548.753 523.493L548.719 529.709C547.98 528.753 546.616 528.16 545.152 528.168C542.128 528.185 540.075 530.524 540.055 534.34C540.036 537.892 541.798 540.474 545.085 540.456C546.501 540.448 547.848 539.961 548.67 538.901L548.663 540.221L551.135 540.207L551.225 523.479L548.753 523.493ZM545.65 538.197C543.538 538.209 542.514 536.703 542.527 534.351C542.54 531.927 543.628 530.409 545.716 530.397C547.876 530.385 548.947 532.059 548.934 534.315C548.923 536.523 547.882 538.185 545.65 538.197ZM559.29 528.115C557.178 528.126 555.494 528.952 554.117 530.639L555.909 532.141C556.803 530.912 557.959 530.282 559.255 530.275C560.815 530.266 561.746 531.173 561.738 532.709L561.735 533.117L558.975 533.132C557.295 533.141 556.19 533.34 555.372 533.752C554.313 534.286 553.732 535.297 553.725 536.641C553.713 538.897 555.384 540.4 557.904 540.386C559.584 540.377 560.956 539.673 561.73 538.469L561.913 540.148L564.169 540.135L564.209 532.696C564.225 529.816 562.362 528.098 559.29 528.115ZM558.372 538.295C557.028 538.303 556.191 537.683 556.196 536.675C556.199 536.171 556.369 535.762 556.731 535.52C557.189 535.158 557.885 535.034 559.253 535.027L561.725 535.013L561.725 535.061C561.715 536.933 560.292 538.285 558.372 538.295ZM573.361 528.037C572.065 528.045 570.693 528.724 570.085 530.215L570.096 528.271L567.6 528.285L567.536 540.117L570.008 540.103L570.041 533.935C570.054 531.583 571.092 530.402 572.868 530.392C573.42 530.389 573.875 530.531 574.33 530.792L575.541 528.625C574.824 528.197 574.129 528.033 573.361 528.037ZM584.33 523.297L584.297 529.513C583.558 528.557 582.193 527.965 580.729 527.973C577.705 527.99 575.653 530.329 575.632 534.145C575.613 537.697 577.375 540.279 580.663 540.261C582.079 540.253 583.426 539.766 584.247 538.705L584.24 540.025L586.712 540.012L586.802 523.284L584.33 523.297ZM581.227 538.002C579.115 538.013 578.091 536.507 578.104 534.155C578.117 531.731 579.205 530.213 581.293 530.202C583.453 530.19 584.524 531.864 584.512 534.12C584.5 536.328 583.459 537.99 581.227 538.002Z" fill="#202020"/>
<path d="M229.686 193.491V503.999" stroke="#27343C" stroke-width="2.8347" stroke-miterlimit="10" stroke-linecap="round" stroke-linejoin="round"/>
<path d="M246.548 66.4164C286.485 75.7038 311.332 115.608 302.045 155.546C292.757 195.484 252.853 220.331 212.915 211.043C172.978 201.756 148.131 161.851 157.418 121.914C166.705 81.976 206.61 57.1291 246.548 66.4164Z" fill="white" stroke="#27343C"/>
<path d="M299.674 139.086C299.674 177.517 268.519 208.672 230.088 208.672C191.656 208.672 160.501 177.517 160.501 139.086C160.501 100.655 191.656 69.4998 230.088 69.4998C268.519 69.4998 299.674 100.655 299.674 139.086Z" fill="white" stroke="#27343C"/>
<path d="M229.686 70.8405C268.056 70.8405 299.107 101.67 299.772 139.818C299.772 139.374 299.772 139.152 299.772 138.709C299.772 100.117 268.5 68.6226 229.686 68.6226C191.095 68.6226 159.6 99.8952 159.6 138.709C159.6 139.152 159.6 139.374 159.6 139.818C160.266 101.67 191.538 70.8405 229.686 70.8405Z" fill="#27343C"/>
<path d="M240.46 114.768H249.997C254.612 114.153 257.074 105.846 257.074 105.846H209.693L202.001 114.768H223.538C223.538 114.768 226.922 116.614 229.384 119.691H208.155L202.309 128.305H230.614C230.307 128.921 230.307 129.228 229.999 129.844C225.692 137.535 206.001 135.382 206.001 135.382V145.227L233.691 172.917H247.844L220.461 142.766C234.922 141.535 240.152 134.766 241.383 128.305H249.69C253.997 126.767 256.151 119.691 256.151 119.691H241.69C241.383 116.614 240.46 114.768 240.46 114.768Z" fill="#27343C"/>
<path d="M240.46 112.922H249.997C254.612 112.307 257.074 104 257.074 104H209.693L202.001 112.922H223.538C223.538 112.922 226.922 114.768 229.384 117.845H208.155L202.309 126.46H230.614C230.307 127.075 230.307 127.383 229.999 127.998C225.692 135.69 206.001 133.536 206.001 133.536V143.381L233.691 171.071H247.844L221.077 140.612C235.537 139.382 240.767 132.613 241.998 126.152H250.305C254.612 124.614 256.766 117.537 256.766 117.537H242.306C241.383 115.076 240.46 112.922 240.46 112.922Z" fill="#FFC676"/>
<g opacity="0.2">
<path opacity="0.2" d="M283.582 93.9072L190.207 196.375C192.203 197.706 194.2 198.815 196.196 200.145L287.796 99.6738C286.465 97.6777 285.134 95.9034 283.582 93.9072Z" fill="white"/>
</g>
<path d="M504.557 266.656C533.189 273.315 551.003 301.924 544.344 330.556C537.686 359.189 509.077 377.002 480.444 370.344C451.812 363.685 433.998 335.076 440.657 306.444C447.315 277.811 475.924 259.998 504.557 266.656Z" fill="white" stroke="#27343C"/>
<path d="M542.636 318.756C542.636 346.304 520.304 368.636 492.757 368.636C465.209 368.636 442.877 346.304 442.877 318.756C442.877 291.209 465.209 268.877 492.757 268.877C520.304 268.877 542.636 291.209 542.636 318.756Z" fill="white" stroke="#27343C"/>
<path d="M492.468 269.7C520.049 269.7 542.369 291.861 542.848 319.282C542.848 318.964 542.848 318.804 542.848 318.485C542.848 290.745 520.368 268.106 492.468 268.106C464.727 268.106 442.088 290.585 442.088 318.485C442.088 318.804 442.088 318.964 442.088 319.282C442.567 291.861 465.046 269.7 492.468 269.7Z" fill="#27343C"/>
<path d="M500.212 301.276H507.068C510.385 300.834 512.154 294.862 512.154 294.862H478.096L472.567 301.276H488.048C488.048 301.276 490.481 302.603 492.25 304.814H476.99L472.788 311.007H493.135C492.914 311.449 492.914 311.67 492.693 312.113C489.596 317.642 475.442 316.093 475.442 316.093V323.171L495.346 343.075H505.52L485.837 321.401C496.231 320.517 499.991 315.651 500.875 311.007H506.847C509.943 309.901 511.491 304.814 511.491 304.814H501.097C500.875 302.603 500.212 301.276 500.212 301.276Z" fill="#27343C"/>
<path d="M500.212 299.949H507.068C510.386 299.507 512.155 293.536 512.155 293.536H478.096L472.568 299.949H488.049C488.049 299.949 490.481 301.276 492.251 303.488H476.991L472.789 309.68H493.135C492.914 310.122 492.914 310.344 492.693 310.786C489.597 316.315 475.443 314.767 475.443 314.767V321.844L495.347 341.748H505.52L486.279 319.853C496.674 318.969 500.433 314.103 501.318 309.459H507.289C510.386 308.353 511.934 303.267 511.934 303.267H501.539C500.876 301.497 500.212 299.949 500.212 299.949Z" fill="#FFC676"/>
<g opacity="0.2">
<path opacity="0.2" d="M531.209 286.281L464.09 359.937C465.525 360.893 466.959 361.69 468.394 362.647L534.239 290.426C533.282 288.991 532.325 287.715 531.209 286.281Z" fill="white"/>
</g>
<path d="M296.43 403.583C296.219 404.017 295.905 404.648 295.491 405.445C294.66 407.047 293.428 409.314 291.826 411.972C288.622 417.291 283.943 424.162 278.043 430.392C272.14 436.626 265.04 442.193 256.994 444.943C249.044 447.661 240.145 447.639 230.508 442.744C230.8 431.957 235.028 424.141 241.213 418.462C247.473 412.716 255.76 409.14 264.063 406.933C272.362 404.728 280.64 403.899 286.85 403.623C289.953 403.485 292.536 403.485 294.343 403.519C295.241 403.536 295.948 403.562 296.43 403.583Z" fill="#27343C" stroke="#27343C"/>
<path d="M163.538 378.568C163.123 377.772 162.807 377.14 162.594 376.707C163.076 376.686 163.781 376.66 164.679 376.643C166.485 376.608 169.068 376.607 172.172 376.743C178.381 377.016 186.66 377.838 194.959 380.03C203.262 382.223 211.549 385.778 217.809 391.494C223.994 397.142 228.221 404.917 228.513 415.648C218.93 420.597 210.059 420.66 202.119 417.973C194.084 415.254 186.977 409.708 181.06 403.488C175.146 397.271 170.447 390.407 167.225 385.092C165.615 382.436 164.375 380.169 163.538 378.568Z" fill="#27343C" stroke="#27343C"/>
<path d="M274.044 232.083C274.044 232.083 255.857 269.122 231.682 256.036C232.791 228.534 274.044 232.083 274.044 232.083Z" fill="#27343C"/>
</svg>
