<svg width="72" height="72" viewBox="0 0 72 72" fill="none" xmlns="http://www.w3.org/2000/svg">
<circle cx="36" cy="36" r="36" fill="#00A7FF" fill-opacity="0.08"/>
<path d="M47.1345 31.7275H24.8636C23.2848 31.7275 22 33.0123 22 34.5911V46.6811C22 48.2599 23.2848 49.5447 24.8636 49.5447H47.1364C48.7152 49.5447 50 48.2599 50 46.6811V34.5911C49.9981 33.0123 48.7133 31.7275 47.1345 31.7275ZM28.044 41.5897H26.7707C26.2438 41.5897 25.8162 41.1621 25.8162 40.6352C25.8162 40.1083 26.2438 39.6806 26.7707 39.6806H28.044C28.5709 39.6806 28.9986 40.1083 28.9986 40.6352C28.9986 41.1621 28.5709 41.5897 28.044 41.5897ZM35.999 45.0909C33.5421 45.0909 31.5452 43.0921 31.5452 40.6371C31.5452 38.182 33.5421 36.1813 35.999 36.1813C38.456 36.1813 40.4529 38.1801 40.4529 40.6352C40.4529 43.0902 38.456 45.0909 35.999 45.0909ZM45.2255 41.5897H43.9521C43.4252 41.5897 42.9976 41.1621 42.9976 40.6352C42.9976 40.1083 43.4252 39.6806 43.9521 39.6806H45.2255C45.7524 39.6806 46.18 40.1083 46.18 40.6352C46.18 41.1621 45.7524 41.5897 45.2255 41.5897Z" fill="#1059D8"/>
<path d="M40.7163 23.1904L36.8982 19.3723C36.4018 18.8759 35.5962 18.8759 35.0979 19.3723L31.2798 23.1904C30.9152 23.555 30.8064 24.101 31.003 24.5782C31.1997 25.0536 31.6636 25.3629 32.179 25.3629H39.8152C40.3306 25.3629 40.7945 25.0536 40.9912 24.5782C41.1897 24.101 41.0809 23.555 40.7163 23.1904Z" fill="#00A7FF"/>
<path d="M35.9991 30.4544C35.2965 30.4544 34.7257 29.8835 34.7257 29.181V21.2279C34.7257 20.5235 35.2965 19.9546 35.9991 19.9546C36.7016 19.9546 37.2724 20.5254 37.2724 21.2279V29.1829C37.2724 29.8835 36.7016 30.4544 35.9991 30.4544Z" fill="#00A7FF"/>
</svg>
