<svg width="72" height="72" viewBox="0 0 72 72" fill="none" xmlns="http://www.w3.org/2000/svg">
<rect width="72" height="72" rx="36" fill="#00A7FF" fill-opacity="0.08"/>
<path d="M38.9181 34.0828C38.9181 35.6939 37.612 37 36.0009 37C34.3897 37 33.0836 35.6939 33.0836 34.0828C33.0836 32.4716 34.3897 31.1655 36.0009 31.1655C37.612 31.1655 38.9181 32.4716 38.9181 34.0828Z" fill="#00A7FF"/>
<path d="M38.6241 38.1655H33.3741C31.6049 38.1655 30.1664 39.6041 30.1664 41.3733V43.1233C30.1664 43.6061 30.5586 43.9983 31.0414 43.9983H40.9586C41.4418 43.9983 41.8336 43.6061 41.8336 43.1233V41.3733C41.8319 39.6058 40.3934 38.1655 38.6241 38.1655Z" fill="#00A7FF"/>
<path d="M46.5 23H25.5C23.5697 23 22 24.5697 22 26.5V45.1672C22 47.0975 23.5697 48.6672 25.5 48.6672H46.5C48.4303 48.6672 50 47.0975 50 45.1672V26.5C50 24.5697 48.4303 23 46.5 23ZM46.5 46.3328H25.5C24.8561 46.3328 24.3328 45.8094 24.3328 45.1655V28.8328H47.6655V45.1655C47.6672 45.8094 47.1439 46.3328 46.5 46.3328Z" fill="#1059D8"/>
</svg>
