<svg width="72" height="72" viewBox="0 0 72 72" fill="none" xmlns="http://www.w3.org/2000/svg">
<circle cx="36" cy="36" r="36" fill="#00A7FF" fill-opacity="0.08"/>
<path d="M25.5 34.6656C25.2007 34.6656 24.9032 34.5519 24.6757 34.3244C24.2207 33.8694 24.2207 33.1309 24.6757 32.6741L32.7327 24.6171C33.1877 24.1621 33.9262 24.1621 34.383 24.6171C34.838 25.0721 34.838 25.8106 34.383 26.2674L26.326 34.3244C26.0967 34.5519 25.7992 34.6656 25.5 34.6656Z" fill="#00A7FF"/>
<path d="M35.125 28.8328C34.8975 28.8328 34.6735 28.7435 34.5055 28.5773L30.4228 24.4945C30.1725 24.2443 30.0973 23.868 30.2338 23.5408C30.3685 23.2135 30.6888 23 31.0423 23H35.125C35.608 23 36 23.392 36 23.875V27.9578C36 28.3113 35.7865 28.6298 35.4593 28.7663C35.3525 28.81 35.237 28.8328 35.125 28.8328Z" fill="#00A7FF"/>
<path d="M30.1675 39.6233V46.331H23.1675V39.6233C23.1675 38.8183 23.8202 38.1655 24.6252 38.1655H28.708C29.513 38.1655 30.1675 38.8183 30.1675 39.6233Z" fill="#1059D8"/>
<path d="M39.5002 34.9578V46.3328H32.5002V34.9578C32.5002 34.1528 33.153 33.5 33.958 33.5H38.0407C38.8475 33.4983 39.5002 34.1528 39.5002 34.9578Z" fill="#1059D8"/>
<path d="M48.833 30.2905V46.3328H41.833V30.2905C41.833 29.4855 42.4858 28.8328 43.2908 28.8328H47.3753C48.1803 28.8328 48.833 29.4855 48.833 30.2905Z" fill="#1059D8"/>
<path d="M49.125 49.8328H22.875C22.392 49.8328 22 49.4408 22 48.9578C22 48.4748 22.392 48.0828 22.875 48.0828H49.125C49.608 48.0828 50 48.4748 50 48.9578C50 49.4408 49.608 49.8328 49.125 49.8328Z" fill="#00A7FF"/>
</svg>
