<svg width="1120" height="200" viewBox="0 0 1120 200" fill="none" xmlns="http://www.w3.org/2000/svg">
<mask id="mask0_1_813" style="mask-type:alpha" maskUnits="userSpaceOnUse" x="0" y="0" width="1120" height="200">
<rect width="1120" height="200" rx="16" transform="matrix(1 0 0 -1 0 200)" fill="white"/>
</mask>
<g mask="url(#mask0_1_813)">
<mask id="path-2-inside-1_1_813" fill="white">
<path fill-rule="evenodd" clip-rule="evenodd" d="M293.843 44.0899C293.802 43.9802 293.762 43.8703 293.722 43.7602C283.382 15.4185 297.975 -15.9389 326.317 -26.2786C354.586 -36.5917 385.855 -22.0995 396.276 6.09898L293.643 43.5417L293.843 44.0899Z"/>
</mask>
<path d="M293.843 44.0899L295.722 43.4045L291.968 44.7872L293.843 44.0899ZM396.276 6.09898L398.152 5.40571L398.848 7.28954L396.961 7.97785L396.276 6.09898ZM293.643 43.5417L291.764 44.2271L291.079 42.3482L292.958 41.6628L293.643 43.5417ZM295.6 43.0748C295.639 43.181 295.678 43.2869 295.717 43.3926L291.968 44.7872C291.926 44.6735 291.884 44.5597 291.843 44.4457L295.6 43.0748ZM327.003 -24.3997C299.699 -14.4386 285.639 15.7707 295.6 43.0748L291.843 44.4457C281.124 15.0663 296.252 -17.4392 325.632 -28.1574L327.003 -24.3997ZM394.4 6.79224C384.361 -20.3736 354.236 -34.3352 327.003 -24.3997L325.632 -28.1574C354.936 -38.8481 387.35 -23.8253 398.152 5.40571L394.4 6.79224ZM396.961 7.97785L294.328 45.4205L292.958 41.6628L395.59 4.22011L396.961 7.97785ZM295.522 42.8562L295.722 43.4045L291.964 44.7754L291.764 44.2271L295.522 42.8562Z" fill="#214CB4" fill-opacity="0.2" mask="url(#path-2-inside-1_1_813)"/>
<path fill-rule="evenodd" clip-rule="evenodd" d="M37.0366 171.966L73.6368 180.849C76.0391 170.768 69.8403 160.632 59.7593 158.186C49.6783 155.739 39.5229 161.906 37.0366 171.966ZM73.6003 181L73.6355 180.855C73.6297 180.879 73.6239 180.903 73.618 180.927C73.6122 180.952 73.6063 180.976 73.6003 181Z" fill="#00A7FF"/>
<path fill-rule="evenodd" clip-rule="evenodd" d="M834.932 219.327L791.964 159.143C775.453 171.036 771.649 194.051 783.484 210.627C795.319 227.204 818.322 231.081 834.932 219.327ZM792.164 159L792.02 159.103C792.044 159.085 792.068 159.068 792.092 159.051C792.116 159.034 792.14 159.017 792.164 159Z" fill="#FFC676"/>
</g>
</svg>
