<svg width="343" height="252" viewBox="0 0 343 252" fill="none" xmlns="http://www.w3.org/2000/svg">
<mask id="mask0_1_1560" style="mask-type:alpha" maskUnits="userSpaceOnUse" x="0" y="0" width="343" height="252">
<rect width="343" height="252" rx="8" transform="matrix(1 0 0 -1 0 252)" fill="white"/>
</mask>
<g mask="url(#mask0_1_1560)">
<mask id="path-2-inside-1_1_1560" fill="white">
<path fill-rule="evenodd" clip-rule="evenodd" d="M288.019 38.2826C287.989 38.2021 287.959 38.1214 287.93 38.0406C280.237 16.9534 291.095 -6.37757 312.182 -14.0706C333.215 -21.7439 356.48 -10.9612 364.234 10.0193L287.871 37.8779L288.019 38.2826Z"/>
</mask>
<path d="M288.019 38.2826L288.958 37.9398L287.082 38.6311L288.019 38.2826ZM364.234 10.0193L365.172 9.67269L365.52 10.6146L364.576 10.9588L364.234 10.0193ZM287.871 37.8779L286.932 38.2207L286.589 37.2812L287.529 36.9385L287.871 37.8779ZM288.869 37.6978C288.898 37.7767 288.927 37.8554 288.956 37.934L287.082 38.6311C287.051 38.5487 287.021 38.466 286.99 38.3833L288.869 37.6978ZM312.525 -13.1312C291.956 -5.62742 281.365 17.1295 288.869 37.6978L286.99 38.3833C279.108 16.7773 290.233 -7.12772 311.839 -15.0101L312.525 -13.1312ZM363.296 10.366C355.733 -10.0983 333.04 -20.6157 312.525 -13.1312L311.839 -15.0101C333.39 -22.8722 357.227 -11.8242 365.172 9.67269L363.296 10.366ZM364.576 10.9588L288.214 38.8174L287.529 36.9385L363.891 9.07989L364.576 10.9588ZM288.811 37.5352L288.958 37.9398L287.079 38.6253L286.932 38.2207L288.811 37.5352Z" fill="#214CB4" fill-opacity="0.2" mask="url(#path-2-inside-1_1_1560)"/>
<path fill-rule="evenodd" clip-rule="evenodd" d="M153 103.561C153.002 103.554 153.004 103.546 153.006 103.539C153.007 103.531 153.009 103.523 153.011 103.516L153 103.561ZM153.012 103.511C153.901 99.9161 157.529 97.7127 161.131 98.5869C164.733 99.4611 166.948 103.083 166.089 106.685L153.012 103.511Z" fill="#00A7FF"/>
<path fill-rule="evenodd" clip-rule="evenodd" d="M301.166 199.909L320.227 179.49L320.336 179.592C320.315 179.571 320.293 179.551 320.271 179.531C314.633 174.267 305.794 174.571 300.531 180.21C295.28 185.834 295.569 194.641 301.166 199.909Z" fill="#52E9E8"/>
</g>
</svg>
