<svg width="64" height="64" viewBox="0 0 64 64" fill="none" xmlns="http://www.w3.org/2000/svg">
<circle cx="32" cy="32" r="32" fill="#00A7FF" fill-opacity="0.08"/>
<path d="M40.749 28.0005H23.25C22.0095 28.0005 21 29.01 21 30.2505V39.75C21 40.9905 22.0095 42 23.25 42H40.7505C41.991 42 43.0005 40.9905 43.0005 39.75V30.2505C42.999 29.01 41.9895 28.0005 40.749 28.0005ZM25.749 35.7495H24.7485C24.3345 35.7495 23.9985 35.4135 23.9985 34.9995C23.9985 34.5855 24.3345 34.2495 24.7485 34.2495H25.749C26.163 34.2495 26.499 34.5855 26.499 34.9995C26.499 35.4135 26.163 35.7495 25.749 35.7495ZM31.9995 38.5005C30.069 38.5005 28.5 36.93 28.5 35.001C28.5 33.072 30.069 31.5 31.9995 31.5C33.93 31.5 35.499 33.0705 35.499 34.9995C35.499 36.9285 33.93 38.5005 31.9995 38.5005ZM39.249 35.7495H38.2485C37.8345 35.7495 37.4985 35.4135 37.4985 34.9995C37.4985 34.5855 37.8345 34.2495 38.2485 34.2495H39.249C39.663 34.2495 39.999 34.5855 39.999 34.9995C39.999 35.4135 39.663 35.7495 39.249 35.7495Z" fill="#1059D8"/>
<path d="M35.7059 21.2925L32.7059 18.2925C32.3159 17.9025 31.6829 17.9025 31.2914 18.2925L28.2914 21.2925C28.0049 21.579 27.9194 22.008 28.0739 22.383C28.2284 22.7565 28.5929 22.9995 28.9979 22.9995H34.9979C35.4029 22.9995 35.7674 22.7565 35.9219 22.383C36.0779 22.008 35.9924 21.579 35.7059 21.2925Z" fill="#00A7FF"/>
<path d="M31.9993 27C31.4473 27 30.9988 26.5515 30.9988 25.9995V19.7505C30.9988 19.197 31.4473 18.75 31.9993 18.75C32.5513 18.75 32.9998 19.1985 32.9998 19.7505V26.001C32.9998 26.5515 32.5513 27 31.9993 27Z" fill="#00A7FF"/>
</svg>
