<svg width="576" height="424" viewBox="0 0 576 424" fill="none" xmlns="http://www.w3.org/2000/svg">
<rect x="0.5" y="0.5" width="575" height="423" rx="7.5" stroke="#1059D8"/>
<mask id="mask0_1_647" style="mask-type:alpha" maskUnits="userSpaceOnUse" x="0" y="0" width="576" height="424">
<rect width="576" height="424" rx="8" fill="#1059D8"/>
</mask>
<g mask="url(#mask0_1_647)">
<mask id="path-3-inside-1_1_647" fill="white">
<path fill-rule="evenodd" clip-rule="evenodd" d="M449.233 -70C449.178 -69.8503 449.123 -69.7003 449.068 -69.5502C429.7 -16.4626 457.036 42.2739 510.123 61.6413C563.075 80.9591 621.646 53.8135 641.165 0.99441L448.92 -69.1408L449.233 -70Z"/>
</mask>
<path d="M449.233 -70L451.112 -69.3145L447.357 -70.6941L449.233 -70ZM641.165 0.99441L643.041 1.68768L643.737 -0.196147L641.85 -0.884461L641.165 0.99441ZM448.92 -69.1408L447.041 -69.8263L446.355 -67.9474L448.234 -67.2619L448.92 -69.1408ZM450.947 -68.8647C451 -69.012 451.054 -69.1591 451.109 -69.3059L447.357 -70.6941C447.301 -70.5415 447.245 -70.3886 447.189 -70.2356L450.947 -68.8647ZM510.809 59.7625C458.759 40.7735 431.958 -16.8148 450.947 -68.8647L447.189 -70.2356C427.443 -16.1104 455.313 43.7742 509.438 63.5202L510.809 59.7625ZM639.289 0.301136C620.151 52.0876 562.725 78.7026 510.809 59.7625L509.438 63.5202C563.424 83.2156 623.14 55.5393 643.041 1.68768L639.289 0.301136ZM641.85 -0.884461L449.605 -71.0197L448.234 -67.2619L640.479 2.87328L641.85 -0.884461ZM450.798 -68.4553L451.112 -69.3145L447.354 -70.6855L447.041 -69.8263L450.798 -68.4553Z" fill="#214CB4" fill-opacity="0.4" mask="url(#path-3-inside-1_1_647)"/>
<mask id="path-5-inside-2_1_647" fill="white">
<path fill-rule="evenodd" clip-rule="evenodd" d="M366.747 368.001C366.685 368.081 366.623 368.161 366.561 368.241C344.712 396.477 349.89 437.079 378.126 458.927C406.289 480.72 446.755 475.624 468.643 447.579L366.393 368.459L366.747 368.001Z"/>
</mask>
<path d="M366.747 368.001L368.329 369.225L365.171 366.769L366.747 368.001ZM468.643 447.579L470.22 448.81L471.455 447.226L469.867 445.997L468.643 447.579ZM366.393 368.459L364.811 367.235L363.587 368.817L365.169 370.041L366.393 368.459ZM368.142 369.465C368.203 369.387 368.263 369.309 368.323 369.232L365.171 366.769C365.107 366.852 365.043 366.934 364.979 367.017L368.142 369.465ZM379.35 457.345C351.987 436.173 346.97 396.827 368.142 369.465L364.979 367.017C342.454 396.127 347.792 437.984 376.902 460.509L379.35 457.345ZM467.066 446.349C445.855 473.526 406.642 478.464 379.35 457.345L376.902 460.509C405.937 482.976 447.654 477.723 470.22 448.81L467.066 446.349ZM469.867 445.997L367.617 366.877L365.169 370.041L467.419 449.161L469.867 445.997ZM367.974 369.683L368.329 369.225L365.166 366.777L364.811 367.235L367.974 369.683Z" fill="#214CB4" fill-opacity="0.4" mask="url(#path-5-inside-2_1_647)"/>
<path fill-rule="evenodd" clip-rule="evenodd" d="M37.0366 28.0338L73.6368 19.1508C76.0391 29.2321 69.8403 39.3679 59.7593 41.8146C49.6783 44.2612 39.5229 38.0947 37.0366 28.0338ZM73.6003 19.0002L73.6355 19.1454C73.6297 19.1212 73.6239 19.097 73.618 19.0728C73.6122 19.0486 73.6063 19.0244 73.6003 19.0002Z" fill="#1059D8"/>
<path fill-rule="evenodd" clip-rule="evenodd" d="M542.553 258.388L572.904 290.901C563.923 299.215 549.901 298.71 541.541 289.755C533.182 280.8 533.641 266.777 542.553 258.388ZM573.041 290.773L572.905 290.899C572.928 290.878 572.951 290.857 572.973 290.836C572.996 290.815 573.018 290.794 573.041 290.773Z" fill="#FFC676"/>
<path d="M294.07 131.012L519.928 115.3C461.138 148.495 346.216 198.175 299.605 202.823C250.669 207.691 212.03 194.303 206.605 139.421L294.07 131.012Z" fill="#27343C"/>
<path d="M236.175 103.196L511.541 115.432L207.607 138.723L236.175 103.196Z" fill="white" stroke="#27343C"/>
<path d="M311.403 157.289C332.684 150.367 344.412 127.797 337.6 106.877C330.787 85.9583 308.012 74.6116 286.732 81.5339C265.451 88.4561 253.723 111.026 260.536 131.945C267.348 152.864 290.123 164.211 311.403 157.289Z" fill="#1059D8"/>
<path d="M297.501 299.971C297.501 299.971 331.823 266.445 337.359 258.699C342.894 250.954 374.227 219.198 379.098 210.346C383.859 201.494 383.195 194.081 378.766 192.31C374.337 190.429 368.027 190.429 364.373 193.085C360.609 195.63 288.644 266.776 288.644 266.776L297.501 299.971Z" fill="white" stroke="#27343C" stroke-miterlimit="10"/>
<path d="M392.716 186.335C380.87 187.11 357.731 187.331 357.731 187.331C357.731 187.331 365.923 195.077 369.798 203.928C373.673 212.78 380.649 231.59 381.202 237.676C381.756 243.762 380.095 247.966 378.102 246.528C376.109 245.089 374.449 241.77 374.449 241.77C374.449 241.77 375.334 263.9 374.781 268.326C374.227 272.751 370.352 278.505 366.256 276.845C362.159 275.186 359.834 269.432 358.838 263.346C357.952 257.261 359.723 276.956 356.291 280.165C352.748 283.263 349.095 286.472 343.559 276.071C338.023 265.781 334.48 260.801 334.48 260.801L311.895 263.125L302.484 277.509C302.484 277.509 304.698 304.065 297.723 312.917C290.748 321.769 286.873 327.854 282.223 332.833C277.573 337.812 225.759 292.115 225.759 292.115C225.759 292.115 241.259 263.346 244.912 244.204C247.569 230.152 247.902 213.223 251.555 199.945C252.884 195.077 254.655 190.651 257.091 187.11C267.609 171.841 294.512 170.513 302.152 169.185C309.57 167.968 350.866 165.091 368.581 166.087C373.563 166.308 377.991 166.972 381.756 167.968C389.616 169.96 394.709 172.947 397.034 175.713C400.466 179.697 404.563 185.672 392.716 186.335Z" fill="white" stroke="#27343C" stroke-miterlimit="10"/>
<path d="M188.702 157.928L511.139 117.002L147.104 206.501L188.702 157.928Z" fill="white" stroke="#27343C"/>
<path d="M303.923 176.267C303.923 176.267 342.341 175.16 346.216 177.373C350.091 179.586 357.731 187.332 357.731 187.332" stroke="#27343C" stroke-miterlimit="10" stroke-linecap="round"/>
<path d="M374.891 242.766C374.891 242.766 365.37 213.666 360.387 209.24C355.405 204.814 345.662 198.728 331.269 198.396C316.877 198.064 300.823 197.843 300.823 197.843" stroke="#27343C" stroke-miterlimit="10"/>
<path d="M358.838 264.232C358.838 264.232 356.955 240.332 348.984 236.791C341.012 233.25 337.58 230.927 324.073 230.373C310.566 229.82 299.162 229.267 299.162 229.267" stroke="#27343C" stroke-miterlimit="10"/>
<path d="M116.373 399.887L218.23 279.502L290.748 341.686L241.48 401.214L116.373 399.887Z" fill="white" stroke="#27343C" stroke-miterlimit="10"/>
<path opacity="0.6" d="M381.977 167.968L346.77 176.598L251.777 199.945C253.105 195.077 254.877 190.651 257.312 187.11C267.83 171.841 294.734 170.513 302.373 169.185C309.791 167.968 351.088 165.091 368.802 166.087C373.784 166.308 378.102 166.972 381.977 167.968Z" fill="#27343C"/>
<path d="M97.4397 415.045L207.822 285.587L287.315 353.414L232.955 416.484L97.4397 415.045Z" fill="#1059D8"/>
<path d="M100.54 430.978C138.294 463.619 195.976 459.525 228.748 421.684L246.573 400.439L178.372 341.132C172.837 336.374 164.422 336.927 159.662 342.46L99.322 412.168C94.4505 417.811 95.0041 426.22 100.54 430.978Z" fill="#1059D8"/>
</g>
<path d="M302.029 105.774L307.39 103.638C309.846 102.259 309.37 97.038 309.37 97.038L282.737 107.649L280.412 114.387L292.517 109.564C292.517 109.564 294.833 109.843 296.906 111.022L284.973 115.776L283.616 121.927L299.527 115.588C299.492 116.003 299.561 116.176 299.525 116.591C298.827 121.879 287.276 125.078 287.276 125.078L289.481 130.612L311.247 139.975L319.202 136.806L297.058 125.99C304.911 122.06 306.335 117.084 305.58 113.177L310.249 111.316C312.326 109.487 311.951 105.027 311.951 105.027L303.823 108.265C302.961 106.605 302.029 105.774 302.029 105.774Z" fill="#27343C"/>
<path d="M301.616 104.736L306.977 102.6C309.433 101.221 308.957 96 308.957 96L282.324 106.611L279.999 113.349L292.104 108.526C292.104 108.526 294.42 108.805 296.493 109.984L284.56 114.738L283.203 120.889L299.114 114.55C299.079 114.965 299.148 115.138 299.112 115.553C298.414 120.841 286.863 124.04 286.863 124.04L289.068 129.574L310.834 138.937L318.789 135.768L296.922 124.641C304.775 120.711 306.199 115.735 305.444 111.828L310.113 109.968C312.19 108.138 311.815 103.678 311.815 103.678L303.687 106.917C302.617 105.74 301.616 104.736 301.616 104.736Z" fill="white"/>
</svg>
