<svg width="228" height="228" viewBox="0 0 228 228" fill="none" xmlns="http://www.w3.org/2000/svg">
<rect width="228" height="228" rx="114" fill="#81D8B7"/>
<rect x="17" y="17" width="194" height="194" rx="97" fill="white"/>
<mask id="mask0_1_845" style="mask-type:alpha" maskUnits="userSpaceOnUse" x="17" y="17" width="194" height="194">
<rect x="17" y="17" width="194" height="194" rx="97" fill="white"/>
</mask>
<g mask="url(#mask0_1_845)">
<g clip-path="url(#clip0_1_845)">
<path d="M107.716 65C101.249 65 96 70.2136 96 76.6375C96 83.0746 101.249 88.2816 107.716 88.2816C114.197 88.2816 119.44 83.068 119.44 76.6375C119.44 70.2136 114.197 65 107.716 65ZM107.716 82.4629C104.483 82.4629 101.865 79.8561 101.865 76.6375C101.865 73.4255 104.489 70.8254 107.716 70.8254C110.957 70.8254 113.581 73.4322 113.581 76.6375C113.581 79.8561 110.957 82.4629 107.716 82.4629Z" fill="#FFC676"/>
<path d="M110.736 88.6673L114.05 94.0472L119.004 94.4728L117.652 99.1876L122.338 99.5932L121.849 105.179L130.165 107.374L132.595 105.838L116.547 82.4629L109.048 86.3731L110.736 88.6673Z" fill="#FFC676"/>
</g>
<path d="M139.699 132.755C138.603 135.12 162.634 121.847 165.554 120.758C168.467 119.662 172.901 118.826 174.905 120.282C176.91 121.738 180.731 125.747 174.905 129.208C169.08 132.669 138.776 155.496 129.547 156.527C122.532 157.313 107.831 153.434 99.7411 152.338C91.6515 151.242 78.5437 150.514 74.3547 151.79C70.1657 153.066 67.0654 155.431 67.0654 155.431L67.9306 125.243C67.9306 125.243 75.9626 115.141 89.3515 113.591C102.74 112.041 110.924 114.954 116.858 117.052" fill="white"/>
<path d="M139.699 132.755C138.603 135.12 162.634 121.847 165.554 120.758C168.467 119.662 172.901 118.826 174.905 120.282C176.91 121.738 180.731 125.747 174.905 129.208C169.08 132.669 138.776 155.496 129.547 156.527C122.532 157.313 107.831 153.434 99.7411 152.338C91.6515 151.242 78.5437 150.514 74.3547 151.79C70.1657 153.066 67.0654 155.431 67.0654 155.431L67.9306 125.243C67.9306 125.243 75.9626 115.141 89.3515 113.591C102.74 112.041 110.924 114.954 116.858 117.052" stroke="#27343C" stroke-miterlimit="10"/>
<path d="M109.323 114.698L136.699 123.35C139.886 124.396 141.638 127.864 140.585 131.05C139.54 134.237 136.072 135.989 132.885 134.937L107.874 126.703" fill="white"/>
<path d="M109.323 114.698L136.699 123.35C139.886 124.396 141.638 127.864 140.585 131.05C139.54 134.237 136.072 135.989 132.885 134.937L107.874 126.703" stroke="#27343C" stroke-miterlimit="10"/>
<path d="M-3.67268 112.341L77.519 109.241L79.0619 158.442L39.3133 160.403L-3.67268 112.341Z" fill="white" stroke="#27343C" stroke-miterlimit="10"/>
<path d="M-16.002 110.467L71.5633 107.367L73.4019 161.211L30.5097 162.466L-16.002 110.467Z" fill="#1059D8"/>
<path d="M-20.9975 117.184C-20.2909 142.91 1.33181 163.386 27.057 162.687L41.34 162.059L40.1792 115.512C40.0783 111.748 36.9131 108.756 33.1495 108.857L-14.3499 110.155C-18.1063 110.263 -21.0985 113.421 -20.9975 117.184Z" fill="#1059D8"/>
</g>
<defs>
<clipPath id="clip0_1_845">
<rect width="36.5955" height="42.3737" fill="white" transform="translate(96 65)"/>
</clipPath>
</defs>
</svg>
