<svg width="1120" height="462" viewBox="0 0 1120 462" fill="none" xmlns="http://www.w3.org/2000/svg">
<rect width="1120" height="462" rx="16" fill="#81D8B7" fill-opacity="0.2"/>
<mask id="mask0_1_700" style="mask-type:alpha" maskUnits="userSpaceOnUse" x="0" y="0" width="1120" height="462">
<rect width="1120" height="462" rx="16" fill="white"/>
</mask>
<g mask="url(#mask0_1_700)">
<mask id="path-3-inside-1_1_700" fill="white">
<path fill-rule="evenodd" clip-rule="evenodd" d="M-70.7668 132C-70.8222 132.15 -70.8773 132.3 -70.9321 132.45C-90.2996 185.538 -62.9641 244.274 -9.87649 263.642C43.0747 282.959 101.646 255.814 121.165 202.995L-71.0803 132.86L-70.7668 132Z"/>
</mask>
<path d="M-70.7668 132L-68.8879 132.686L-72.6425 131.306L-70.7668 132ZM121.165 202.995L123.041 203.688L123.737 201.804L121.85 201.116L121.165 202.995ZM-71.0803 132.86L-72.9591 132.174L-73.6446 134.053L-71.7657 134.738L-71.0803 132.86ZM-69.0532 133.136C-68.9995 132.988 -68.9455 132.841 -68.8911 132.694L-72.6425 131.306C-72.699 131.459 -72.7551 131.612 -72.811 131.765L-69.0532 133.136ZM-9.19104 261.763C-61.2409 242.774 -88.0421 185.186 -69.0532 133.136L-72.811 131.765C-92.557 185.89 -64.6872 245.775 -10.5619 265.521L-9.19104 261.763ZM119.289 202.302C100.151 254.088 42.7251 280.703 -9.19104 261.763L-10.5619 265.521C43.4243 285.216 103.14 257.54 123.041 203.688L119.289 202.302ZM121.85 201.116L-70.3948 130.981L-71.7657 134.738L120.48 204.874L121.85 201.116ZM-69.2014 133.545L-68.8879 132.686L-72.6457 131.315L-72.9591 132.174L-69.2014 133.545Z" fill="#214CB4" fill-opacity="0.2" mask="url(#path-3-inside-1_1_700)"/>
<path fill-rule="evenodd" clip-rule="evenodd" d="M206.747 398C206.685 398.08 206.623 398.161 206.561 398.241C184.712 426.477 189.89 467.078 218.126 488.927C246.289 510.719 286.755 505.624 308.643 477.579L206.393 398.459L206.747 398Z" fill="#00A7FF" fill-opacity="0.2"/>
<path fill-rule="evenodd" clip-rule="evenodd" d="M37.0366 28.0335L73.6368 19.1505C76.0391 29.2318 69.8403 39.3677 59.7593 41.8143C49.6783 44.261 39.5229 38.0944 37.0366 28.0335ZM73.6003 19L73.6355 19.1452C73.6297 19.1209 73.6239 19.0967 73.618 19.0725C73.6122 19.0483 73.6063 19.0241 73.6003 19Z" fill="#FFC676"/>
<path fill-rule="evenodd" clip-rule="evenodd" d="M947.187 318.128L977.538 350.64C968.557 358.955 954.535 358.45 946.175 349.495C937.816 340.54 938.276 326.517 947.187 318.128ZM977.675 350.512L977.539 350.639C977.562 350.618 977.585 350.597 977.607 350.576C977.63 350.555 977.653 350.534 977.675 350.512Z" fill="#00A7FF"/>
<path fill-rule="evenodd" clip-rule="evenodd" d="M1050.04 -26.2878L991.117 56.2392C968.476 39.9318 963.26 8.37172 979.489 -14.3591C995.717 -37.0899 1027.26 -42.4059 1050.04 -26.2878ZM991.458 56.4829L991.127 56.2464C991.182 56.286 991.237 56.3256 991.292 56.365C991.347 56.4044 991.403 56.4437 991.458 56.4829Z" fill="#1059D8" fill-opacity="0.2"/>
</g>
</svg>
