<svg width="159" height="160" viewBox="0 0 159 160" fill="none" xmlns="http://www.w3.org/2000/svg">
<rect y="1" width="159" height="159" rx="4" fill="#1059D8" fill-opacity="0.2"/>
<mask id="mask0_1_1317" style="mask-type:alpha" maskUnits="userSpaceOnUse" x="0" y="-1" width="159" height="160">
<rect y="-0.000244141" width="159" height="159" rx="4" fill="#1059D8"/>
</mask>
<g mask="url(#mask0_1_1317)">
<path opacity="0.2" d="M142.652 109.155L174.695 164.941H110.609L142.652 109.155Z" fill="white"/>
<path opacity="0.2" d="M117 137.917L84.957 82.131L149.042 82.131L117 137.917Z" fill="white"/>
</g>
<path d="M29.7227 109.146C32.3203 109.146 34.4102 107.574 34.4102 105.055C34.4102 100.484 27.5938 101.451 27.5938 98.6191C27.5938 97.6035 28.4531 96.8809 29.5859 96.8809C30.6309 96.8809 31.4805 97.4277 32.0176 98.4434L33.7559 97.3691C32.8379 95.7383 31.3535 95.0156 29.6543 95.0156C27.3887 95.0156 25.4941 96.3828 25.4941 98.7266C25.4941 103.16 32.3105 102.125 32.3105 105.24C32.3105 106.393 31.373 107.281 29.7617 107.281C28.1699 107.281 26.9004 106.441 26.6855 104.654L24.6055 105.182C25.0352 107.809 27.3105 109.146 29.7227 109.146ZM40.0059 109.186C40.6602 109.186 41.3047 109.039 41.6465 108.912L41.6367 107.086C41.334 107.223 40.8359 107.398 40.3574 107.398C39.5957 107.398 39.1074 107.027 39.1074 105.943V100.943H41.6465V99.2441H39.1074V95.2402L37.125 96.6855V99.2441H35.4941V100.943H37.0957V106.285C37.0957 108.092 38.1602 109.186 40.0059 109.186ZM47.877 109.186C50.8164 109.186 52.7891 106.871 52.7891 104.098C52.7891 101.334 50.8164 99.0586 47.877 99.0586C44.9375 99.0586 42.9746 101.334 42.9746 104.098C42.9746 106.881 44.9375 109.186 47.877 109.186ZM47.877 107.438C45.9727 107.438 45.0742 105.895 45.0742 104.098C45.0742 102.311 45.9727 100.807 47.877 100.807C49.7812 100.807 50.6895 102.32 50.6895 104.098C50.6895 105.885 49.7812 107.438 47.877 107.438ZM58.7363 109.186C60.6309 109.186 62.1055 108.131 62.7402 106.354L60.9043 105.66C60.6016 106.676 59.7812 107.35 58.7168 107.35C56.9102 107.35 56.1777 105.797 56.1777 104.137C56.1777 102.506 56.9199 100.895 58.7168 100.895C59.7812 100.895 60.5918 101.588 60.9238 102.613L62.8379 101.871C62.1055 99.9961 60.6016 99.0586 58.7168 99.0586C55.6211 99.0586 54.127 101.578 54.127 104.137C54.127 106.783 55.6797 109.186 58.7363 109.186ZM64.8301 109H66.8418V106.129L68.6094 104.225L71.666 109H74.0586L69.9766 102.975L73.5996 99.2441H70.9727L66.8418 103.717V95.2012H64.8301V109ZM78.5703 109.186C80.4355 109.186 82.2617 108.189 82.2617 106.031C82.2617 102.398 77.0566 103.502 77.0566 101.715C77.0566 101.109 77.6426 100.66 78.5801 100.66C79.6836 100.66 80.3184 101.305 80.6992 101.998L82.2617 101.148C81.5391 99.8398 80.2793 99.0586 78.6484 99.0586C76.7734 99.0586 75.123 100.025 75.123 101.979C75.123 105.445 80.2793 104.156 80.2793 106.129C80.2793 106.812 79.6934 107.496 78.4727 107.496C77.1055 107.496 76.4316 106.598 76.1387 105.787L74.5176 106.5C75.0059 107.994 76.5586 109.186 78.5703 109.186Z" fill="#202020"/>
<path d="M30.2611 45.8693C29.6852 45.8693 29.1123 45.6314 28.7022 45.1682C27.9353 44.3073 28.0136 42.9863 28.8744 42.2225L38.2653 33.874C38.7129 33.4765 39.3077 33.2887 39.9025 33.3638L56.1456 35.3328L65.3455 26.6149C66.1844 25.826 67.5054 25.8573 68.2943 26.6963C69.0862 27.5321 69.0518 28.853 68.216 29.645L58.3024 39.0359C57.8516 39.4616 57.2318 39.6651 56.6183 39.5931L40.3344 37.6179L31.6479 45.3403C31.2503 45.6941 30.7557 45.8693 30.2611 45.8693Z" fill="#1059D8" fill-opacity="0.6"/>
<path d="M68.3463 35.4364C67.9394 35.4364 67.5387 35.2768 67.2382 34.9794L59.9352 27.6733C59.4876 27.2256 59.353 26.5526 59.594 25.9673C59.835 25.3819 60.4079 25 61.0402 25H68.3432C69.2071 25 69.9083 25.7012 69.9083 26.5651V33.8681C69.9083 34.5005 69.5264 35.0702 68.9411 35.3143C68.7501 35.3957 68.5466 35.4364 68.3463 35.4364Z" fill="#5C8EE4"/>
<path d="M38.6081 60.9991V66.737H26.0869V60.9991C26.0869 59.5592 27.2545 58.3916 28.6945 58.3916H35.9974C37.4374 58.3916 38.6081 59.5592 38.6081 60.9991Z" fill="#1059D8"/>
<path d="M55.3022 48.4777V66.7367H42.781V48.4777C42.781 47.0377 43.9486 45.8701 45.3885 45.8701H52.6915C54.1346 45.8701 55.3022 47.0377 55.3022 48.4777Z" fill="#1059D8"/>
<path d="M71.9956 52.6532V66.7395H59.4744V52.6532C59.4744 51.2133 60.642 50.0457 62.0819 50.0457H69.388C70.828 50.0425 71.9956 51.2133 71.9956 52.6532Z" fill="#1059D8"/>
<path d="M72.5196 72.9999H25.5651C24.7012 72.9999 24 72.2987 24 71.4348C24 70.5708 24.7012 69.8696 25.5651 69.8696H72.5196C73.3836 69.8696 74.0848 70.5708 74.0848 71.4348C74.0848 72.2987 73.3836 72.9999 72.5196 72.9999Z" fill="#1059D8" fill-opacity="0.6"/>
</svg>
