<svg width="347" height="201" viewBox="0 0 347 201" fill="none" xmlns="http://www.w3.org/2000/svg">
<rect y="1" width="347" height="200" rx="4" fill="#1059D8" fill-opacity="0.2"/>
<mask id="mask0_1_421" style="mask-type:alpha" maskUnits="userSpaceOnUse" x="0" y="0" width="347" height="201">
<rect y="0.826172" width="347" height="200" rx="4" fill="#1059D8"/>
</mask>
<g mask="url(#mask0_1_421)">
<path opacity="0.2" d="M328.049 133.586L393.538 247.016H262.561L328.049 133.586Z" fill="white"/>
<path opacity="0.2" d="M275.62 192.066L210.131 78.636L341.108 78.636L275.62 192.066Z" fill="white"/>
</g>
<path d="M48.3479 68.8258C47.5799 68.8258 46.8161 68.5086 46.2693 67.8909C45.2468 66.7431 45.3511 64.9818 46.4989 63.9634L59.0201 52.8321C59.6169 52.302 60.4099 52.0516 61.203 52.1517L82.8604 54.777L95.127 43.1532C96.2456 42.1014 98.0069 42.1431 99.0587 43.2617C100.115 44.3761 100.069 46.1374 98.9544 47.1933L85.7361 59.7145C85.1351 60.2822 84.3087 60.5535 83.4907 60.4575L61.7789 57.8238L50.1968 68.1204C49.6668 68.5921 49.0073 68.8258 48.3479 68.8258Z" fill="#1059D8" fill-opacity="0.6"/>
<path d="M99.1281 54.9152C98.5855 54.9152 98.0512 54.7024 97.6506 54.3059L87.9133 44.5644C87.3164 43.9675 87.1369 43.0702 87.4583 42.2897C87.7797 41.5092 88.5435 41 89.3866 41H99.1239C100.276 41 101.211 41.9349 101.211 43.0869V52.8242C101.211 53.6673 100.702 54.4269 99.9211 54.7524C99.6665 54.861 99.3952 54.9152 99.1281 54.9152Z" fill="#5C8EE4"/>
<path d="M59.4784 88.9978V96.6483H42.7835V88.9978C42.7835 87.0779 44.3403 85.5211 46.2602 85.5211H55.9975C57.9175 85.5211 59.4784 87.0779 59.4784 88.9978Z" fill="#1059D8"/>
<path d="M81.737 72.3029V96.6483H65.0421V72.3029C65.0421 70.383 66.5989 68.8262 68.5188 68.8262H78.2561C80.1802 68.8262 81.737 70.383 81.737 72.3029Z" fill="#1059D8"/>
<path d="M103.996 77.8706V96.6524H87.3006V77.8706C87.3006 75.9507 88.8574 74.3939 90.7773 74.3939H100.519C102.439 74.3898 103.996 75.9507 103.996 77.8706Z" fill="#1059D8"/>
<path d="M104.693 105H42.0869C40.9349 105 40 104.065 40 102.913C40 101.761 40.9349 100.826 42.0869 100.826H104.693C105.845 100.826 106.78 101.761 106.78 102.913C106.78 104.065 105.845 105 104.693 105Z" fill="#1059D8" fill-opacity="0.6"/>
<path d="M49.1562 163.234C53.3125 163.234 56.6562 160.719 56.6562 156.688C56.6562 149.375 45.75 150.922 45.75 146.391C45.75 144.766 47.125 143.609 48.9375 143.609C50.6094 143.609 51.9688 144.484 52.8281 146.109L55.6094 144.391C54.1406 141.781 51.7656 140.625 49.0469 140.625C45.4219 140.625 42.3906 142.812 42.3906 146.562C42.3906 153.656 53.2969 152 53.2969 156.984C53.2969 158.828 51.7969 160.25 49.2188 160.25C46.6719 160.25 44.6406 158.906 44.2969 156.047L40.9688 156.891C41.6562 161.094 45.2969 163.234 49.1562 163.234ZM65.6094 163.297C66.6562 163.297 67.6875 163.062 68.2344 162.859L68.2188 159.938C67.7344 160.156 66.9375 160.438 66.1719 160.438C64.9531 160.438 64.1719 159.844 64.1719 158.109V150.109H68.2344V147.391H64.1719V140.984L61 143.297V147.391H58.3906V150.109H60.9531V158.656C60.9531 161.547 62.6562 163.297 65.6094 163.297ZM78.2031 163.297C82.9062 163.297 86.0625 159.594 86.0625 155.156C86.0625 150.734 82.9062 147.094 78.2031 147.094C73.5 147.094 70.3594 150.734 70.3594 155.156C70.3594 159.609 73.5 163.297 78.2031 163.297ZM78.2031 160.5C75.1562 160.5 73.7188 158.031 73.7188 155.156C73.7188 152.297 75.1562 149.891 78.2031 149.891C81.25 149.891 82.7031 152.312 82.7031 155.156C82.7031 158.016 81.25 160.5 78.2031 160.5ZM95.5781 163.297C98.6094 163.297 100.969 161.609 101.984 158.766L99.0469 157.656C98.5625 159.281 97.25 160.359 95.5469 160.359C92.6562 160.359 91.4844 157.875 91.4844 155.219C91.4844 152.609 92.6719 150.031 95.5469 150.031C97.25 150.031 98.5469 151.141 99.0781 152.781L102.141 151.594C100.969 148.594 98.5625 147.094 95.5469 147.094C90.5938 147.094 88.2031 151.125 88.2031 155.219C88.2031 159.453 90.6875 163.297 95.5781 163.297ZM105.328 163H108.547V158.406L111.375 155.359L116.266 163H120.094L113.562 153.359L119.359 147.391H115.156L108.547 154.547V140.922H105.328V163ZM127.312 163.297C130.297 163.297 133.219 161.703 133.219 158.25C133.219 152.438 124.891 154.203 124.891 151.344C124.891 150.375 125.828 149.656 127.328 149.656C129.094 149.656 130.109 150.688 130.719 151.797L133.219 150.438C132.062 148.344 130.047 147.094 127.438 147.094C124.438 147.094 121.797 148.641 121.797 151.766C121.797 157.312 130.047 155.25 130.047 158.406C130.047 159.5 129.109 160.594 127.156 160.594C124.969 160.594 123.891 159.156 123.422 157.859L120.828 159C121.609 161.391 124.094 163.297 127.312 163.297Z" fill="#202020"/>
</svg>
