<svg width="64" height="64" viewBox="0 0 64 64" fill="none" xmlns="http://www.w3.org/2000/svg">
<circle cx="32" cy="32" r="32" fill="#00A7FF" fill-opacity="0.08"/>
<path d="M31.0014 44C32.812 44 34.327 42.7098 34.6749 41H27.3265C27.6758 42.7098 29.1909 44 31.0014 44Z" fill="#00A7FF"/>
<path d="M38.0138 32C38.0091 32 38.0061 32 38.0017 32C34.1422 32 31.0013 28.8605 31.0013 24.9995C31.0013 23.939 31.2459 22.9355 31.6703 22.0325C31.4499 22.0116 31.2276 21.998 31.0013 21.998C27.1359 21.998 24.0008 25.1313 24.0008 28.9985V31.7869C24.0008 33.7655 23.1336 35.6332 21.6127 36.92C21.1059 37.3536 20.8806 38.0436 21.0623 38.7156C21.2769 39.5 22.0492 39.9995 22.8622 39.9995H39.1374C39.9892 39.9995 40.7934 39.4476 40.9659 38.6134C41.0992 37.9685 40.8699 37.3221 40.3686 36.9021C38.9136 35.6812 38.0739 33.89 38.0138 32Z" fill="#1059D8"/>
<path d="M43.0015 24.9995C43.0015 27.7607 40.7632 29.999 38.002 29.999C35.2408 29.999 33.0025 27.7607 33.0025 24.9995C33.0025 22.2383 35.2408 20 38.002 20C40.7632 20 43.0015 22.2383 43.0015 24.9995Z" fill="#00A7FF"/>
</svg>
